<svg xmlns="http://www.w3.org/2000/svg" xmlns:xlink="http://www.w3.org/1999/xlink" preserveAspectRatio="xMidYMid" width="23" height="67" viewBox="0 0 23 67">
  <defs>
    <style>

      .cls-2 {
        fill: #e0e9f0;
        opacity: 0.9;
      }
    </style>
  </defs>
  <path d="M22.557,8.386 C22.115,9.085 21.184,9.297 20.479,8.857 C20.479,8.857 12.979,4.182 12.979,4.182 C12.979,4.182 12.979,7.678 12.979,7.678 C12.979,8.504 12.305,9.174 11.472,9.174 C10.639,9.174 9.964,8.504 9.964,7.678 C9.964,7.678 9.964,4.141 9.964,4.141 C9.964,4.141 2.313,8.861 2.313,8.861 C1.606,9.297 0.676,9.081 0.237,8.380 C0.083,8.134 0.010,7.861 0.010,7.591 C0.010,7.091 0.262,6.602 0.721,6.319 C0.721,6.319 10.618,0.213 10.618,0.213 C10.864,0.062 11.138,-0.006 11.408,-0.007 C11.424,-0.008 11.440,-0.010 11.457,-0.010 C11.468,-0.010 11.480,-0.008 11.492,-0.008 C11.765,-0.007 12.041,0.063 12.289,0.217 C12.289,0.217 22.083,6.323 22.083,6.323 C22.789,6.763 23.000,7.687 22.557,8.386 ZM12.979,44.581 C12.979,44.581 12.979,48.535 12.979,48.535 C12.979,48.535 12.979,48.571 12.979,48.571 C12.979,49.397 12.305,50.067 11.472,50.067 C10.639,50.067 9.964,49.397 9.964,48.571 C9.964,48.571 9.964,48.535 9.964,48.535 C9.964,48.535 9.964,44.581 9.964,44.581 C9.964,44.581 9.964,44.545 9.964,44.545 C9.964,43.719 10.639,43.049 11.472,43.049 C12.305,43.049 12.979,43.719 12.979,44.545 C12.979,44.545 12.979,44.581 12.979,44.581 ZM11.472,23.138 C10.639,23.138 9.964,22.468 9.964,21.642 C9.964,21.642 9.964,21.607 9.964,21.607 C9.964,21.607 9.964,17.652 9.964,17.652 C9.964,17.652 9.964,17.617 9.964,17.617 C9.964,16.791 10.639,16.121 11.472,16.121 C12.305,16.121 12.979,16.791 12.979,17.617 C12.979,17.617 12.979,17.652 12.979,17.652 C12.979,17.652 12.979,21.607 12.979,21.607 C12.979,21.607 12.979,21.642 12.979,21.642 C12.979,22.468 12.305,23.138 11.472,23.138 ZM12.979,30.617 C12.979,30.617 12.979,34.571 12.979,34.571 C12.979,34.571 12.979,34.606 12.979,34.606 C12.979,35.432 12.305,36.102 11.472,36.102 C10.639,36.102 9.964,35.432 9.964,34.606 C9.964,34.606 9.964,34.571 9.964,34.571 C9.964,34.571 9.964,30.617 9.964,30.617 C9.964,30.617 9.964,30.581 9.964,30.581 C9.964,29.755 10.639,29.085 11.472,29.085 C12.305,29.085 12.979,29.755 12.979,30.581 C12.979,30.581 12.979,30.617 12.979,30.617 ZM0.237,57.807 C0.676,57.106 1.606,56.891 2.313,57.326 C2.313,57.326 9.964,62.046 9.964,62.046 C9.964,62.046 9.964,58.510 9.964,58.510 C9.964,57.684 10.639,57.014 11.472,57.014 C12.305,57.014 12.979,57.684 12.979,58.510 C12.979,58.510 12.979,62.006 12.979,62.006 C12.979,62.006 20.479,57.330 20.479,57.330 C21.184,56.891 22.115,57.102 22.557,57.802 C23.000,58.500 22.789,59.424 22.083,59.865 C22.083,59.865 12.289,65.970 12.289,65.970 C12.041,66.125 11.765,66.195 11.492,66.195 C11.480,66.196 11.468,66.197 11.457,66.197 C11.440,66.197 11.424,66.195 11.408,66.194 C11.138,66.194 10.864,66.126 10.618,65.974 C10.618,65.974 0.721,59.869 0.721,59.869 C0.262,59.585 0.010,59.096 0.010,58.596 C0.010,58.327 0.083,58.054 0.237,57.807 Z" id="path-1" class="cls-2" fill-rule="evenodd"/>
</svg>
