<svg xmlns="http://www.w3.org/2000/svg" xmlns:xlink="http://www.w3.org/1999/xlink" preserveAspectRatio="xMidYMid" width="345" height="38" viewBox="0 0 345 38">
  <defs>
    <style>

      .cls-2 {
        fill: #e0e9f0;
        opacity: 0.75;
      }
    </style>
  </defs>
  <path d="M344.000,38.000 C344.000,38.000 344.000,15.000 344.000,15.000 C344.000,15.000 1.000,15.000 1.000,15.000 C1.000,15.000 1.000,38.000 1.000,38.000 C1.000,38.000 0.000,38.000 0.000,38.000 C0.000,38.000 0.000,15.000 0.000,15.000 C0.000,15.000 -0.000,15.000 -0.000,15.000 C-0.000,15.000 -0.000,14.000 -0.000,14.000 C-0.000,14.000 172.000,14.000 172.000,14.000 C172.000,14.000 172.000,-0.000 172.000,-0.000 C172.000,-0.000 173.000,-0.000 173.000,-0.000 C173.000,-0.000 173.000,14.000 173.000,14.000 C173.000,14.000 345.000,14.000 345.000,14.000 C345.000,14.000 345.000,15.000 345.000,15.000 C345.000,15.000 345.001,15.000 345.001,15.000 C345.001,15.000 345.001,38.000 345.001,38.000 C345.001,38.000 344.000,38.000 344.000,38.000 Z" id="path-1" class="cls-2" fill-rule="evenodd"/>
</svg>
