<svg xmlns="http://www.w3.org/2000/svg" xmlns:xlink="http://www.w3.org/1999/xlink" preserveAspectRatio="xMidYMid" width="64" height="59" viewBox="0 0 64 59">
  <defs>
    <style>

      .cls-2 {
        fill: #ffffff;
      }
    </style>
  </defs>
  <path d="M63.913,39.760 C63.900,40.487 63.732,41.808 62.771,42.827 C62.338,43.287 61.602,43.787 60.474,43.982 C60.508,46.777 60.440,50.262 59.989,52.227 C60.803,53.370 61.400,55.116 61.079,56.214 C60.831,57.062 60.064,57.903 59.074,58.418 C58.524,58.705 57.747,58.976 56.777,58.976 C56.222,58.976 55.602,58.887 54.924,58.661 C53.817,58.296 53.072,57.624 52.571,56.881 C51.908,57.657 51.175,58.175 50.797,58.317 C50.190,58.544 45.779,59.511 44.169,57.132 C42.868,55.208 43.920,53.305 45.026,52.174 C45.015,52.125 45.004,52.073 44.994,52.023 C44.643,52.422 44.196,52.778 43.685,53.043 C43.134,53.329 42.356,53.601 41.385,53.601 C40.828,53.601 40.209,53.513 39.530,53.287 C38.423,52.921 37.678,52.251 37.178,51.507 C36.515,52.282 35.782,52.801 35.405,52.943 C34.796,53.170 30.385,54.137 28.776,51.761 C27.474,49.834 28.525,47.931 29.632,46.796 C29.196,44.844 29.125,41.458 29.156,38.701 C27.993,38.516 27.234,38.007 26.794,37.541 C25.890,36.579 25.689,35.361 25.657,34.611 C25.657,34.611 25.245,34.281 25.245,34.281 C25.245,34.281 25.318,33.634 25.318,33.634 C25.367,33.210 26.521,23.183 28.016,19.618 C28.892,17.530 30.472,16.021 32.502,15.168 C30.278,13.678 28.812,11.148 28.812,8.284 C28.812,3.709 32.554,-0.016 37.153,-0.016 C41.754,-0.016 45.497,3.709 45.497,8.284 C45.497,8.699 45.434,9.096 45.373,9.492 C46.824,7.032 49.480,5.358 52.546,5.358 C57.148,5.358 60.891,9.082 60.891,13.658 C60.891,16.526 59.422,19.053 57.196,20.547 C59.318,21.426 60.905,23.049 61.752,25.300 C63.088,28.836 63.898,38.660 63.933,39.076 C63.933,39.076 63.984,39.706 63.984,39.706 C63.984,39.706 63.913,39.760 63.913,39.760 ZM60.419,41.560 C60.658,41.475 60.868,41.368 61.019,41.210 C61.021,41.209 61.021,41.206 61.023,41.204 C60.822,41.242 60.618,41.260 60.409,41.266 C60.412,41.357 60.415,41.461 60.419,41.560 ZM55.679,56.408 C56.729,56.756 57.487,56.556 57.941,56.327 C58.482,56.053 58.749,55.662 58.785,55.548 C58.830,55.295 58.642,54.723 58.396,54.209 C57.325,54.715 55.957,54.859 54.775,54.859 C54.575,54.859 54.390,54.852 54.204,54.846 C54.436,55.481 54.863,56.137 55.679,56.408 ZM53.629,52.433 C55.264,52.559 56.990,52.419 57.606,51.944 C58.146,50.190 58.154,44.925 58.017,41.201 C57.096,41.472 55.718,41.648 53.629,41.694 C53.629,41.694 53.629,52.433 53.629,52.433 ZM46.152,55.807 C46.655,56.552 49.231,56.327 49.973,56.086 C50.114,56.005 50.707,55.499 51.124,54.832 C50.841,54.848 50.541,54.859 50.219,54.859 C48.989,54.859 47.550,54.704 46.464,54.134 C46.086,54.603 45.767,55.238 46.152,55.807 ZM51.240,52.438 C51.240,52.438 51.240,41.695 51.240,41.695 C49.285,41.653 47.937,41.502 47.007,41.265 C46.871,44.986 46.884,50.202 47.419,51.944 C48.047,52.431 49.778,52.536 51.240,52.438 ZM43.939,41.296 C44.106,41.472 44.327,41.598 44.602,41.681 C44.607,41.541 44.612,41.396 44.616,41.271 C44.375,41.279 44.136,41.270 43.902,41.242 C43.917,41.259 43.923,41.279 43.939,41.296 ZM40.285,51.032 C41.335,51.381 42.094,51.181 42.546,50.954 C43.089,50.679 43.356,50.288 43.391,50.177 C43.436,49.922 43.248,49.348 43.000,48.835 C41.932,49.340 40.566,49.487 39.384,49.487 C39.184,49.487 38.997,49.479 38.810,49.471 C39.044,50.107 39.471,50.762 40.285,51.032 ZM38.234,47.059 C39.868,47.187 41.593,47.044 42.212,46.573 C42.344,46.130 42.520,45.197 42.620,43.295 C42.455,43.168 42.305,43.039 42.187,42.913 C41.284,41.952 41.082,40.733 41.051,39.988 C41.051,39.988 40.639,39.654 40.639,39.654 C40.639,39.654 40.712,39.006 40.712,39.006 C40.727,38.870 40.861,37.720 41.081,36.117 C40.297,36.223 39.351,36.287 38.234,36.312 C38.234,36.312 38.234,47.059 38.234,47.059 ZM30.758,50.435 C31.261,51.175 33.836,50.955 34.577,50.712 C34.720,50.633 35.312,50.127 35.730,49.459 C35.447,49.474 35.145,49.487 34.821,49.487 C33.591,49.487 32.154,49.331 31.071,48.760 C30.692,49.233 30.373,49.864 30.758,50.435 ZM35.846,47.066 C35.846,47.066 35.846,36.323 35.846,36.323 C33.891,36.280 32.542,36.130 31.612,35.891 C31.477,39.614 31.490,44.830 32.025,46.573 C32.656,47.064 34.369,47.167 35.846,47.066 ZM28.545,35.921 C28.711,36.097 28.935,36.223 29.209,36.303 C29.213,36.164 29.217,36.021 29.222,35.894 C28.981,35.907 28.743,35.894 28.509,35.866 C28.523,35.885 28.530,35.907 28.545,35.921 ZM30.221,20.533 C29.072,23.273 28.074,30.801 27.779,33.176 C28.356,33.480 29.289,33.788 29.988,33.134 C29.988,33.134 30.080,33.230 30.080,33.230 C30.080,33.230 30.173,32.968 30.173,32.968 C30.173,32.968 31.607,33.084 31.607,33.084 C31.607,33.084 31.881,34.496 31.881,34.496 C32.111,34.013 31.902,33.542 31.708,33.413 C31.741,33.434 32.580,33.958 37.026,33.958 C39.378,33.958 40.708,33.809 41.441,33.667 C41.929,30.547 42.621,26.873 43.409,24.991 C43.741,24.206 44.184,23.513 44.699,22.888 C44.506,21.989 44.314,21.265 44.121,20.757 C43.116,18.090 40.722,16.677 37.363,16.801 C37.363,16.801 37.362,16.782 37.362,16.782 C33.932,16.521 31.332,17.886 30.221,20.533 ZM37.153,2.360 C33.870,2.360 31.200,5.018 31.200,8.284 C31.200,11.550 33.870,14.206 37.153,14.206 C40.437,14.206 43.108,11.550 43.108,8.284 C43.108,5.018 40.437,2.360 37.153,2.360 ZM44.328,12.451 C43.692,13.530 42.845,14.473 41.804,15.170 C43.926,16.052 45.511,17.675 46.360,19.923 C46.487,20.261 46.612,20.668 46.736,21.130 C47.102,20.907 47.489,20.714 47.893,20.545 C45.670,19.050 44.205,16.521 44.205,13.658 C44.205,13.245 44.269,12.847 44.328,12.451 ZM58.502,13.658 C58.502,10.393 55.831,7.735 52.546,7.735 C49.265,7.735 46.595,10.393 46.595,13.658 C46.595,16.924 49.265,19.582 52.546,19.582 C55.831,19.582 58.502,16.924 58.502,13.658 ZM59.516,26.135 C58.510,23.465 56.115,22.046 52.757,22.174 C52.757,22.174 52.756,22.157 52.756,22.157 C49.326,21.900 46.726,23.261 45.615,25.908 C44.466,28.647 43.467,36.175 43.173,38.549 C43.748,38.852 44.682,39.162 45.381,38.507 C45.381,38.507 45.474,38.607 45.474,38.607 C45.474,38.607 45.569,38.340 45.569,38.340 C45.569,38.340 47.004,38.463 47.004,38.463 C47.004,38.463 47.271,39.874 47.271,39.874 C47.506,39.389 47.296,38.917 47.100,38.785 C47.134,38.808 47.973,39.332 52.419,39.332 C55.322,39.332 56.672,39.103 57.265,38.944 C57.265,38.944 58.491,37.884 58.491,37.884 C58.491,37.884 59.985,38.853 59.985,38.853 C59.985,38.853 59.985,38.859 59.985,38.859 C60.512,39.000 61.089,38.780 61.489,38.566 C61.279,36.250 60.542,28.854 59.516,26.135 ZM22.127,42.288 C21.694,42.749 20.958,43.251 19.829,43.443 C19.864,46.241 19.795,49.725 19.344,51.691 C20.159,52.834 20.755,54.581 20.433,55.677 C20.186,56.522 19.423,57.366 18.435,57.880 C17.883,58.167 17.106,58.437 16.134,58.437 C15.578,58.437 14.959,58.349 14.279,58.126 C13.173,57.757 12.427,57.088 11.926,56.341 C11.263,57.118 10.531,57.637 10.153,57.779 C9.549,58.008 5.140,58.982 3.525,56.599 C2.223,54.672 3.274,52.768 4.381,51.635 C3.945,49.683 3.874,46.291 3.906,43.538 C2.742,43.352 1.983,42.846 1.542,42.375 C0.638,41.416 0.437,40.199 0.406,39.450 C0.406,39.450 -0.007,39.118 -0.007,39.118 C-0.007,39.118 0.066,38.470 0.066,38.470 C0.115,38.043 1.271,28.022 2.766,24.453 C3.641,22.367 5.223,20.857 7.250,20.006 C5.025,18.515 3.560,15.985 3.560,13.121 C3.560,8.545 7.303,4.820 11.904,4.820 C16.503,4.820 20.245,8.545 20.245,13.121 C20.245,15.987 18.776,18.520 16.548,20.009 C18.674,20.891 20.259,22.508 21.108,24.762 C22.443,28.301 23.253,38.124 23.288,38.538 C23.288,38.538 23.339,39.165 23.339,39.165 C23.339,39.165 23.270,39.221 23.270,39.221 C23.256,39.948 23.087,41.266 22.127,42.288 ZM19.774,41.023 C20.016,40.942 20.222,40.828 20.375,40.671 C20.174,40.704 19.971,40.724 19.765,40.730 C19.768,40.821 19.771,40.927 19.774,41.023 ZM15.035,55.869 C16.086,56.215 16.844,56.017 17.297,55.790 C17.838,55.517 18.104,55.125 18.139,55.015 C18.183,54.759 17.997,54.185 17.749,53.669 C16.681,54.178 15.314,54.324 14.134,54.324 C13.933,54.324 13.747,54.315 13.559,54.310 C13.792,54.943 14.220,55.599 15.035,55.869 ZM12.983,51.894 C14.618,52.023 16.346,51.880 16.963,51.409 C17.500,49.654 17.509,44.387 17.372,40.662 C16.450,40.936 15.072,41.114 12.983,41.160 C12.983,41.160 12.983,51.894 12.983,51.894 ZM5.506,55.270 C6.013,56.017 8.587,55.793 9.324,55.548 C9.468,55.467 10.062,54.960 10.480,54.296 C10.196,54.310 9.894,54.324 9.570,54.324 C8.340,54.324 6.903,54.167 5.819,53.598 C5.441,54.068 5.122,54.701 5.506,55.270 ZM10.595,51.903 C10.595,51.903 10.595,41.160 10.595,41.160 C8.640,41.118 7.291,40.967 6.361,40.729 C6.225,44.450 6.240,49.668 6.774,51.411 C7.405,51.901 9.118,52.004 10.595,51.903 ZM3.293,40.758 C3.460,40.933 3.685,41.059 3.958,41.142 C3.962,41.004 3.966,40.860 3.972,40.733 C3.729,40.746 3.491,40.733 3.258,40.704 C3.272,40.721 3.278,40.744 3.293,40.758 ZM17.856,13.121 C17.856,9.854 15.187,7.198 11.904,7.198 C8.620,7.198 5.949,9.854 5.949,13.121 C5.949,16.386 8.620,19.044 11.904,19.044 C15.187,19.044 17.856,16.386 17.856,13.121 ZM18.870,25.594 C17.868,22.929 15.462,21.516 12.113,21.635 C12.113,21.635 12.111,21.619 12.111,21.619 C8.686,21.361 6.081,22.723 4.971,25.368 C3.821,28.111 2.822,35.636 2.527,38.010 C3.102,38.314 4.034,38.627 4.735,37.969 C4.735,37.969 4.829,38.069 4.829,38.069 C4.829,38.069 4.923,37.806 4.923,37.806 C4.923,37.806 6.357,37.926 6.357,37.926 C6.357,37.926 6.627,39.337 6.627,39.337 C6.862,38.852 6.652,38.379 6.457,38.250 C6.490,38.269 7.328,38.796 11.775,38.796 C14.673,38.796 16.024,38.569 16.618,38.407 C16.618,38.407 17.846,37.347 17.846,37.347 C17.846,37.347 19.339,38.317 19.339,38.317 C19.339,38.317 19.339,38.323 19.339,38.323 C19.870,38.463 20.446,38.245 20.845,38.030 C20.635,35.715 19.897,28.318 18.870,25.594 Z" id="path-1" class="cls-2" fill-rule="evenodd"/>
</svg>
