<svg xmlns="http://www.w3.org/2000/svg" xmlns:xlink="http://www.w3.org/1999/xlink" preserveAspectRatio="xMidYMid" width="74" height="58" viewBox="0 0 74 58">
  <defs>
    <style>

      .cls-2 {
        fill: #000000;
      }
    </style>
  </defs>
  <path d="M72.271,29.089 C71.457,29.650 71.051,29.930 70.250,30.526 C70.224,30.545 70.195,30.558 70.169,30.576 C70.156,30.585 70.147,30.600 70.133,30.610 C70.054,30.664 69.968,30.704 69.885,30.752 C69.827,30.785 69.770,30.822 69.710,30.852 C69.552,30.930 69.388,30.995 69.220,31.050 C69.212,31.053 69.205,31.056 69.198,31.059 C68.818,31.179 68.416,31.244 67.993,31.244 C67.478,31.244 66.934,31.145 66.374,30.967 C64.629,32.194 62.039,34.022 60.670,34.995 C60.922,35.897 61.095,36.799 61.158,37.683 C61.351,40.397 60.538,42.527 58.867,43.677 C57.637,44.524 41.346,56.366 40.422,57.052 C40.403,57.066 40.380,57.076 40.360,57.090 C39.532,57.686 38.526,58.002 37.396,58.002 C37.396,58.002 37.396,58.002 37.395,58.002 C36.474,58.002 35.500,57.785 34.494,57.379 C34.261,57.285 34.027,57.191 33.791,57.076 C33.193,56.783 32.608,56.434 32.039,56.036 C28.061,53.252 24.932,48.094 24.605,43.460 C24.481,41.719 24.780,40.231 25.454,39.068 C24.659,38.649 23.679,38.133 22.726,37.632 C19.300,40.120 16.325,42.286 15.844,42.643 C15.825,42.658 15.802,42.667 15.783,42.681 C15.782,42.681 15.782,42.681 15.782,42.682 C14.954,43.277 13.948,43.593 12.818,43.593 C12.818,43.593 12.818,43.593 12.818,43.593 C11.889,43.593 10.905,43.372 9.888,42.958 C9.665,42.867 9.441,42.778 9.214,42.667 C8.617,42.375 8.031,42.026 7.463,41.628 C3.485,38.846 0.355,33.687 0.029,29.052 C-0.096,27.305 0.207,25.814 0.884,24.649 C1.056,24.352 1.253,24.079 1.471,23.828 C1.496,23.800 1.512,23.763 1.538,23.735 C1.640,23.624 1.758,23.538 1.869,23.440 C1.941,23.374 2.001,23.295 2.078,23.235 C3.338,22.241 20.026,10.211 20.828,9.637 C22.533,8.417 24.862,8.424 27.391,9.661 C27.573,9.751 27.752,9.868 27.932,9.969 C28.970,9.218 31.412,7.502 34.080,5.630 C34.170,5.567 34.247,5.513 34.334,5.452 C34.341,5.366 34.330,5.269 34.340,5.186 C34.365,4.981 34.428,4.804 34.472,4.613 C34.520,4.406 34.555,4.189 34.626,3.998 C34.695,3.810 34.798,3.652 34.889,3.482 C34.977,3.317 35.054,3.144 35.162,2.997 C35.264,2.857 35.394,2.745 35.514,2.623 C35.623,2.510 35.713,2.377 35.837,2.279 C36.398,1.834 36.837,1.534 37.317,1.207 C37.317,1.207 38.086,0.673 38.086,0.673 C39.332,-0.219 41.091,-0.224 42.910,0.663 C46.287,2.316 49.137,6.542 49.401,10.284 C49.541,12.263 48.935,13.824 47.695,14.679 C46.876,15.243 46.472,15.523 45.673,16.116 C45.647,16.136 45.617,16.149 45.591,16.167 C45.578,16.177 45.569,16.191 45.556,16.200 C45.478,16.253 45.394,16.293 45.313,16.339 C45.252,16.374 45.193,16.413 45.130,16.444 C44.984,16.517 44.831,16.576 44.676,16.628 C44.655,16.635 44.635,16.645 44.613,16.652 C44.236,16.771 43.837,16.835 43.416,16.835 C42.902,16.835 42.356,16.735 41.795,16.556 C40.414,17.526 38.525,18.857 37.207,19.790 C40.684,21.622 43.898,23.317 45.353,24.084 C45.371,24.072 45.396,24.054 45.408,24.045 C47.071,22.855 49.477,22.851 51.970,24.070 C52.156,24.161 52.339,24.267 52.523,24.369 C53.553,23.625 55.936,21.949 58.537,20.123 C58.670,20.030 58.787,19.948 58.911,19.861 C58.919,19.774 58.907,19.675 58.918,19.590 C58.941,19.402 59.000,19.240 59.039,19.063 C59.089,18.838 59.128,18.606 59.204,18.401 C59.270,18.224 59.368,18.075 59.453,17.914 C59.545,17.738 59.628,17.556 59.742,17.401 C59.841,17.266 59.965,17.159 60.080,17.040 C60.192,16.924 60.284,16.788 60.411,16.688 C60.963,16.253 61.396,15.956 61.862,15.638 C62.110,15.468 62.368,15.293 62.661,15.082 C63.911,14.190 65.671,14.185 67.489,15.071 C70.865,16.723 73.716,20.948 73.980,24.692 C74.122,26.671 73.516,28.232 72.271,29.089 ZM26.577,43.454 C26.963,48.008 30.555,53.297 34.648,55.301 C34.905,55.427 35.158,55.535 35.407,55.628 C35.445,55.642 35.480,55.650 35.518,55.664 C35.730,55.739 35.939,55.807 36.143,55.858 C36.180,55.867 36.215,55.871 36.251,55.880 C36.452,55.926 36.650,55.965 36.841,55.988 C36.882,55.993 36.921,55.993 36.961,55.997 C37.145,56.014 37.326,56.024 37.500,56.020 C37.549,56.019 37.594,56.011 37.643,56.008 C37.802,55.997 37.960,55.982 38.109,55.953 C38.133,55.948 38.157,55.942 38.181,55.937 C38.348,55.900 38.508,55.850 38.661,55.788 C38.683,55.779 38.706,55.771 38.729,55.761 C38.883,55.694 39.028,55.613 39.166,55.521 C39.181,55.510 39.198,55.503 39.213,55.492 C39.364,55.386 39.506,55.264 39.635,55.125 C39.779,54.970 39.894,54.777 40.008,54.584 C40.044,54.523 40.092,54.478 40.125,54.415 C40.198,54.271 40.244,54.099 40.303,53.939 C40.353,53.799 40.418,53.675 40.457,53.524 C40.485,53.418 40.491,53.293 40.512,53.182 C40.557,52.952 40.607,52.727 40.626,52.476 C40.654,52.103 40.654,51.708 40.625,51.294 C40.301,46.712 36.671,41.336 32.533,39.313 C31.545,38.830 30.621,38.585 29.787,38.585 C29.575,38.585 29.376,38.606 29.183,38.637 C29.058,38.658 28.940,38.693 28.823,38.728 C28.769,38.743 28.713,38.756 28.661,38.774 C28.513,38.828 28.372,38.892 28.238,38.968 C28.227,38.974 28.216,38.979 28.205,38.985 C28.061,39.070 27.924,39.166 27.796,39.275 C27.642,39.407 27.509,39.566 27.382,39.734 C27.305,39.836 27.228,39.938 27.162,40.053 C27.070,40.210 26.996,40.386 26.925,40.565 C26.872,40.699 26.814,40.829 26.772,40.975 C26.712,41.183 26.676,41.413 26.640,41.644 C26.618,41.785 26.585,41.917 26.572,42.067 C26.538,42.460 26.531,42.875 26.562,43.319 C26.565,43.364 26.573,43.409 26.577,43.454 ZM26.787,37.543 C27.377,37.095 29.221,35.748 31.531,34.071 C28.831,32.647 23.273,29.716 18.702,27.308 C20.339,29.649 21.493,32.341 21.796,34.923 C23.306,35.708 25.450,36.837 26.787,37.543 ZM5.199,24.177 C4.991,24.178 4.795,24.197 4.605,24.228 C4.476,24.250 4.355,24.286 4.235,24.322 C4.184,24.337 4.131,24.349 4.082,24.366 C3.930,24.421 3.785,24.488 3.647,24.567 C3.640,24.571 3.632,24.574 3.625,24.578 C3.479,24.664 3.340,24.763 3.211,24.874 C3.062,25.002 2.933,25.156 2.810,25.318 C2.730,25.424 2.649,25.531 2.580,25.651 C2.493,25.802 2.422,25.971 2.353,26.143 C2.297,26.284 2.236,26.419 2.193,26.573 C2.136,26.773 2.101,26.993 2.067,27.214 C2.043,27.364 2.008,27.504 1.994,27.663 C1.962,28.055 1.954,28.469 1.985,28.912 C2.289,33.209 5.496,38.200 9.302,40.475 C9.556,40.626 9.812,40.766 10.071,40.892 C10.318,41.013 10.562,41.116 10.801,41.207 C10.884,41.238 10.964,41.260 11.045,41.288 C11.200,41.340 11.355,41.391 11.505,41.431 C11.599,41.455 11.689,41.472 11.781,41.491 C11.917,41.520 12.052,41.547 12.183,41.565 C12.272,41.577 12.359,41.584 12.446,41.591 C12.578,41.602 12.708,41.609 12.834,41.608 C12.904,41.608 12.973,41.605 13.042,41.601 C13.060,41.600 13.076,41.598 13.094,41.596 C13.216,41.588 13.337,41.574 13.454,41.554 C13.514,41.543 13.575,41.533 13.634,41.520 C13.772,41.488 13.903,41.445 14.031,41.396 C14.075,41.380 14.120,41.366 14.162,41.348 C14.297,41.289 14.422,41.216 14.544,41.137 C14.575,41.117 14.609,41.101 14.640,41.079 C14.789,40.973 14.930,40.854 15.058,40.716 C15.813,39.900 16.164,38.539 16.047,36.885 C15.722,32.304 12.093,26.930 7.956,24.905 C6.968,24.422 6.044,24.177 5.210,24.177 C5.206,24.177 5.202,24.177 5.199,24.177 ZM26.533,11.435 C24.683,10.530 23.061,10.463 21.965,11.244 C20.956,11.966 11.702,18.640 6.585,22.364 C6.938,22.435 7.298,22.531 7.663,22.656 C7.671,22.659 7.679,22.661 7.687,22.663 C8.059,22.792 8.435,22.946 8.815,23.131 C13.593,25.468 17.630,31.449 18.005,36.745 C18.035,37.180 18.024,37.588 17.997,37.987 C17.985,38.220 17.966,38.447 17.937,38.669 C17.937,38.673 17.937,38.677 17.936,38.680 C18.784,38.063 19.761,37.353 20.778,36.614 C20.655,36.550 20.534,36.487 20.421,36.429 C20.421,36.429 19.931,36.175 19.931,36.175 C19.931,36.175 19.892,35.621 19.892,35.621 C19.594,31.402 16.492,26.519 12.773,24.191 C12.327,23.957 11.985,23.778 11.784,23.674 C11.784,23.674 11.801,23.641 11.801,23.641 C11.801,23.641 11.801,23.641 11.800,23.641 C11.800,23.641 10.310,22.913 10.310,22.913 C10.310,22.913 24.248,12.979 24.248,12.979 C24.248,12.979 24.778,13.253 24.778,13.253 C25.622,13.690 28.849,15.387 32.550,17.336 C31.009,14.739 28.819,12.553 26.533,11.435 ZM47.281,11.793 C47.288,11.887 47.271,11.967 47.275,12.059 C47.427,11.606 47.489,11.052 47.445,10.424 C47.233,7.422 44.763,3.765 42.053,2.438 C41.434,2.136 40.856,1.992 40.348,1.983 C40.495,2.044 40.642,2.102 40.791,2.175 C44.164,3.822 47.014,8.047 47.281,11.793 ZM44.226,14.663 C44.313,14.627 44.404,14.597 44.479,14.543 C45.110,14.096 45.412,13.173 45.325,11.932 C45.110,8.928 42.642,5.272 39.934,3.950 C38.799,3.395 37.778,3.328 37.130,3.770 C37.097,3.793 37.073,3.828 37.045,3.856 C37.895,3.665 38.870,3.788 39.873,4.279 C42.505,5.566 44.730,8.863 44.936,11.784 C45.020,12.953 44.768,13.941 44.226,14.663 ZM42.429,13.709 C42.840,13.425 43.041,12.774 42.980,11.924 C42.823,9.716 41.007,7.028 39.014,6.053 C38.218,5.664 37.521,5.615 37.101,5.912 C36.918,6.045 36.177,6.564 35.203,7.249 C33.644,8.342 31.120,10.114 29.694,11.129 C32.067,12.971 34.144,15.692 35.397,18.660 C37.356,17.268 41.863,14.097 42.429,13.709 ZM24.408,15.283 C24.408,15.283 14.075,22.648 14.075,22.648 C18.400,24.917 30.200,31.141 33.309,32.782 C36.955,30.140 41.186,27.086 43.567,25.370 C39.165,23.048 27.472,16.883 24.408,15.283 ZM51.112,25.844 C50.123,25.361 49.199,25.116 48.365,25.116 C47.654,25.116 47.042,25.297 46.544,25.653 C45.481,26.411 36.264,33.059 31.163,36.772 C31.523,36.845 31.889,36.942 32.261,37.071 C32.262,37.071 32.262,37.071 32.263,37.071 C32.635,37.200 33.011,37.353 33.391,37.539 C38.169,39.875 42.207,45.855 42.581,51.154 C42.612,51.583 42.601,51.986 42.575,52.380 C42.563,52.623 42.543,52.858 42.513,53.088 C47.609,49.379 56.842,42.680 57.758,42.049 C58.831,41.311 59.343,39.811 59.202,37.824 C58.876,33.238 55.246,27.864 51.112,25.844 ZM59.659,21.741 C58.042,22.876 55.656,24.552 54.282,25.531 C56.712,27.405 58.772,30.146 59.993,33.061 C62.275,31.442 66.565,28.421 67.009,28.116 C67.417,27.835 67.618,27.183 67.560,26.329 C67.402,24.123 65.587,21.435 63.595,20.463 C62.798,20.073 62.099,20.019 61.677,20.321 C61.489,20.457 60.693,21.015 59.659,21.741 ZM64.509,18.355 C63.375,17.803 62.356,17.738 61.710,18.176 C61.676,18.199 61.652,18.235 61.622,18.264 C62.473,18.072 63.449,18.196 64.452,18.688 C67.084,19.973 69.308,23.269 69.517,26.190 C69.598,27.363 69.345,28.349 68.806,29.069 C68.894,29.035 68.985,29.004 69.059,28.951 C69.688,28.502 69.990,27.580 69.904,26.340 C69.691,23.338 67.220,19.680 64.509,18.355 ZM66.632,16.846 C66.013,16.546 65.437,16.401 64.929,16.392 C65.074,16.453 65.219,16.510 65.366,16.581 C68.743,18.230 71.596,22.456 71.860,26.201 C71.867,26.300 71.850,26.384 71.853,26.481 C72.008,26.030 72.070,25.475 72.024,24.833 C71.811,21.828 69.342,18.172 66.632,16.846 ZM15.104,35.325 C15.213,36.856 14.846,38.122 14.045,38.987 C13.384,39.700 12.484,40.078 11.442,40.078 C10.664,40.078 9.837,39.867 8.986,39.450 C5.833,37.908 3.172,33.963 2.927,30.468 C2.817,28.940 3.183,27.674 3.983,26.809 C5.139,25.561 7.050,25.372 9.041,26.345 C12.194,27.885 14.858,31.830 15.104,35.325 ZM6.586,27.691 C6.097,27.691 5.704,27.847 5.420,28.154 C5.005,28.601 4.815,29.373 4.883,30.328 C5.077,33.091 7.348,36.456 9.844,37.676 C11.015,38.249 12.052,38.245 12.610,37.642 C13.024,37.194 13.216,36.421 13.148,35.465 C12.953,32.703 10.679,29.339 8.183,28.119 C7.610,27.839 7.058,27.691 6.586,27.691 ZM33.618,40.754 C36.771,42.293 39.434,46.238 39.681,49.735 C39.790,51.264 39.423,52.531 38.622,53.396 C37.962,54.109 37.061,54.487 36.019,54.487 C35.241,54.487 34.414,54.276 33.563,53.859 C30.412,52.316 27.750,48.371 27.503,44.878 C27.394,43.349 27.760,42.083 28.561,41.217 C29.714,39.971 31.630,39.778 33.618,40.754 ZM29.460,44.737 C29.655,47.500 31.927,50.863 34.421,52.085 C35.592,52.657 36.628,52.653 37.186,52.050 C37.601,51.603 37.793,50.831 37.725,49.875 C37.530,47.111 35.256,43.747 32.761,42.529 C32.186,42.247 31.634,42.099 31.163,42.099 C30.673,42.099 30.281,42.255 29.996,42.562 C29.583,43.009 29.392,43.782 29.460,44.737 Z" id="path-1" class="cls-2" fill-rule="evenodd"/>
</svg>
