<svg xmlns="http://www.w3.org/2000/svg" xmlns:xlink="http://www.w3.org/1999/xlink" preserveAspectRatio="xMidYMid" width="73" height="54" viewBox="0 0 73 54">
  <defs>
    <style>

      .cls-2 {
        fill: #000000;
      }
    </style>
  </defs>
  <path d="M0.903,22.388 C0.903,22.388 12.501,31.352 12.501,31.352 C12.501,31.352 15.180,46.514 15.180,46.514 C15.334,47.401 15.987,48.118 16.856,48.363 C16.871,48.364 16.886,48.369 16.898,48.373 C17.757,48.597 18.672,48.325 19.265,47.664 C19.265,47.664 25.125,41.112 25.125,41.112 C25.125,41.112 41.197,53.536 41.197,53.536 C41.451,53.733 41.739,53.872 42.044,53.953 C42.420,54.051 42.822,54.056 43.212,53.962 C43.912,53.787 44.494,53.307 44.793,52.651 C44.793,52.651 72.840,3.323 72.840,3.323 C73.228,2.472 73.069,1.476 72.434,0.785 C72.122,0.444 71.722,0.213 71.293,0.098 C70.849,-0.016 70.376,-0.006 69.926,0.150 C69.926,0.150 1.583,18.333 1.583,18.333 C0.767,18.612 0.169,19.313 0.025,20.159 C-0.117,21.005 0.221,21.861 0.903,22.388 ZM3.573,20.745 C3.573,20.745 65.741,4.673 65.741,4.673 C65.741,4.673 14.705,29.351 14.705,29.351 C14.705,29.351 3.573,20.745 3.573,20.745 ZM66.227,5.748 C66.227,5.748 24.424,37.492 24.424,37.492 C24.421,37.498 24.417,37.504 24.413,37.512 C24.406,37.518 24.398,37.522 24.387,37.530 C24.387,37.530 17.871,44.817 17.871,44.817 C17.871,44.817 15.313,30.353 15.313,30.353 C15.313,30.353 66.227,5.748 66.227,5.748 ZM68.928,4.825 C68.928,4.825 42.417,50.772 42.417,50.772 C42.417,50.772 25.733,37.874 25.733,37.874 C25.733,37.874 68.928,4.825 68.928,4.825 Z" id="path-1" class="cls-2" fill-rule="evenodd"/>
</svg>
