<?xml version="1.0" encoding="utf-8"?>
<!-- Generator: Adobe Illustrator 17.1.0, SVG Export Plug-In . SVG Version: 6.00 Build 0)  -->
<!DOCTYPE svg PUBLIC "-//W3C//DTD SVG 1.1//EN" "http://www.w3.org/Graphics/SVG/1.1/DTD/svg11.dtd">
<svg version="1.1" id="Ebene_1" xmlns="http://www.w3.org/2000/svg" xmlns:xlink="http://www.w3.org/1999/xlink" x="0px" y="0px"
	 viewBox="0 0 196.6 61.9" enable-background="new 0 0 196.6 61.9" xml:space="preserve">
<g>
	<g>
		<path fill="#FFFFFF" d="M54.2,23.3c-1.3,1.3-3.2,2-5.4,2h-7.3V3.6h7.3c2.2,0,4.1,0.7,5.4,2c2.2,2.2,2.1,5.6,2.1,8.5
			S56.4,21.1,54.2,23.3z M53,6.8c-1.2-1.3-2.9-1.7-4.7-1.7h-5.2v18.7h5.2c1.7,0,3.4-0.4,4.7-1.7c1.7-1.8,1.6-5.6,1.6-8
			S54.7,8.5,53,6.8z"/>
		<path fill="#FFFFFF" d="M61.3,25.3V3.6h13.1v1.5H63v8.5h9.8v1.5H63v8.7h11.5v1.5L61.3,25.3L61.3,25.3z"/>
		<path fill="#FFFFFF" d="M84.2,25.3h-1.4L75.7,3.6h1.7l6.1,18.8l6.1-18.8h1.7L84.2,25.3z"/>
		<path fill="#FFFFFF" d="M94.2,25.3V3.6h13.1v1.5H95.9v8.5h9.8v1.5h-9.8v8.7h11.5v1.5L94.2,25.3L94.2,25.3z"/>
		<path fill="#FFFFFF" d="M111.6,25.3V3.6h1.6v20.2h11.5v1.5L111.6,25.3L111.6,25.3z"/>
		<path fill="#FFFFFF" d="M139,23.2c-1.4,1.4-3.4,2.2-5.4,2.2s-4-0.8-5.4-2.2c-2-2-2-3.9-2-8.8s0-6.8,2-8.8c1.4-1.4,3.4-2.2,5.4-2.2
			s4,0.8,5.4,2.2c2,2,2,3.9,2,8.8S141,21.3,139,23.2z M137.7,6.6c-1.1-1.1-2.6-1.7-4.1-1.7s-3,0.6-4.1,1.7c-1.6,1.5-1.7,3.2-1.7,7.9
			s0.1,6.3,1.7,7.9c1.1,1.1,2.6,1.7,4.1,1.7s3-0.6,4.1-1.7c1.6-1.5,1.7-3.2,1.7-7.9C139.4,9.8,139.3,8.1,137.7,6.6z"/>
		<path fill="#FFFFFF" d="M154,16.1h-6.3v9.2h-1.6V3.6h7.9c3.7,0,6.5,2.3,6.5,6.2C160.6,13.8,157.8,16.1,154,16.1z M153.8,5.1h-6.1
			v9.5h6.1c3,0,5.1-1.5,5.1-4.8S156.8,5.1,153.8,5.1z"/>
		<path fill="#FFFFFF" d="M164.5,25.3V3.6h13.1v1.5h-11.5v8.5h9.8v1.5h-9.8v8.7h11.5v1.5L164.5,25.3L164.5,25.3z"/>
		<path fill="#FFFFFF" d="M194.7,25.3l-5.2-10h-6v10h-1.6V3.6h8.2c3.5,0,6.2,2,6.2,5.8c0,3.2-1.9,5.3-5,5.8l5.2,10L194.7,25.3
			L194.7,25.3z M189.9,5.1h-6.4v8.8h6.4c2.8,0,4.8-1.4,4.8-4.4S192.7,5.1,189.9,5.1z"/>
		<path fill="#FFFFFF" d="M49.4,52.6h-6.3v9.2h-1.6V40.1h7.9c3.7,0,6.5,2.3,6.5,6.2S53.2,52.6,49.4,52.6z M49.2,41.6h-6.1v9.5h6.1
			c3,0,5.1-1.5,5.1-4.8S52.2,41.6,49.2,41.6z"/>
		<path fill="#FFFFFF" d="M71.9,59.7c-1.4,1.4-3.4,2.2-5.4,2.2c-2,0-4-0.8-5.4-2.2c-2-2-2-3.9-2-8.8s0-6.8,2-8.8
			c1.4-1.4,3.4-2.2,5.4-2.2c2,0,4,0.8,5.4,2.2c2,2,2,3.9,2,8.8S73.9,57.7,71.9,59.7z M70.6,43c-1.1-1.1-2.6-1.7-4.1-1.7
			c-1.6,0-3,0.6-4.1,1.7c-1.5,1.6-1.7,3.2-1.7,7.9s0.1,6.3,1.7,7.9c1.1,1.1,2.6,1.7,4.1,1.7s3-0.6,4.1-1.7c1.6-1.6,1.7-3.2,1.7-7.9
			S72.1,44.6,70.6,43z"/>
		<path fill="#FFFFFF" d="M91.7,61.7l-5.2-10h-6v10H79V40.1h8.2c3.5,0,6.2,2,6.2,5.8c0,3.2-1.9,5.3-5,5.8l5.2,10L91.7,61.7
			L91.7,61.7z M87,41.6h-6.4v8.8H87c2.8,0,4.8-1.4,4.8-4.4C91.8,43,89.8,41.6,87,41.6z"/>
		<path fill="#FFFFFF" d="M103.8,41.6v20.2h-1.6V41.6h-6.4v-1.5h14.6v1.5H103.8z"/>
		<path fill="#FFFFFF" d="M124.7,61.7l-1.9-5.3h-10.1l-1.9,5.3h-1.8l8-21.6h1.5l8,21.6C126.5,61.7,124.7,61.7,124.7,61.7z
			 M117.8,42.3L113.2,55h9.1L117.8,42.3z"/>
		<path fill="#FFFFFF" d="M129.5,61.7V40.1h1.6v20.2h11.5v1.5L129.5,61.7L129.5,61.7z"/>
	</g>
	<path fill="#FFFFFF" d="M0.9,15.3c-0.5,0-0.9-0.4-0.9-0.9C0,6.7,2.1,1.3,2.2,1.1c0.1-0.3,0.4-0.5,0.7-0.5C3,0.6,6.1,0.1,7.8,0
		c0.5,0,0.9,0.3,0.9,0.8c0,0.5-0.3,0.9-0.8,0.9C6.7,1.8,4.6,2.1,3.7,2.2C3.2,3.6,1.7,8.3,1.7,14.4C1.7,14.9,1.3,15.3,0.9,15.3z"/>
	<path fill="#FFFFFF" d="M7.8,28.6C7.8,28.6,7.8,28.6,7.8,28.6c-1.7-0.1-4.8-0.6-4.9-0.6c-0.3,0-0.6-0.2-0.7-0.5
		C2.1,27.3,0,22,0,14.4c0-0.5,0.4-0.9,0.9-0.9s0.9,0.4,0.9,0.9c0,6,1.4,10.6,1.9,12c1,0.1,3,0.4,4.2,0.5c0.5,0,0.8,0.4,0.8,0.9
		C8.7,28.3,8.3,28.6,7.8,28.6z"/>
	<path fill="#FFFFFF" d="M23.7,15.3c-0.5,0-0.9-0.4-0.9-0.9c0-6.1-1.5-10.8-2-12.2c-1-0.1-3.1-0.4-4.3-0.5c-0.5,0-0.8-0.4-0.8-0.9
		c0-0.5,0.4-0.8,0.9-0.8c1.7,0.1,4.8,0.6,4.9,0.6c0.3,0,0.6,0.2,0.7,0.5c0.1,0.2,2.3,5.6,2.3,13.3C24.5,14.9,24.2,15.3,23.7,15.3z"
		/>
	<path fill="#FFFFFF" d="M16.6,28.6c-0.4,0-0.8-0.3-0.9-0.8c0-0.5,0.3-0.9,0.8-0.9c1.2-0.1,3.3-0.4,4.3-0.5c0.5-1.4,2-6,2-12
		c0-0.5,0.4-0.9,0.9-0.9s0.9,0.4,0.9,0.9c0,7.6-2.2,12.9-2.3,13.1c-0.1,0.3-0.4,0.5-0.7,0.5C21.5,28.1,18.4,28.5,16.6,28.6
		C16.7,28.6,16.7,28.6,16.6,28.6z"/>
	<path fill="#FFFFFF" d="M14.1,21.8c-0.3,0-0.6-0.1-0.7-0.4c-3.8-6-5.2-11.3-5.5-12.3C7.7,8.6,8,8.2,8.5,8c0.5-0.1,0.9,0.2,1,0.6
		c0.2,1,1.7,6.1,5.3,11.8c0.3,0.4,0.1,0.9-0.3,1.2C14.4,21.7,14.2,21.8,14.1,21.8z"/>
	<path fill="#FFFFFF" d="M12,17.2c-0.1,0-0.3,0-0.4-0.1c-0.4-0.2-0.5-0.8-0.3-1.2c2.1-3.5,2.8-5.6,3.3-7.3c0.1-0.5,0.6-0.7,1.1-0.6
		c0.5,0.1,0.7,0.6,0.6,1.1c-0.6,1.9-1.4,4.2-3.5,7.7C12.6,17.1,12.3,17.2,12,17.2z"/>
</g>
<g>
	<path fill="#007BB7" d="M146.5,59.2c0.3,0,0.6,0.1,0.9,0.4c0.3,0.3,0.4,0.6,0.4,1c0,0.3-0.1,0.6-0.4,0.9c-0.3,0.3-0.6,0.4-0.9,0.4
		c-0.4,0-0.7-0.1-0.9-0.4c-0.2-0.3-0.4-0.6-0.4-0.9c0-0.4,0.1-0.7,0.4-1C145.8,59.4,146.1,59.2,146.5,59.2z"/>
	<path fill="#4994E3" d="M150.9,39.8c0.3,0,0.5,0.1,0.7,0.2c0.2,0.1,0.3,0.3,0.3,0.5v9.6c0.3-0.6,0.8-1.1,1.4-1.5
		c0.6-0.4,1.4-0.7,2.4-0.7c0.7,0,1.4,0.1,2,0.4c0.6,0.3,1.2,0.7,1.6,1.1c0.5,0.5,0.8,1.1,1.1,1.7c0.3,0.6,0.4,1.3,0.4,2.1v3.1
		c0,0.7-0.1,1.4-0.4,2c-0.3,0.7-0.7,1.2-1.1,1.7c-0.5,0.5-1,0.9-1.6,1.2c-0.6,0.3-1.3,0.5-1.9,0.5c-0.9,0-1.7-0.2-2.4-0.7
		c-0.7-0.4-1.2-1-1.5-1.5V61c0,0.2-0.1,0.4-0.3,0.5c-0.2,0.2-0.4,0.2-0.6,0.2c-0.3,0-0.5-0.1-0.7-0.2c-0.2-0.2-0.3-0.3-0.3-0.5V40.5
		c0-0.2,0.1-0.4,0.3-0.5C150.4,39.9,150.6,39.8,150.9,39.8z M158.9,53.4c0-0.5-0.1-0.9-0.3-1.3c-0.2-0.4-0.4-0.8-0.8-1.2
		c-0.3-0.3-0.7-0.6-1.1-0.8c-0.4-0.2-0.9-0.3-1.4-0.3c-0.4,0-0.9,0.1-1.3,0.2s-0.8,0.4-1.1,0.7c-0.3,0.3-0.6,0.7-0.8,1.1
		c-0.2,0.4-0.3,1-0.3,1.5v4c0,0.2,0.1,0.5,0.3,0.8c0.2,0.3,0.4,0.6,0.7,0.9c0.3,0.3,0.7,0.6,1.1,0.8c0.4,0.2,0.9,0.3,1.4,0.3
		c0.5,0,0.9-0.1,1.4-0.3c0.4-0.2,0.8-0.5,1.1-0.8c0.3-0.3,0.6-0.7,0.8-1.2c0.2-0.4,0.3-0.9,0.3-1.4V53.4z"/>
	<path fill="#4994E3" d="M168.1,48c0.7,0,1.4,0.1,2,0.4c0.6,0.3,1.2,0.6,1.7,1.1c0.5,0.5,0.9,1,1.2,1.6c0.3,0.6,0.4,1.3,0.4,2.1
		c0,0.6-0.1,1-0.2,1.3s-0.3,0.5-0.6,0.7c-0.2,0.2-0.5,0.2-0.8,0.3c-0.3,0-0.6,0-0.9,0h-6.5v1.1c0,1.1,0.4,2.1,1.2,2.7
		c0.8,0.7,1.9,1,3.1,1c0.6,0,1-0.1,1.4-0.2s0.7-0.2,0.9-0.4c0.2-0.1,0.5-0.3,0.6-0.4c0.2-0.1,0.3-0.2,0.5-0.2c0.2,0,0.4,0.1,0.6,0.3
		c0.2,0.2,0.2,0.4,0.2,0.6s-0.1,0.4-0.3,0.6c-0.2,0.2-0.5,0.4-0.9,0.6c-0.4,0.2-0.8,0.4-1.3,0.5c-0.5,0.1-1.1,0.2-1.8,0.2
		c-0.9,0-1.7-0.1-2.5-0.4c-0.8-0.3-1.4-0.6-2-1.1s-1-1.1-1.3-1.7c-0.3-0.7-0.5-1.4-0.5-2.2v-3.2c0-0.7,0.1-1.4,0.4-2
		c0.3-0.6,0.7-1.2,1.2-1.7s1.1-0.9,1.7-1.1C166.7,48.1,167.4,48,168.1,48z M170.2,54.1c0.6,0,1-0.1,1.1-0.2c0.2-0.1,0.3-0.4,0.3-0.8
		c0-0.5-0.1-0.9-0.3-1.3c-0.2-0.4-0.4-0.8-0.7-1.2s-0.7-0.6-1.1-0.8c-0.4-0.2-0.9-0.3-1.5-0.3c-0.5,0-1,0.1-1.4,0.3
		c-0.4,0.2-0.8,0.4-1.1,0.7c-0.3,0.3-0.6,0.7-0.8,1.1c-0.2,0.4-0.3,0.9-0.3,1.4v1.1H170.2z"/>
	<path fill="#4994E3" d="M177.4,57.5c0,0.9,0.2,1.6,0.6,2c0.4,0.4,1.1,0.6,2.1,0.6h0.8c0.3,0,0.5,0.1,0.6,0.3s0.2,0.4,0.2,0.6
		c0,0.2-0.1,0.4-0.2,0.6s-0.4,0.3-0.6,0.3H180c-1.5,0-2.6-0.3-3.4-1s-1.1-1.7-1.1-3.2V42.4c0-0.2,0.1-0.4,0.3-0.5
		c0.2-0.1,0.4-0.2,0.6-0.2c0.2,0,0.4,0.1,0.6,0.2c0.2,0.1,0.3,0.3,0.3,0.5v5.8h3.7c0.2,0,0.3,0.1,0.5,0.2c0.1,0.2,0.2,0.3,0.2,0.5
		c0,0.2-0.1,0.4-0.2,0.5c-0.1,0.2-0.3,0.2-0.5,0.2h-3.7V57.5z"/>
	<path fill="#4994E3" d="M187.2,48c1,0,1.8,0.2,2.4,0.5c0.7,0.3,1.2,0.7,1.6,1.2c0.4,0.5,0.7,1.1,0.9,1.8c0.2,0.7,0.3,1.4,0.3,2.1
		V61c0,0.2-0.1,0.4-0.3,0.5s-0.4,0.2-0.7,0.2c-0.2,0-0.5-0.1-0.6-0.2c-0.2-0.1-0.2-0.3-0.2-0.5v-1.3c-0.5,0.6-1.1,1.1-1.8,1.5
		c-0.7,0.4-1.5,0.7-2.5,0.7c-0.6,0-1.1-0.1-1.5-0.2c-0.5-0.2-0.9-0.4-1.2-0.7s-0.6-0.7-0.8-1.2c-0.2-0.5-0.3-1-0.3-1.7
		c0-0.8,0.2-1.4,0.5-1.9c0.3-0.5,0.8-0.9,1.4-1.2c0.6-0.3,1.3-0.5,2.1-0.6c0.8-0.1,1.7-0.2,2.7-0.2h1.5v-0.7c0-0.5-0.1-0.9-0.2-1.4
		c-0.1-0.5-0.3-0.9-0.6-1.2c-0.3-0.4-0.6-0.7-1-0.9c-0.4-0.2-1-0.4-1.6-0.4c-0.5,0-0.9,0-1.2,0.1c-0.3,0.1-0.6,0.2-0.9,0.3
		c-0.2,0.1-0.4,0.2-0.6,0.3c-0.2,0.1-0.3,0.1-0.4,0.1c-0.2,0-0.4-0.1-0.6-0.3s-0.2-0.4-0.2-0.7c0-0.2,0.1-0.4,0.3-0.5
		s0.5-0.3,0.9-0.5c0.4-0.1,0.8-0.2,1.2-0.3C186.3,48,186.8,48,187.2,48z M190.6,55.5h-1.2c-0.7,0-1.3,0-1.9,0.1
		c-0.6,0-1.1,0.2-1.6,0.3c-0.5,0.2-0.9,0.4-1.1,0.7c-0.3,0.3-0.4,0.8-0.4,1.3c0,0.8,0.2,1.4,0.7,1.8c0.5,0.4,1.1,0.6,1.8,0.6
		c0.5,0,0.9-0.1,1.4-0.3c0.4-0.2,0.9-0.4,1.2-0.7c0.4-0.3,0.7-0.6,0.9-1c0.2-0.4,0.3-0.7,0.3-1V55.5z"/>
</g>
</svg>
