<?xml version="1.0" encoding="utf-8"?>
<!-- Generator: Adobe Illustrator 17.1.0, SVG Export Plug-In . SVG Version: 6.00 Build 0)  -->
<!DOCTYPE svg PUBLIC "-//W3C//DTD SVG 1.1//EN" "http://www.w3.org/Graphics/SVG/1.1/DTD/svg11.dtd">
<svg version="1.1" id="Ebene_1" xmlns="http://www.w3.org/2000/svg" xmlns:xlink="http://www.w3.org/1999/xlink" x="0px" y="0px"
	 viewBox="0 0 172.9 13.6" enable-background="new 0 0 172.9 13.6" xml:space="preserve">
<g>
	<path fill="#FFFFFF" d="M26.1,11.1c-0.6,0.6-1.5,0.9-2.6,0.9h-3.5V1.7h3.5c1.1,0,2,0.3,2.6,0.9c1,1,1,2.7,1,4.1S27.1,10,26.1,11.1z
		 M25.5,3.2c-0.6-0.6-1.4-0.8-2.2-0.8h-2.5v8.9h2.5c0.8,0,1.6-0.2,2.2-0.8c0.8-0.8,0.8-2.7,0.8-3.8C26.3,5.6,26.4,4.1,25.5,3.2z"/>
	<path fill="#FFFFFF" d="M29.5,12V1.7h6.2v0.7h-5.5v4.1h4.7v0.7h-4.7v4.1h5.5V12L29.5,12L29.5,12z"/>
	<path fill="#FFFFFF" d="M40.4,12h-0.7L36.3,1.7h0.8l2.9,8.9l2.9-8.9h0.8L40.4,12z"/>
	<path fill="#FFFFFF" d="M45.1,12V1.7h6.2v0.7h-5.5v4.1h4.7v0.7h-4.7v4.1h5.5V12L45.1,12L45.1,12z"/>
	<path fill="#FFFFFF" d="M53.4,12V1.7h0.8v9.6h5.5V12H53.4z"/>
	<path fill="#FFFFFF" d="M66.4,11c-0.7,0.7-1.6,1.1-2.6,1.1c-1,0-1.9-0.4-2.6-1.1c-0.9-0.9-1-1.9-1-4.2c0-2.3,0-3.2,1-4.2
		C62,2,62.9,1.6,63.9,1.6c1,0,1.9,0.4,2.6,1.1c0.9,0.9,1,1.8,1,4.2C67.4,9.2,67.4,10.1,66.4,11z M65.8,3.1c-0.5-0.5-1.2-0.8-2-0.8
		s-1.4,0.3-2,0.8c-0.7,0.7-0.8,1.5-0.8,3.7c0,2.2,0.1,3,0.8,3.7c0.5,0.5,1.2,0.8,2,0.8c0.7,0,1.4-0.3,2-0.8c0.7-0.7,0.8-1.5,0.8-3.7
		S66.6,3.9,65.8,3.1z"/>
	<path fill="#FFFFFF" d="M73.6,7.7h-3V12h-0.8V1.7h3.8c1.8,0,3.1,1.1,3.1,3C76.7,6.6,75.4,7.7,73.6,7.7z M73.5,2.4h-2.9V7h2.9
		c1.4,0,2.4-0.7,2.4-2.3C75.9,3.1,74.9,2.4,73.5,2.4z"/>
	<path fill="#FFFFFF" d="M78.6,12V1.7h6.2v0.7h-5.5v4.1H84v0.7h-4.7v4.1h5.5V12L78.6,12L78.6,12z"/>
	<path fill="#FFFFFF" d="M92.9,12l-2.5-4.7h-2.8V12h-0.8V1.7h3.9c1.7,0,2.9,1,2.9,2.8c0,1.5-0.9,2.5-2.4,2.8l2.5,4.8H92.9z
		 M90.7,2.4h-3v4.2h3c1.3,0,2.3-0.7,2.3-2.1S92,2.4,90.7,2.4z"/>
</g>
<path fill="#FFFFFF" d="M0.7,7.3c-0.2,0-0.4-0.2-0.4-0.4c0-3.7,1-6.2,1.1-6.3c0.1-0.1,0.2-0.2,0.3-0.2C1.8,0.3,3.2,0.1,4,0
	c0.2,0,0.4,0.2,0.4,0.4c0,0.2-0.2,0.4-0.4,0.4C3.5,0.9,2.5,1,2.1,1C1.8,1.7,1.1,3.9,1.1,6.8C1.1,7.1,1,7.3,0.7,7.3z"/>
<path fill="#FFFFFF" d="M4.1,13.6C4,13.6,4,13.6,4.1,13.6c-0.8-0.1-2.3-0.3-2.3-0.3c-0.1,0-0.3-0.1-0.3-0.2c0-0.1-1.1-2.6-1.1-6.2
	c0-0.2,0.2-0.4,0.4-0.4s0.4,0.2,0.4,0.4c0,2.9,0.7,5,0.9,5.7c0.5,0.1,1.4,0.2,2,0.2c0.2,0,0.4,0.2,0.4,0.4
	C4.4,13.5,4.3,13.6,4.1,13.6z"/>
<path fill="#FFFFFF" d="M11.6,7.3c-0.2,0-0.4-0.2-0.4-0.4c0-2.9-0.7-5.1-0.9-5.8C9.8,1,8.8,0.9,8.2,0.8C8,0.8,7.8,0.6,7.8,0.4
	C7.9,0.2,8,0,8.3,0c0.8,0.1,2.3,0.3,2.3,0.3c0.1,0,0.3,0.1,0.3,0.2C11,0.6,12,3.2,12,6.8C12,7.1,11.8,7.3,11.6,7.3z"/>
<path fill="#FFFFFF" d="M8.2,13.6c-0.2,0-0.4-0.2-0.4-0.4c0-0.2,0.2-0.4,0.4-0.4c0.6,0,1.6-0.2,2-0.2c0.2-0.7,0.9-2.9,0.9-5.7
	c0-0.2,0.2-0.4,0.4-0.4c0.2,0,0.4,0.2,0.4,0.4c0,3.6-1,6.1-1.1,6.2c-0.1,0.1-0.2,0.2-0.3,0.2C10.5,13.4,9.1,13.6,8.2,13.6
	C8.3,13.6,8.3,13.6,8.2,13.6z"/>
<path fill="#FFFFFF" d="M7,10.4c-0.1,0-0.3-0.1-0.3-0.2C4.9,7.3,4.2,4.8,4.1,4.3C4,4.1,4.1,3.9,4.4,3.8c0.2-0.1,0.4,0.1,0.5,0.3
	C5,4.6,5.6,7,7.4,9.7c0.1,0.2,0.1,0.4-0.1,0.6C7.2,10.3,7.1,10.4,7,10.4z"/>
<path fill="#FFFFFF" d="M6,8.2c-0.1,0-0.1,0-0.2-0.1C5.6,8,5.6,7.8,5.7,7.6c1-1.7,1.3-2.7,1.6-3.5c0.1-0.2,0.3-0.3,0.5-0.3
	C8,3.9,8.1,4.1,8,4.3C7.8,5.3,7.4,6.3,6.4,8C6.3,8.1,6.2,8.2,6,8.2z"/>
<path fill="#FFFFFF" d="M105.2,7.7h-3V12h-0.8V1.7h3.8c1.8,0,3.1,1.1,3.1,3C108.3,6.6,107,7.7,105.2,7.7z M105.1,2.4h-2.9V7h2.9
	c1.4,0,2.4-0.7,2.4-2.3C107.5,3.1,106.5,2.4,105.1,2.4z"/>
<path fill="#FFFFFF" d="M115.9,11c-0.7,0.7-1.6,1.1-2.6,1.1s-1.9-0.4-2.6-1.1c-0.9-0.9-1-1.9-1-4.2c0-2.3,0-3.2,1-4.2
	c0.7-0.7,1.6-1.1,2.6-1.1s1.9,0.4,2.6,1.1c0.9,0.9,1,1.8,1,4.2C116.8,9.2,116.8,10.1,115.9,11z M115.3,3.1c-0.5-0.5-1.2-0.8-2-0.8
	c-0.7,0-1.4,0.3-2,0.8c-0.7,0.7-0.8,1.5-0.8,3.7c0,2.2,0.1,3,0.8,3.7c0.5,0.5,1.2,0.8,2,0.8c0.7,0,1.4-0.3,2-0.8
	c0.7-0.7,0.8-1.5,0.8-3.7S116,3.9,115.3,3.1z"/>
<path fill="#FFFFFF" d="M125.3,12l-2.5-4.7H120V12h-0.8V1.7h3.9c1.7,0,2.9,1,2.9,2.8c0,1.5-0.9,2.5-2.4,2.8l2.5,4.8
	C126.2,12,125.3,12,125.3,12z M123.1,2.4h-3v4.2h3c1.3,0,2.3-0.7,2.3-2.1S124.4,2.4,123.1,2.4z"/>
<path fill="#FFFFFF" d="M131.1,2.4V12h-0.8V2.4h-3.1V1.7h6.9v0.7H131.1z"/>
<path fill="#FFFFFF" d="M141,12l-0.9-2.5h-4.8l-0.9,2.5h-0.8l3.8-10.3h0.7l3.8,10.3C141.8,12,141,12,141,12z M137.7,2.8l-2.2,6.1
	h4.3L137.7,2.8z"/>
<path fill="#FFFFFF" d="M143.3,12V1.7h0.8v9.6h5.5V12C149.5,12,143.3,12,143.3,12z"/>
<g>
	<path fill="#007BB7" d="M150.6,10.7c0.2,0,0.3,0.1,0.4,0.2c0.1,0.1,0.2,0.3,0.2,0.4c0,0.2-0.1,0.3-0.2,0.4
		c-0.1,0.1-0.3,0.2-0.4,0.2c-0.2,0-0.3-0.1-0.4-0.2c-0.1-0.1-0.2-0.3-0.2-0.4c0-0.2,0.1-0.3,0.2-0.4
		C150.3,10.8,150.4,10.7,150.6,10.7z"/>
	<path fill="#4994E3" d="M152.7,1.7c0.1,0,0.2,0,0.3,0.1c0.1,0.1,0.1,0.1,0.1,0.2v4.5c0.2-0.3,0.4-0.5,0.7-0.7
		c0.3-0.2,0.7-0.3,1.1-0.3c0.3,0,0.6,0.1,0.9,0.2c0.3,0.1,0.5,0.3,0.8,0.5c0.2,0.2,0.4,0.5,0.5,0.8c0.1,0.3,0.2,0.6,0.2,1v1.5
		c0,0.3-0.1,0.6-0.2,1c-0.1,0.3-0.3,0.6-0.5,0.8c-0.2,0.2-0.5,0.4-0.8,0.6c-0.3,0.1-0.6,0.2-0.9,0.2c-0.4,0-0.8-0.1-1.1-0.3
		c-0.3-0.2-0.6-0.4-0.7-0.7v0.6c0,0.1,0,0.2-0.1,0.2c-0.1,0.1-0.2,0.1-0.3,0.1c-0.1,0-0.2,0-0.3-0.1c-0.1-0.1-0.1-0.2-0.1-0.2V2
		c0-0.1,0-0.2,0.1-0.2C152.5,1.7,152.6,1.7,152.7,1.7z M156.4,8c0-0.2,0-0.4-0.1-0.6c-0.1-0.2-0.2-0.4-0.4-0.5
		c-0.2-0.2-0.3-0.3-0.5-0.4c-0.2-0.1-0.4-0.1-0.6-0.1c-0.2,0-0.4,0-0.6,0.1c-0.2,0.1-0.4,0.2-0.5,0.3c-0.2,0.1-0.3,0.3-0.4,0.5
		c-0.1,0.2-0.1,0.4-0.1,0.7v1.9c0,0.1,0,0.2,0.1,0.4c0.1,0.2,0.2,0.3,0.3,0.4c0.1,0.1,0.3,0.3,0.5,0.4c0.2,0.1,0.4,0.1,0.6,0.1
		c0.2,0,0.4,0,0.6-0.1c0.2-0.1,0.4-0.2,0.5-0.4c0.2-0.2,0.3-0.3,0.4-0.6c0.1-0.2,0.1-0.4,0.1-0.6V8z"/>
	<path fill="#4994E3" d="M160.7,5.5c0.3,0,0.6,0.1,0.9,0.2c0.3,0.1,0.6,0.3,0.8,0.5c0.2,0.2,0.4,0.5,0.5,0.8c0.1,0.3,0.2,0.6,0.2,1
		c0,0.3,0,0.5-0.1,0.6c-0.1,0.1-0.2,0.2-0.3,0.3c-0.1,0.1-0.2,0.1-0.4,0.1c-0.1,0-0.3,0-0.4,0h-3v0.5c0,0.5,0.2,1,0.6,1.3
		c0.4,0.3,0.9,0.5,1.5,0.5c0.3,0,0.5,0,0.7-0.1c0.2-0.1,0.3-0.1,0.4-0.2c0.1-0.1,0.2-0.1,0.3-0.2c0.1-0.1,0.2-0.1,0.2-0.1
		c0.1,0,0.2,0,0.3,0.1c0.1,0.1,0.1,0.2,0.1,0.3c0,0.1,0,0.2-0.1,0.3c-0.1,0.1-0.2,0.2-0.4,0.3c-0.2,0.1-0.4,0.2-0.6,0.2
		c-0.2,0.1-0.5,0.1-0.8,0.1c-0.4,0-0.8-0.1-1.2-0.2c-0.4-0.1-0.7-0.3-0.9-0.5c-0.3-0.2-0.5-0.5-0.6-0.8c-0.1-0.3-0.2-0.7-0.2-1V8
		c0-0.3,0.1-0.6,0.2-0.9c0.1-0.3,0.3-0.6,0.5-0.8s0.5-0.4,0.8-0.5C160,5.6,160.4,5.5,160.7,5.5z M161.7,8.4c0.3,0,0.4,0,0.5-0.1
		c0.1-0.1,0.1-0.2,0.1-0.4c0-0.2,0-0.4-0.1-0.6c-0.1-0.2-0.2-0.4-0.3-0.5c-0.1-0.2-0.3-0.3-0.5-0.4c-0.2-0.1-0.4-0.1-0.7-0.1
		c-0.2,0-0.4,0-0.6,0.1c-0.2,0.1-0.4,0.2-0.5,0.3c-0.2,0.1-0.3,0.3-0.4,0.5c-0.1,0.2-0.1,0.4-0.1,0.6v0.5H161.7z"/>
	<path fill="#4994E3" d="M165,9.9c0,0.4,0.1,0.7,0.3,0.9c0.2,0.2,0.5,0.3,1,0.3h0.4c0.1,0,0.2,0,0.3,0.1c0.1,0.1,0.1,0.2,0.1,0.3
		c0,0.1,0,0.2-0.1,0.3s-0.2,0.1-0.3,0.1h-0.4c-0.7,0-1.2-0.2-1.6-0.5c-0.4-0.3-0.5-0.8-0.5-1.5v-7c0-0.1,0-0.2,0.1-0.2
		c0.1-0.1,0.2-0.1,0.3-0.1c0.1,0,0.2,0,0.3,0.1c0.1,0.1,0.1,0.1,0.1,0.2v2.7h1.7c0.1,0,0.2,0,0.2,0.1c0.1,0.1,0.1,0.2,0.1,0.3
		c0,0.1,0,0.2-0.1,0.3c-0.1,0.1-0.1,0.1-0.2,0.1H165V9.9z"/>
	<path fill="#4994E3" d="M169.6,5.5c0.4,0,0.8,0.1,1.1,0.2c0.3,0.1,0.6,0.3,0.7,0.6c0.2,0.2,0.3,0.5,0.4,0.8c0.1,0.3,0.1,0.6,0.1,1
		v3.5c0,0.1,0,0.2-0.1,0.2c-0.1,0.1-0.2,0.1-0.3,0.1c-0.1,0-0.2,0-0.3-0.1c-0.1-0.1-0.1-0.1-0.1-0.2V11c-0.2,0.3-0.5,0.5-0.8,0.7
		c-0.3,0.2-0.7,0.3-1.2,0.3c-0.3,0-0.5,0-0.7-0.1c-0.2-0.1-0.4-0.2-0.6-0.3c-0.2-0.1-0.3-0.3-0.4-0.5c-0.1-0.2-0.1-0.5-0.1-0.8
		c0-0.4,0.1-0.7,0.2-0.9c0.2-0.2,0.4-0.4,0.6-0.6c0.3-0.1,0.6-0.2,1-0.3c0.4-0.1,0.8-0.1,1.3-0.1h0.7V8.1c0-0.2,0-0.4-0.1-0.6
		c-0.1-0.2-0.1-0.4-0.3-0.6c-0.1-0.2-0.3-0.3-0.5-0.4c-0.2-0.1-0.4-0.2-0.7-0.2c-0.2,0-0.4,0-0.6,0.1c-0.2,0-0.3,0.1-0.4,0.1
		c-0.1,0-0.2,0.1-0.3,0.1c-0.1,0-0.1,0.1-0.2,0.1c-0.1,0-0.2-0.1-0.3-0.2s-0.1-0.2-0.1-0.3c0-0.1,0.1-0.2,0.2-0.3
		c0.1-0.1,0.2-0.2,0.4-0.2c0.2-0.1,0.4-0.1,0.6-0.2C169.2,5.5,169.4,5.5,169.6,5.5z M171.2,9h-0.6c-0.3,0-0.6,0-0.9,0
		c-0.3,0-0.5,0.1-0.8,0.2c-0.2,0.1-0.4,0.2-0.5,0.3c-0.1,0.2-0.2,0.4-0.2,0.6c0,0.4,0.1,0.7,0.3,0.8c0.2,0.2,0.5,0.3,0.8,0.3
		c0.2,0,0.4,0,0.6-0.1c0.2-0.1,0.4-0.2,0.6-0.3c0.2-0.1,0.3-0.3,0.4-0.5c0.1-0.2,0.2-0.3,0.2-0.5V9z"/>
</g>
</svg>
