<svg xmlns="http://www.w3.org/2000/svg" xmlns:xlink="http://www.w3.org/1999/xlink" preserveAspectRatio="xMidYMid" width="26" height="26" viewBox="0 0 26 26">
  <defs>
    <style>
      .cls-1 {
        fill: #7f90a4;
        fill-rule: evenodd;
      }
    </style>
  </defs>
  <path d="M13.003,26.008 C5.822,26.008 -0.002,20.182 -0.002,12.998 C-0.002,5.812 5.822,-0.011 13.003,-0.011 C20.184,-0.011 26.008,5.812 26.008,12.998 C26.008,20.182 20.184,26.008 13.003,26.008 ZM13.003,3.312 C7.666,3.312 3.320,7.656 3.320,12.998 C3.320,18.341 7.666,22.684 13.003,22.684 C18.344,22.684 22.687,18.341 22.687,12.998 C22.687,7.656 18.344,3.312 13.003,3.312 ZM12.181,19.439 C11.848,19.769 11.208,19.671 10.752,19.222 L10.700,19.171 C10.245,18.720 10.147,18.089 10.481,17.758 L10.375,9.205 C10.037,8.871 10.136,8.231 10.597,7.774 L10.649,7.722 C11.111,7.265 11.759,7.167 12.098,7.501 L16.474,11.830 L18.174,13.512 L16.451,15.217 L12.181,19.439 Z" class="cls-1"/>
</svg>
