<svg xmlns="http://www.w3.org/2000/svg" xmlns:xlink="http://www.w3.org/1999/xlink" preserveAspectRatio="xMidYMid" width="65" height="23" viewBox="0 0 65 23">
  <defs>
    <style>

      .cls-2 {
        fill: #e0e9f0;
        opacity: 0.83;
      }
    </style>
  </defs>
  <path d="M65.023,11.358 C65.022,11.628 64.954,11.901 64.802,12.148 C64.802,12.148 58.697,22.044 58.697,22.044 C58.413,22.504 57.924,22.756 57.425,22.756 C57.155,22.756 56.882,22.683 56.636,22.529 C55.934,22.089 55.719,21.160 56.154,20.452 C56.154,20.452 60.875,12.801 60.875,12.801 C60.875,12.801 57.338,12.801 57.338,12.801 C56.512,12.801 55.842,12.127 55.842,11.294 C55.842,10.461 56.512,9.786 57.338,9.786 C57.338,9.786 60.834,9.786 60.834,9.786 C60.834,9.786 56.158,2.286 56.158,2.286 C55.719,1.581 55.930,0.651 56.630,0.208 C57.328,-0.234 58.253,-0.024 58.693,0.683 C58.693,0.683 64.798,10.476 64.798,10.476 C64.953,10.725 65.023,11.001 65.023,11.274 C65.024,11.286 65.025,11.297 65.025,11.309 C65.025,11.325 65.023,11.341 65.023,11.358 ZM47.363,12.801 C47.363,12.801 43.374,12.801 43.374,12.801 C42.548,12.801 41.877,12.127 41.877,11.294 C41.877,10.461 42.548,9.786 43.374,9.786 C43.374,9.786 47.363,9.786 47.363,9.786 C48.189,9.786 48.860,10.461 48.860,11.294 C48.860,12.127 48.189,12.801 47.363,12.801 ZM33.399,12.801 C33.399,12.801 29.409,12.801 29.409,12.801 C28.583,12.801 27.913,12.127 27.913,11.294 C27.913,10.461 28.583,9.786 29.409,9.786 C29.409,9.786 33.399,9.786 33.399,9.786 C34.225,9.786 34.895,10.461 34.895,11.294 C34.895,12.127 34.225,12.801 33.399,12.801 ZM19.435,12.801 C19.435,12.801 15.445,12.801 15.445,12.801 C14.619,12.801 13.949,12.127 13.949,11.294 C13.949,10.461 14.619,9.786 15.445,9.786 C15.445,9.786 19.435,9.786 19.435,9.786 C20.261,9.786 20.931,10.461 20.931,11.294 C20.931,12.127 20.261,12.801 19.435,12.801 ZM5.471,12.801 C5.471,12.801 1.481,12.801 1.481,12.801 C0.655,12.801 -0.015,12.127 -0.015,11.294 C-0.015,10.461 0.655,9.786 1.481,9.786 C1.481,9.786 5.471,9.786 5.471,9.786 C6.297,9.786 6.967,10.461 6.967,11.294 C6.967,12.127 6.297,12.801 5.471,12.801 Z" id="path-1" class="cls-2" fill-rule="evenodd"/>
</svg>
