<?xml version="1.0" encoding="utf-8"?>
<!-- Generator: Adobe Illustrator 18.1.0, SVG Export Plug-In . SVG Version: 6.00 Build 0)  -->
<svg version="1.1" id="Layer_1" xmlns="http://www.w3.org/2000/svg" xmlns:xlink="http://www.w3.org/1999/xlink" x="0px" y="0px"
	 viewBox="-245 337 120 120" enable-background="new -245 337 120 120" xml:space="preserve">
<g id="smile-happy">
	<g>
		<path fill="#8A8FA1" d="M-136.3,383.3c-0.8-2.9-1.9-5.6-2.9-8.3c-0.7-0.6-1.1-1.5-1.6-2.2c-0.4-1-1.4-1.4-1.6-2.6
			c-2.7-2.3-5.1-4.9-8-6.7c-0.2-0.1-0.5,0.1-0.6,0c-0.2-0.1-0.2-0.6-0.6-0.6c-0.9,0-1.7-0.9-2.2-1.3c-0.4-0.2-0.9-0.4-1.3-0.6
			c-5.6-2.8-13-4.9-20.4-5.1c-3.9-0.1-8.3,0.1-11.8,0c-0.1,0.3-0.3,0.4-0.6,0.3h-1.9c-6.1,1.5-11.8,3.3-16.9,5.7
			c-0.1,0.2-0.3,0.4-0.6,0.3c-0.9,1.3-2.5,1.8-3.5,2.9c-0.9,1.4-2.3,2.1-3.2,3.5c-1.1,1.2-2,2.4-3.2,3.5c-1,1.3-1.7,2.7-2.9,3.8
			c-1.1,2.6-2.6,4.6-3.5,7.3c-0.8,2.8-1.6,5.6-2.2,8.6c0.2,1-0.2,1.5-0.3,2.2v9.9c1.4,9.8,4.2,18.2,8.3,25.2c1.9,2.1,4,3.9,6.1,5.4
			c0.7,0.5,1.6,1.4,2.6,1.6c1.3,1.4,3.1,2.2,4.8,3.2c1.5,1.2,3.2,2.2,4.8,3.2c1.3-0.2,1.4,0.9,2.9,0.6c1.3-0.1,2,0.3,2.9,0.6
			c2,0.3,3.8,0.9,5.7,1.3c4.3,0.5,8.8,0.8,13.7,0.6c2-0.3,4.3-0.4,6.1-1c4-0.7,7.4-2,10.2-3.8c2-0.5,2.9-1.9,4.8-2.6
			c1.5-1.4,3-3,4.8-4.1c1.2-1.8,2.7-3.4,4.1-5.1c0.9-2.1,2.5-3.6,3.2-6.1c1.4-1.7,1.7-4.5,2.9-6.4
			C-136.1,407.4-134.9,394.6-136.3,383.3z M-142.4,409.1c-0.5,1.9-1.4,4.9-2.2,7c-0.1,0.2-0.6,0.8-0.6,1c-0.2,0.5-0.1,0.8-0.3,1.3
			c-1.4,3.1-3.3,5.7-4.8,8.3c-2.5,2.7-5,5.4-8,7.7c-1.7,1-3.2,2.1-5.1,2.9c-1.6,0.9-3.8,1.3-5.4,2.2c-7.1,1.5-16.4,1.1-23-0.6
			c-3.9-0.9-6.7-2.9-10.5-3.8c-1.9-1.7-4.3-2.9-6.1-4.8c-2.2-1.5-4.2-3.1-5.7-5.1c0-0.5-0.2-0.8-0.6-1c-1.2-2.1-1.7-4.8-2.9-7
			c-1.2-2-2-4.4-2.6-7v-0.6c-0.4-2.1,0.1-4.5,0-7c-0.1-2.4-0.6-4.7-0.3-7c1.8-9.5,5.7-17.1,11.5-22.6c5.1-4,10.9-7.3,18.2-9.2
			c2.6-0.3,5.1-0.8,8.3-0.6h0.6c0.5-0.8,3.1-0.1,4.8,0c4.5,0.2,9.1,0.4,12.8,1.6c4.9,1.5,9.2,3.6,13.1,6.1c0.8,0.9,1.9,1.5,2.9,2.2
			c0.7,1,1.6,1.8,2.6,2.6c1.3,2,2.6,4,3.8,6.1c0.1,1.2,0.4,2.1,1,2.9C-140.2,393.1-140.4,401.9-142.4,409.1z M-168.6,391.6
			c0.7,0.1,0.7,1,1.3,1.3c0.1,0.7,1.4,0.3,1.6,1c1.4-0.2,2.3-0.9,3.5-1.3c1.1-1.2,1.8-2.6,2.2-4.1c0.7-2.6,0.4-6.9-0.6-9.2
			c-1-0.7-1.9-1.5-3.8-1.3c-1.2,0.7-2.1,1.7-3.2,2.6c-0.2,1.7-1.1,2.8-1.3,4.5v5.7C-168.5,390.7-168.5,391.1-168.6,391.6z
			 M-193.4,393.8c2.3,0.2,3.8-0.4,5.1-1.3c1.6-3.5,2.1-9.6,0-13.1c-1.2-0.5-2.6-0.8-4.5-0.6c-1.4,0.7-2.4,1.9-3.2,3.2
			c-0.5,3.5-0.9,9.3,1.3,11.2C-194.1,393.2-193.6,393.4-193.4,393.8z M-162.5,413c-2-2-4-3.8-6.4-5.4c-0.9,0.3-0.8-0.4-1.6-0.3
			c-0.2-0.6-1.5,0-1.6-0.6c-3.9-0.2-7.2,0.2-10.5,0.6c-1.7,1-4.3,1.3-5.7,2.6c-2.2,0.7-3.7,2-5.4,3.2c-1.7,1.2-2.9,2.9-4.5,4.1
			c-0.3,1.1-1,1.8-1.3,2.9c0.4,1.1,0.6,2.4,1.9,2.6c1.8,0.3,1.8-1.1,2.6-1.9c0.5-1,1.7-1.5,2.2-2.6c1.2-0.3,1.8-1.2,2.6-1.9
			c1.1-0.4,1.8-1.1,2.9-1.6c2-1.1,4.4-1.8,7-2.2h7.7c0.1,0.2,0.3,0.4,0.6,0.3c2.2,0.9,3.6,2.8,5.1,4.5c1.9,2.1,2.1,6,6.1,6.1
			c0.4-0.5,1.2-0.5,1.6-1c0.2-0.4,0.3-0.7,0.6-1c0.3-2.3-1-3-1.6-4.5C-160.8,415.3-161.9,414.3-162.5,413z"/>
	</g>
</g>
</svg>
