<?xml version="1.0" encoding="utf-8"?>
<!-- Generator: Adobe Illustrator 18.1.1, SVG Export Plug-In . SVG Version: 6.00 Build 0)  -->
<svg version="1.1" id="Layer_1" xmlns="http://www.w3.org/2000/svg" xmlns:xlink="http://www.w3.org/1999/xlink" x="0px" y="0px"
	 viewBox="-293 376 24 41" enable-background="new -293 376 24 41" xml:space="preserve">
<path id="path-1" fill="#FCFCFC" d="M-292.9,395.9l7.5-7.4c0.2-0.2,0.5-0.2,0.7,0l0.8,0.8c0.2,0.2,0.2,0.5,0,0.7l-6.3,6.2l6.4,6.4
	c0.2,0.2,0.2,0.5,0,0.7l-0.8,0.8c-0.2,0.2-0.5,0.2-0.7,0l-6.6-6.6c-0.1,0-0.2,0-0.2-0.1l-0.8-0.8C-293,396.4-293,396.1-292.9,395.9z
	 M-270,417h-9v-41h9V417z"/>
</svg>
