<svg xmlns="http://www.w3.org/2000/svg" xmlns:xlink="http://www.w3.org/1999/xlink" preserveAspectRatio="xMidYMid" width="24" height="41" viewBox="0 0 24 41">
  <defs>
    <style>

      .cls-2 {
        fill: #233243;
      }
    </style>
  </defs>
  <path d="M22.871,21.087 C22.871,21.087 15.380,28.474 15.380,28.474 C15.193,28.653 14.888,28.648 14.696,28.464 C14.696,28.464 13.892,27.709 13.892,27.709 C13.700,27.526 13.696,27.231 13.882,27.052 C13.882,27.052 20.147,20.875 20.147,20.875 C20.147,20.875 13.763,14.492 13.763,14.492 C13.580,14.315 13.584,14.024 13.774,13.841 C13.774,13.841 14.565,13.014 14.565,13.014 C14.754,12.831 15.057,12.827 15.241,13.004 C15.241,13.004 21.812,19.575 21.812,19.575 C21.899,19.595 21.989,19.610 22.057,19.675 C22.057,19.675 22.861,20.429 22.861,20.429 C23.053,20.614 23.057,20.908 22.871,21.087 ZM0.000,-0.000 C0.000,-0.000 9.000,-0.000 9.000,-0.000 C9.000,-0.000 9.000,41.000 9.000,41.000 C9.000,41.000 0.000,41.000 0.000,41.000 C0.000,41.000 0.000,-0.000 0.000,-0.000 Z" id="path-1" class="cls-2" fill-rule="evenodd"/>
</svg>
