<svg xmlns="http://www.w3.org/2000/svg" xmlns:xlink="http://www.w3.org/1999/xlink" preserveAspectRatio="xMidYMid" width="25" height="26" viewBox="0 0 25 26">
  <defs>
    <style>

      .cls-2 {
        fill: #233243;
      }
    </style>
  </defs>
  <path d="M25.007,24.339 C25.007,24.339 17.418,16.622 17.418,16.622 C18.908,14.859 19.815,12.574 19.815,10.072 C19.815,4.519 15.373,0.001 9.912,0.001 C4.452,0.001 0.010,4.519 0.010,10.072 C0.010,15.625 4.452,20.143 9.912,20.143 C12.074,20.143 14.070,19.425 15.700,18.225 C15.700,18.225 23.360,26.012 23.360,26.012 C23.360,26.012 25.007,24.339 25.007,24.339 ZM1.174,10.072 C1.174,5.172 5.094,1.186 9.912,1.186 C14.730,1.186 18.650,5.172 18.650,10.072 C18.650,14.971 14.730,18.958 9.912,18.958 C5.094,18.958 1.174,14.971 1.174,10.072 Z" id="path-1" class="cls-2" fill-rule="evenodd"/>
</svg>