<?xml version="1.0" encoding="utf-8"?>
<!-- Generator: Adobe Illustrator 18.1.1, SVG Export Plug-In . SVG Version: 6.00 Build 0)  -->
<svg version="1.1" id="Layer_1" xmlns="http://www.w3.org/2000/svg" xmlns:xlink="http://www.w3.org/1999/xlink" x="0px" y="0px"
	 viewBox="-219 377 38.1 40" enable-background="new -219 377 38.1 40" xml:space="preserve">
<g>
	<path fill="#FFFFFF" d="M-181.3,382.8l-9.7-5.6c-0.4-0.2-0.8-0.1-1,0.3c-0.2,0.4-0.1,0.8,0.3,1l9.4,5.4l0,26.1l-9.4,5.4
		c-0.4,0.2-0.5,0.7-0.3,1c0.1,0.2,0.4,0.4,0.6,0.4c0.1,0,0.3,0,0.4-0.1l9.7-5.6c0.2-0.1,0.4-0.4,0.4-0.6l0-27
		C-180.9,383.2-181.1,382.9-181.3,382.8z M-207.8,415.4l-9.7-5.4l0-26.1l9.7-5.4c0.4-0.2,0.5-0.6,0.3-1c-0.2-0.4-0.6-0.5-1-0.3
		l-10.1,5.6c-0.2,0.1-0.4,0.4-0.4,0.6l0,27c0,0.3,0.1,0.5,0.4,0.6l10.1,5.6c0.1,0.1,0.2,0.1,0.4,0.1c0.3,0,0.5-0.1,0.6-0.4
		C-207.3,416-207.4,415.6-207.8,415.4z M-188.3,406.2L-188.3,406.2l0.1,0l0,0l0,0l0.1,0l0,0l0,0l0,0l0,0l0,0l0,0l0,0l0,0l0,0l0,0
		l0,0l0,0l0,0l0,0l0-0.1l0,0l0,0l0,0l0-0.1l0,0v0l0,0l0,0v0l0,0l0-0.1l0,0l0,0l0-0.1l0,0l0,0l-11.8-21.8l0,0l0,0l0,0l0,0l0,0l0,0
		l0,0l0,0l0,0l0,0l0,0l-0.1,0h0l0,0l0,0l-0.1,0l-0.1,0l0,0l0,0l-0.1,0l-0.1,0l-0.1,0l-0.1,0l0,0l0,0l0,0l0,0l0,0l0,0l0,0l0,0l0,0
		l0,0l0,0l-11.8,21.8l0,0l0,0.1l0,0.1l0,0.1l0,0.1l0,0l0,0l0,0.1l0,0.1l0,0.1l0,0.1l0,0l0,0l0,0l0,0l0,0l0.1,0l0,0l0,0l0.1,0l0,0
		l0.1,0l0,0L-188.3,406.2C-188.3,406.2-188.3,406.2-188.3,406.2z M-199.5,398.9v-12.7l9.7,17.9
		C-189.8,404.1-199.5,398.9-199.5,398.9z M-200.7,398.9l-9.7,5.2l9.7-17.9V398.9z M-200.7,400.3v4.7h-8.8L-200.7,400.3z
		 M-199.5,400.2l8.8,4.7h-8.8V400.2z"/>
</g>
</svg>
