<svg xmlns="http://www.w3.org/2000/svg" xmlns:xlink="http://www.w3.org/1999/xlink" preserveAspectRatio="xMidYMid" width="98" height="102" viewBox="0 0 98 102">
  <defs>
    <style>

      .cls-2 {
        fill: #ffffff;
      }
    </style>
  </defs>
  <path d="M97.052,87.349 C97.052,87.349 72.021,101.784 72.021,101.784 C71.723,101.957 71.396,102.041 71.071,102.041 C70.413,102.041 69.775,101.700 69.421,101.089 C68.894,100.180 69.203,99.016 70.118,98.490 C70.118,98.490 94.196,84.602 94.196,84.602 C94.196,84.602 94.189,17.468 94.189,17.468 C94.189,17.468 70.118,3.581 70.118,3.581 C69.203,3.055 68.894,1.894 69.421,0.985 C69.947,0.075 71.111,-0.237 72.021,0.289 C72.021,0.289 97.045,14.721 97.045,14.721 C97.634,15.062 98.000,15.689 98.000,16.369 C98.000,16.369 98.005,85.700 98.005,85.700 C98.005,86.380 97.641,87.008 97.052,87.349 ZM70.134,29.181 C70.134,29.181 70.149,46.341 70.149,46.341 C70.149,46.341 77.483,50.423 77.483,50.423 C77.529,50.448 77.556,50.492 77.598,50.521 C77.694,50.584 77.774,50.660 77.857,50.742 C77.933,50.820 78.006,50.894 78.065,50.983 C78.096,51.028 78.142,51.056 78.169,51.104 C78.211,51.177 78.214,51.259 78.244,51.335 C78.273,51.413 78.301,51.487 78.319,51.568 C78.356,51.726 78.367,51.879 78.359,52.037 C78.356,52.091 78.354,52.142 78.346,52.197 C78.319,52.383 78.262,52.555 78.178,52.723 C78.167,52.744 78.169,52.768 78.157,52.789 C78.147,52.807 78.131,52.820 78.120,52.838 C78.056,52.945 77.985,53.042 77.897,53.135 C77.848,53.186 77.792,53.226 77.739,53.271 C77.658,53.337 77.598,53.420 77.504,53.473 C77.504,53.473 70.157,57.595 70.157,57.595 C70.157,57.595 70.171,74.242 70.171,74.242 C70.171,74.875 69.826,75.460 69.271,75.765 C69.271,75.765 58.009,81.983 58.009,81.983 C57.742,82.131 57.454,82.200 57.168,82.200 C56.555,82.200 55.960,81.877 55.643,81.302 C55.178,80.460 55.483,79.403 56.325,78.938 C56.325,78.938 66.686,73.217 66.686,73.217 C66.686,73.217 66.673,56.551 66.673,56.551 C66.672,55.816 67.131,55.194 67.777,54.939 C67.777,54.939 73.088,51.959 73.088,51.959 C73.088,51.959 68.054,49.158 68.054,49.158 C67.394,49.016 66.892,48.521 66.743,47.863 C66.734,47.833 66.732,47.802 66.724,47.772 C66.708,47.677 66.667,47.590 66.667,47.491 C66.667,47.491 66.652,30.211 66.652,30.211 C66.652,30.211 56.326,24.527 56.326,24.527 C55.484,24.063 55.178,23.004 55.642,22.163 C56.106,21.322 57.164,21.016 58.008,21.479 C58.008,21.479 69.233,27.658 69.233,27.658 C69.788,27.964 70.134,28.547 70.134,29.181 ZM41.782,24.525 C41.782,24.525 31.456,30.210 31.456,30.210 C31.456,30.210 31.441,47.489 31.441,47.489 C31.441,47.589 31.400,47.675 31.384,47.770 C31.376,47.801 31.374,47.832 31.365,47.862 C31.216,48.520 30.715,49.015 30.055,49.156 C30.055,49.156 25.021,51.958 25.021,51.958 C25.021,51.958 30.327,54.936 30.327,54.936 C30.975,55.190 31.437,55.812 31.436,56.549 C31.436,56.549 31.422,73.215 31.422,73.215 C31.422,73.215 41.784,78.937 41.784,78.937 C42.626,79.401 42.930,80.459 42.465,81.300 C42.148,81.875 41.554,82.199 40.940,82.199 C40.654,82.199 40.366,82.129 40.099,81.981 C40.099,81.981 28.837,75.764 28.837,75.764 C28.282,75.458 27.938,74.874 27.938,74.240 C27.938,74.240 27.952,57.594 27.952,57.594 C27.952,57.594 20.605,53.470 20.605,53.470 C20.517,53.421 20.460,53.342 20.385,53.281 C20.324,53.232 20.263,53.186 20.208,53.129 C20.123,53.038 20.054,52.944 19.991,52.839 C19.979,52.821 19.962,52.807 19.952,52.788 C19.939,52.765 19.940,52.740 19.929,52.717 C19.846,52.550 19.789,52.380 19.763,52.196 C19.754,52.141 19.752,52.089 19.749,52.034 C19.741,51.876 19.753,51.723 19.789,51.564 C19.807,51.485 19.835,51.413 19.863,51.336 C19.893,51.258 19.897,51.176 19.939,51.101 C19.967,51.052 20.013,51.024 20.045,50.979 C20.103,50.893 20.173,50.820 20.246,50.745 C20.332,50.659 20.416,50.580 20.515,50.515 C20.556,50.488 20.581,50.446 20.625,50.421 C20.625,50.421 27.959,46.340 27.959,46.340 C27.959,46.340 27.975,29.179 27.975,29.179 C27.975,28.546 28.320,27.963 28.875,27.657 C28.875,27.657 40.101,21.478 40.101,21.478 C40.944,21.014 42.003,21.320 42.467,22.162 C42.930,23.003 42.624,24.062 41.782,24.525 ZM28.832,3.596 C28.832,3.596 3.804,17.489 3.804,17.489 C3.804,17.489 3.798,84.581 3.798,84.581 C3.798,84.581 28.832,98.475 28.832,98.475 C29.751,98.985 30.083,100.143 29.572,101.065 C29.226,101.687 28.576,102.041 27.906,102.041 C27.591,102.041 27.275,101.963 26.984,101.799 C26.984,101.799 0.970,87.364 0.970,87.364 C0.367,87.025 -0.009,86.389 -0.009,85.700 C-0.009,85.700 -0.003,16.369 -0.003,16.369 C-0.003,15.679 0.373,15.042 0.977,14.706 C0.977,14.706 26.984,0.268 26.984,0.268 C27.904,-0.240 29.060,0.090 29.572,1.012 C30.083,1.927 29.751,3.088 28.832,3.596 Z" id="path-1" class="cls-2" fill-rule="evenodd"/>
</svg>
