<?xml version="1.0" encoding="utf-8"?>
<!-- Generator: Adobe Illustrator 18.1.0, SVG Export Plug-In . SVG Version: 6.00 Build 0)  -->
<svg version="1.1" id="Layer_1" xmlns="http://www.w3.org/2000/svg" xmlns:xlink="http://www.w3.org/1999/xlink" x="0px" y="0px"
	 viewBox="-230.3 715 617.3 115" enable-background="new -230.3 715 617.3 115" xml:space="preserve">
<g>
	<path fill="#FFFFFF" d="M-156.9,825.3c-0.8,0-1.3-0.3-1.6-1.1c-0.5-1.1-0.3-2.1,0.8-2.6l24.7-14.2v-69.1l-24.7-14.2
		c-1.1-0.5-1.3-1.8-0.8-2.6c0.5-1.1,1.8-1.3,2.6-0.8l25.8,14.7c0.5,0.3,1.1,1.1,1.1,1.6v71.2c0,0.8-0.3,1.3-1.1,1.6l-25.8,14.7
		C-156.4,825.3-156.7,825.3-156.9,825.3z M-201.3,825.3c-0.3,0-0.5,0-1.1-0.3l-26.8-14.7c-0.5-0.3-1.1-1.1-1.1-1.8v-71.2
		c0-0.8,0.3-1.3,1.1-1.8l26.8-14.7c1.1-0.5,2.1-0.3,2.6,0.8c0.5,1.1,0.3,2.1-0.8,2.6l-25.8,14.2v69.1l25.8,14.2
		c1.1,0.5,1.3,1.6,0.8,2.6C-200,825.1-200.6,825.3-201.3,825.3z M-89.1,755.6h-10.5c-1.1,0-1.8,0.8-1.8,1.8v31.8
		c0,1.1,0.8,1.8,1.8,1.8h10.5c3.2,0,6-1.1,8.1-3.4c2.4-2.1,3.4-5,3.4-8.1v-12.4c0-3.2-1.1-5.8-3.4-8.1
		C-83.3,756.7-85.9,755.6-89.1,755.6z M-89.1,787.2h-8.7v-27.9h8.7c2.1,0,3.9,0.8,5.5,2.4c1.6,1.6,2.4,3.4,2.4,5.5v12.4
		c0,2.1-0.8,3.9-2.4,5.5C-85.1,786.7-87,787.2-89.1,787.2z M-50.2,759.6c1.1,0,1.8-0.8,1.8-1.8c0-1.3-0.8-1.8-1.8-1.8h-18.9
		c-1.1,0-1.8,0.8-1.8,1.8v31.8c0,1.1,0.8,1.8,1.8,1.8h18.9c1.1,0,1.8-0.8,1.8-1.8c0-1.3-0.8-1.8-1.8-1.8h-17.1v-12.1h13.4
		c1.1,0,1.8-0.8,1.8-1.8c0-1.3-0.8-1.8-1.8-1.8h-13.4v-11.8L-50.2,759.6L-50.2,759.6z M-22.6,755.6c-0.8,0-1.6,0.5-1.8,1.3l-8.4,26
		l-8.7-26c-0.3-0.8-1.1-1.3-1.8-1.3c-1.1,0-1.8,0.8-1.8,1.8v0.5l10.5,31.8c0.3,0.8,1.1,1.3,1.8,1.3c0.5,0,1.3-0.3,1.8-1.3l10.3-31.8
		v-0.5C-20.5,756.4-21.3,755.6-22.6,755.6z M10.5,755.6H0.3c-1.1,0-1.8,0.8-1.8,1.8v31.8c0,1.1,0.8,1.8,1.8,1.8s1.8-0.8,1.8-1.8
		v-12.6h8.1c2.9,0,5.5-1.1,7.6-2.9c2.1-1.8,3.2-4.2,3.2-7.1v-1.1c0-2.9-1.1-5.3-3.2-7.1C16.1,756.7,13.4,755.6,10.5,755.6z
		 M10.5,773H2.4v-13.4h8.1c1.8,0,3.7,0.5,5,1.8c1.3,1.1,1.8,2.6,1.8,4.5v1.1c0,1.8-0.5,3.2-1.8,4.5C14.2,772.2,12.4,773,10.5,773z
		 M38.4,755.4h-1.3c-3.2,0-6,1.1-8.4,3.4s-3.4,5-3.4,8.1v12.6c0,3.2,1.1,6,3.4,8.4c2.4,2.4,5,3.4,8.4,3.4h1.3c3.2,0,6-1.1,8.1-3.4
		c2.4-2.4,3.4-5,3.4-8.4V767c0-3.2-1.1-6-3.4-8.1C44.5,756.7,41.8,755.4,38.4,755.4z M38.4,787.5h-1.3c-2.1,0-3.9-0.8-5.5-2.4
		s-2.4-3.4-2.4-5.5V767c0-2.1,0.8-3.9,2.4-5.5c1.6-1.6,3.4-2.4,5.5-2.4h1.3c2.1,0,3.9,0.8,5.5,2.4s2.4,3.4,2.4,5.5v12.6
		c0,2.1-0.8,3.9-2.4,5.5C42.6,786.7,40.8,787.5,38.4,787.5z M73.6,775.6c3.4-1.6,5.5-4.7,5.5-8.9v-1.1c0-2.9-1.1-5.3-2.9-7.1
		c-1.8-1.8-4.5-2.9-7.6-2.9H58.1c-1.3,0-1.8,0.8-1.8,1.8V789c0,1.3,0.8,1.8,1.8,1.8c1.1,0,1.8-0.8,1.8-1.8v-12.6h8.4h1.1l6.3,13.4
		c0.3,0.8,1.1,1.1,1.8,1.1c0.8,0,1.3-0.3,1.6-0.8c0.3-0.5,0.5-1.3,0.3-1.8C79.7,788.5,73.6,775.6,73.6,775.6z M75.5,765.6v1.1
		c0,1.8-0.5,3.2-1.8,4.2c-1.1,1.1-2.6,1.6-4.7,1.6h-8.4v-13.1h8.4C72.8,759.6,75.5,762,75.5,765.6z M109.9,757.5
		c0-1.1-0.8-1.8-1.8-1.8H85.5c-1.1,0-1.8,0.8-1.8,1.8c0,1.3,0.8,1.8,1.8,1.8h9.5V789c0,1.1,0.8,1.8,1.8,1.8c1.1,0,1.8-0.8,1.8-1.8
		v-29.7h9.2C109.1,759.6,109.9,758.8,109.9,757.5L109.9,757.5z M123.3,757c-0.3-0.8-1.1-1.3-1.8-1.3c-0.8,0-1.6,0.5-1.8,1.3
		l-11.6,31.8c0,0.3,0,0.3,0,0.8c0,1.1,0.8,1.8,1.8,1.8c0.8,0,1.6-0.5,1.8-1.3l2.9-7.6h14.2l2.9,7.6c0.3,0.8,1.1,1.3,1.8,1.3
		c1.1,0,1.8-0.8,1.8-1.8c0-0.3,0-0.5-0.3-0.8C135.1,788.5,123.3,757,123.3,757z M127.3,778.5H116l5.5-15.2L127.3,778.5z
		 M161.2,787.2h-16.8v-29.7c0-1.1-0.8-1.8-1.8-1.8c-1.1,0-1.8,0.8-1.8,1.8v31.8c0,1.1,0.8,1.8,1.8,1.8h18.9c1.3,0,1.8-0.8,1.8-1.8
		C163.3,788,162.5,787.2,161.2,787.2L161.2,787.2z M-202.9,763c-0.3,0-0.5,0-0.8-0.3l-4.5-2.6c-0.5-0.3-0.8-0.8-0.8-1.3v-5
		c0-0.5,0.3-1.1,0.8-1.3l4.5-2.6c0.5-0.3,1.1-0.3,1.6,0l4.5,2.6c0.5,0.3,0.8,0.8,0.8,1.3v5c0,0.5-0.3,1.1-0.8,1.3l-4.5,2.6
		C-202.4,762.7-202.7,763-202.9,763z M-205.8,758l2.9,1.8l2.9-1.8v-3.4l-2.9-1.8l-2.9,1.8V758z M-155.3,763c-0.3,0-0.5,0-0.8-0.3
		l-4.5-2.6c-0.5-0.3-0.8-0.8-0.8-1.3v-5c0-0.5,0.3-1.1,0.8-1.3l4.5-2.6c0.5-0.3,1.1-0.3,1.6,0l4.5,2.6c0.5,0.3,0.8,0.8,0.8,1.3v5
		c0,0.5-0.3,1.1-0.8,1.3l-4.5,2.6C-154.8,762.7-155.1,763-155.3,763z M-158.2,758l2.9,1.8l2.9-1.8v-3.4l-2.9-1.8l-2.9,1.8V758z
		 M-179.3,804c-0.3,0-0.5,0-0.8-0.3l-4.5-2.6c-0.5-0.3-0.8-0.8-0.8-1.3v-5c0-0.5,0.3-1.1,0.8-1.3l4.5-2.6c0.5-0.3,1.1-0.3,1.6,0
		l4.5,2.6c0.5,0.3,0.8,0.8,0.8,1.3v5c0,0.5-0.3,1.1-0.8,1.3l-4.5,2.6C-178.7,804-179,804-179.3,804z M-182.2,799l2.9,1.8l2.9-1.8
		v-3.4l-2.9-1.8l-2.9,1.8V799z M-179.3,793.8c-0.8,0-1.6-0.5-1.6-1.6v-22.6c0-0.8,0.5-1.6,1.6-1.6s1.6,0.5,1.6,1.6v22.6
		C-177.7,793.2-178.5,793.8-179.3,793.8z M-179.5,771.7c-0.5,0-1.1-0.3-1.3-0.8c-0.5-0.8-0.3-1.6,0.5-2.1l19.7-11.3
		c0.8-0.5,1.6-0.3,2.1,0.5c0.5,0.8,0.3,1.6-0.5,2.1l-19.7,11.3C-179,771.7-179.3,771.7-179.5,771.7z M-179,771.7
		c-0.3,0-0.5,0-0.8-0.3l-19.5-11.3c-0.8-0.5-1.1-1.3-0.5-2.1c0.5-0.8,1.3-1.1,2.1-0.5l19.5,11.3c0.8,0.5,1.1,1.3,0.5,2.1
		C-177.9,771.4-178.5,771.7-179,771.7z"/>
</g>
<rect x="175.9" y="755.9" fill="none" width="254.5" height="38.1"/>
<g enable-background="new    ">
	<path fill="#F99B06" d="M196.3,756.9c0,0.2,0,0.4-0.2,0.6l-16.7,32.9c-0.2,0.5-0.8,0.7-1.3,0.7c-0.8,0-1.4-0.6-1.4-1.3
		c0-0.2,0-0.4,0.1-0.6l16.8-33.2c0.2-0.4,0.6-0.7,1.1-0.7C195.4,755.5,196.3,756.1,196.3,756.9z"/>
	<path fill="#F99B06" d="M209.2,758.5c0-0.9,0.9-1.3,1.9-1.3s1.9,0.4,1.9,1.3v30c0,0.9-0.9,1.3-1.9,1.3s-1.9-0.4-1.9-1.3V758.5z"/>
	<path fill="#F99B06" d="M234.7,788.2l-11.6-22.5v22.8c0,0.9-0.9,1.3-1.9,1.3s-1.9-0.4-1.9-1.3v-30c0-0.9,0.9-1.3,1.9-1.3
		c1.3,0,2.1,0.8,2.9,2.4l11.1,21.8v-22.8c0-0.9,0.9-1.3,1.9-1.3c0.9,0,1.9,0.4,1.9,1.3v30c0,0.9-0.9,1.3-1.9,1.3
		C236,789.9,235.2,789.2,234.7,788.2z"/>
	<path fill="#F99B06" d="M262.2,757.2c0.9,0,1.3,0.8,1.3,1.7c0,0.9-0.4,1.8-1.3,1.8H255v27.8c0,0.9-0.9,1.3-1.9,1.3
		s-1.9-0.4-1.9-1.3v-27.8H244c-0.8,0-1.3-0.8-1.3-1.8c0-0.8,0.4-1.7,1.3-1.7H262.2z"/>
	<path fill="#F99B06" d="M271.1,772h7c0.8,0,1.3,0.8,1.3,1.6c0,0.7-0.4,1.5-1.3,1.5h-7v11.4H285c0.8,0,1.3,0.8,1.3,1.7
		c0,0.8-0.4,1.7-1.3,1.7h-15.9c-0.8,0-1.7-0.4-1.7-1.3v-30c0-0.9,0.8-1.3,1.7-1.3H285c0.9,0,1.3,0.8,1.3,1.7c0,0.9-0.5,1.7-1.3,1.7
		h-13.9V772z"/>
	<path fill="#F99B06" d="M290.3,758.5c0-0.7,0.5-1.3,1.3-1.3h8.2c5.4,0,9.9,2.1,9.9,8.9c0,5.5-2.9,8-6.7,8.7l6.6,12.6
		c0.1,0.2,0.2,0.4,0.2,0.6c0,1-1.2,1.9-2.2,1.9c-0.8,0-1.3-0.7-1.7-1.5l-6.7-13.1h-5.1v13.1c0,0.9-0.9,1.3-1.9,1.3s-1.9-0.4-1.9-1.3
		V758.5z M294.1,760.6v11.7h5.8c3.7,0,6.2-1.6,6.2-5.9c0-4.2-2.5-5.8-6.2-5.8H294.1z"/>
	<path fill="#F99B06" d="M330,788.2l-11.6-22.5v22.8c0,0.9-0.9,1.3-1.9,1.3c-0.9,0-1.9-0.4-1.9-1.3v-30c0-0.9,0.9-1.3,1.9-1.3
		c1.3,0,2.1,0.8,2.9,2.4l11.1,21.8v-22.8c0-0.9,0.9-1.3,1.9-1.3s1.9,0.4,1.9,1.3v30c0,0.9-0.9,1.3-1.9,1.3
		C331.3,789.9,330.5,789.2,330,788.2z"/>
	<path fill="#F99B06" d="M338.2,788.3c0-0.1,0-0.2,0.1-0.4l9.1-29.7c0.3-0.9,1.3-1.3,2.3-1.3c1,0,2.1,0.4,2.3,1.3l9.1,29.7
		c0,0.1,0,0.2,0,0.3c0,0.9-1.3,1.6-2.3,1.6c-0.6,0-1.2-0.3-1.3-0.8l-2-6.7h-11.8l-2,6.7c-0.2,0.6-0.7,0.8-1.4,0.8
		C339.5,789.9,338.2,789.3,338.2,788.3z M354.6,779.3l-5-16.8l-5.1,16.8H354.6z"/>
	<path fill="#F99B06" d="M366.8,789.9c-0.8,0-1.7-0.4-1.7-1.3v-30c0-0.9,0.9-1.3,1.9-1.3c0.9,0,1.9,0.4,1.9,1.3v28h12.2
		c0.8,0,1.2,0.8,1.2,1.7c0,0.8-0.4,1.7-1.2,1.7H366.8z"/>
</g>
</svg>
