<svg xmlns="http://www.w3.org/2000/svg" xmlns:xlink="http://www.w3.org/1999/xlink" preserveAspectRatio="xMidYMid" width="46" height="78" viewBox="0 0 46 78">
  <defs>
    <style>

      .cls-2 {
        fill: #000000;
      }
    </style>
  </defs>
  <path d="M41.778,40.754 C39.524,46.316 26.843,77.186 26.843,77.186 C26.669,77.607 26.288,77.902 25.841,77.960 C25.788,77.966 25.734,77.970 25.682,77.970 C25.291,77.970 24.919,77.785 24.680,77.465 C24.636,77.406 23.095,75.343 20.988,72.514 C20.906,72.543 20.824,72.571 20.736,72.582 C20.683,72.589 20.629,72.592 20.577,72.592 C20.185,72.592 19.814,72.407 19.573,72.087 C19.447,71.916 6.838,55.034 4.136,51.207 C1.131,46.954 0.013,43.232 0.013,37.477 C0.013,23.515 8.726,8.015 19.850,2.191 C22.642,0.729 25.355,-0.012 27.918,-0.012 C32.659,-0.012 36.380,2.468 38.604,6.729 C43.228,9.213 46.010,14.964 46.010,22.762 C46.010,27.912 44.665,33.629 41.778,40.754 ZM27.918,2.535 C25.761,2.535 23.436,3.181 21.006,4.452 C10.817,9.788 2.528,24.603 2.528,37.477 C2.528,42.396 3.396,45.529 5.746,49.065 C5.319,47.215 5.118,45.210 5.118,42.856 C5.118,28.893 13.833,13.393 24.957,7.569 C27.748,6.107 30.463,5.366 33.024,5.366 C33.576,5.366 34.111,5.407 34.634,5.473 C32.890,3.588 30.608,2.535 27.918,2.535 ZM33.024,7.913 C30.868,7.913 28.543,8.559 26.113,9.831 C15.923,15.166 7.633,29.981 7.633,42.856 C7.633,48.080 8.590,51.286 11.290,55.105 C13.450,58.165 22.040,69.700 25.363,74.156 C28.232,67.172 37.550,44.478 39.450,39.787 C42.171,33.072 43.495,27.503 43.495,22.762 C43.495,13.742 39.385,7.913 33.024,7.913 ZM27.378,39.383 C25.513,40.704 23.588,41.403 21.811,41.403 C18.585,41.403 16.243,39.149 15.698,35.522 C14.879,30.075 18.197,23.001 23.250,19.418 C25.115,18.096 27.041,17.399 28.816,17.399 C32.042,17.399 34.385,19.651 34.929,23.277 C35.751,28.728 32.433,35.802 27.378,39.383 ZM32.443,23.661 C32.083,21.265 30.796,19.946 28.816,19.946 C27.558,19.946 26.132,20.485 24.691,21.505 C20.501,24.476 17.521,30.720 18.184,35.140 C18.544,37.536 19.833,38.856 21.811,38.856 C23.070,38.856 24.496,38.316 25.937,37.295 C30.129,34.325 33.108,28.082 32.443,23.661 Z" id="path-1" class="cls-2" fill-rule="evenodd"/>
</svg>
