<svg xmlns="http://www.w3.org/2000/svg" xmlns:xlink="http://www.w3.org/1999/xlink" preserveAspectRatio="xMidYMid" width="103" height="66" viewBox="0 0 103 66">
  <defs>
    <style>

      .cls-2 {
        fill: #e0e9f0;
      }
    </style>
  </defs>
  <path d="M102.507,42.315 C102.507,42.315 61.919,65.948 61.919,65.948 C61.861,65.982 61.796,66.000 61.731,66.000 C61.666,66.000 61.603,65.983 61.545,65.950 C61.428,65.883 61.356,65.760 61.356,65.626 C61.356,65.626 61.293,23.990 61.293,23.990 C61.292,23.857 61.363,23.734 61.479,23.667 C61.479,23.667 102.067,0.033 102.067,0.033 C102.182,-0.034 102.324,-0.035 102.441,0.032 C102.558,0.098 102.630,0.222 102.630,0.356 C102.630,0.356 102.693,41.991 102.693,41.991 C102.694,42.124 102.623,42.247 102.507,42.315 ZM101.882,1.007 C101.882,1.007 62.042,24.204 62.042,24.204 C62.042,24.204 62.104,64.975 62.104,64.975 C62.104,64.975 101.943,41.777 101.943,41.777 C101.943,41.777 101.882,1.007 101.882,1.007 ZM100.705,10.916 C100.821,10.848 100.965,10.848 101.079,10.915 C101.196,10.981 101.267,11.104 101.267,11.238 C101.267,11.238 101.331,41.199 101.331,41.199 C101.332,41.333 101.261,41.456 101.145,41.523 C101.145,41.523 63.345,63.481 63.345,63.481 C63.287,63.515 63.221,63.532 63.156,63.532 C63.092,63.532 63.027,63.515 62.970,63.482 C62.853,63.416 62.782,63.292 62.782,63.158 C62.782,63.158 62.719,33.197 62.719,33.197 C62.717,33.063 62.789,32.940 62.905,32.873 C62.905,32.873 100.705,10.916 100.705,10.916 ZM63.530,62.508 C63.530,62.508 100.581,40.985 100.581,40.985 C100.581,40.985 100.520,11.889 100.520,11.889 C100.520,11.889 63.468,33.411 63.468,33.411 C63.468,33.411 63.530,62.508 63.530,62.508 ZM95.759,13.043 C95.701,13.075 95.638,13.092 95.574,13.092 C95.510,13.092 95.444,13.075 95.386,13.041 C95.270,12.974 95.200,12.851 95.200,12.718 C95.200,12.718 95.196,5.924 95.196,5.924 C95.196,5.789 95.268,5.665 95.385,5.599 C95.385,5.599 100.634,2.624 100.634,2.624 C100.748,2.560 100.892,2.560 101.007,2.627 C101.123,2.693 101.193,2.816 101.193,2.949 C101.193,2.949 101.198,9.744 101.198,9.744 C101.198,9.879 101.126,10.003 101.009,10.069 C101.009,10.069 95.759,13.043 95.759,13.043 ZM100.444,3.592 C100.444,3.592 95.944,6.142 95.944,6.142 C95.944,6.142 95.948,12.076 95.948,12.076 C95.948,12.076 100.450,9.526 100.450,9.526 C100.450,9.526 100.444,3.592 100.444,3.592 ZM97.718,7.864 C97.718,7.864 96.478,6.881 96.478,6.881 C96.315,6.753 96.288,6.517 96.417,6.355 C96.546,6.194 96.781,6.167 96.943,6.295 C96.943,6.295 98.089,7.203 98.089,7.203 C98.089,7.203 99.521,4.649 99.521,4.649 C99.621,4.468 99.850,4.406 100.030,4.506 C100.210,4.607 100.275,4.835 100.173,5.015 C100.173,5.015 98.683,7.674 98.683,7.674 C98.683,7.674 99.937,8.668 99.937,8.668 C100.100,8.796 100.127,9.032 99.997,9.193 C99.924,9.286 99.815,9.335 99.704,9.335 C99.623,9.335 99.541,9.309 99.472,9.254 C99.472,9.254 98.312,8.335 98.312,8.335 C98.312,8.335 96.846,10.948 96.846,10.948 C96.778,11.070 96.650,11.139 96.520,11.139 C96.457,11.139 96.395,11.123 96.337,11.091 C96.157,10.990 96.092,10.762 96.193,10.582 C96.193,10.582 97.718,7.864 97.718,7.864 ZM89.319,16.769 C89.261,16.801 89.197,16.818 89.134,16.818 C89.069,16.818 89.003,16.800 88.945,16.766 C88.829,16.700 88.759,16.577 88.759,16.443 C88.759,16.443 88.756,9.649 88.756,9.649 C88.756,9.514 88.828,9.390 88.945,9.324 C88.945,9.324 94.194,6.350 94.194,6.350 C94.311,6.286 94.452,6.286 94.567,6.352 C94.683,6.419 94.753,6.542 94.753,6.675 C94.753,6.675 94.759,13.469 94.759,13.469 C94.759,13.604 94.686,13.728 94.569,13.795 C94.569,13.795 89.319,16.769 89.319,16.769 ZM94.005,7.317 C94.005,7.317 89.504,9.867 89.504,9.867 C89.504,9.867 89.508,15.801 89.508,15.801 C89.508,15.801 94.010,13.251 94.010,13.251 C94.010,13.251 94.005,7.317 94.005,7.317 ZM93.246,8.018 C93.362,7.954 93.506,7.954 93.619,8.021 C93.735,8.087 93.805,8.210 93.805,8.344 C93.805,8.344 93.809,12.900 93.809,12.900 C93.809,13.035 93.736,13.159 93.619,13.225 C93.619,13.225 90.268,15.124 90.268,15.124 C90.210,15.156 90.146,15.173 90.083,15.173 C90.018,15.173 89.952,15.155 89.894,15.121 C89.779,15.055 89.708,14.932 89.708,14.798 C89.708,14.798 89.706,10.242 89.706,10.242 C89.706,10.108 89.779,9.984 89.896,9.917 C89.896,9.917 93.246,8.018 93.246,8.018 ZM90.457,14.157 C90.457,14.157 93.060,12.682 93.060,12.682 C93.060,12.682 93.057,8.986 93.057,8.986 C93.057,8.986 90.455,10.460 90.455,10.460 C90.455,10.460 90.457,14.157 90.457,14.157 ZM82.974,20.399 C82.916,20.431 82.852,20.448 82.789,20.448 C82.724,20.448 82.659,20.431 82.601,20.397 C82.485,20.330 82.415,20.207 82.415,20.074 C82.415,20.074 82.411,13.279 82.411,13.279 C82.411,13.145 82.484,13.020 82.601,12.954 C82.601,12.954 87.849,9.980 87.849,9.980 C87.966,9.916 88.108,9.916 88.222,9.983 C88.338,10.050 88.409,10.172 88.409,10.305 C88.409,10.305 88.414,17.099 88.414,17.099 C88.414,17.234 88.342,17.359 88.225,17.425 C88.225,17.425 82.974,20.399 82.974,20.399 ZM87.660,10.948 C87.660,10.948 83.160,13.498 83.160,13.498 C83.160,13.498 83.163,19.432 83.163,19.432 C83.163,19.432 87.665,16.882 87.665,16.882 C87.665,16.882 87.660,10.948 87.660,10.948 ZM86.638,16.324 C86.817,16.223 87.046,16.283 87.150,16.463 C87.252,16.643 87.190,16.872 87.010,16.974 C87.010,16.974 84.016,18.682 84.016,18.682 C83.957,18.716 83.894,18.732 83.830,18.732 C83.701,18.732 83.574,18.664 83.505,18.543 C83.403,18.364 83.465,18.135 83.644,18.033 C83.644,18.033 86.638,16.324 86.638,16.324 ZM0.638,65.948 C0.580,65.982 0.515,66.000 0.450,66.000 C0.385,66.000 0.321,65.983 0.264,65.950 C0.147,65.883 0.075,65.760 0.075,65.626 C0.075,65.626 0.012,23.990 0.012,23.990 C0.011,23.857 0.082,23.734 0.198,23.667 C0.198,23.667 40.786,0.033 40.786,0.033 C40.901,-0.034 41.043,-0.035 41.160,0.032 C41.277,0.098 41.349,0.222 41.349,0.356 C41.349,0.356 41.412,41.991 41.412,41.991 C41.413,42.124 41.342,42.247 41.226,42.315 C41.226,42.315 0.638,65.948 0.638,65.948 ZM40.601,1.007 C40.601,1.007 0.761,24.204 0.761,24.204 C0.761,24.204 0.823,64.975 0.823,64.975 C0.823,64.975 40.662,41.777 40.662,41.777 C40.662,41.777 40.601,1.007 40.601,1.007 ZM39.424,10.916 C39.539,10.848 39.684,10.848 39.798,10.915 C39.915,10.981 39.986,11.104 39.986,11.238 C39.986,11.238 40.050,41.199 40.050,41.199 C40.051,41.333 39.980,41.456 39.864,41.523 C39.864,41.523 2.064,63.481 2.064,63.481 C2.006,63.515 1.940,63.532 1.875,63.532 C1.811,63.532 1.746,63.515 1.689,63.482 C1.572,63.416 1.501,63.292 1.501,63.158 C1.501,63.158 1.438,33.197 1.438,33.197 C1.436,33.063 1.508,32.940 1.624,32.873 C1.624,32.873 39.424,10.916 39.424,10.916 ZM2.249,62.508 C2.249,62.508 39.300,40.985 39.300,40.985 C39.300,40.985 39.239,11.889 39.239,11.889 C39.239,11.889 2.187,33.411 2.187,33.411 C2.187,33.411 2.249,62.508 2.249,62.508 ZM34.478,13.043 C34.420,13.075 34.357,13.092 34.293,13.092 C34.229,13.092 34.163,13.075 34.105,13.041 C33.989,12.974 33.919,12.851 33.919,12.718 C33.919,12.718 33.914,5.924 33.914,5.924 C33.914,5.789 33.987,5.665 34.104,5.599 C34.104,5.599 39.353,2.624 39.353,2.624 C39.467,2.560 39.611,2.560 39.726,2.627 C39.841,2.693 39.912,2.816 39.912,2.949 C39.912,2.949 39.917,9.744 39.917,9.744 C39.917,9.879 39.845,10.003 39.728,10.069 C39.728,10.069 34.478,13.043 34.478,13.043 ZM39.163,3.592 C39.163,3.592 34.663,6.142 34.663,6.142 C34.663,6.142 34.667,12.076 34.667,12.076 C34.667,12.076 39.169,9.526 39.169,9.526 C39.169,9.526 39.163,3.592 39.163,3.592 ZM36.437,7.864 C36.437,7.864 35.197,6.881 35.197,6.881 C35.034,6.753 35.007,6.517 35.136,6.355 C35.264,6.194 35.499,6.167 35.662,6.295 C35.662,6.295 36.808,7.203 36.808,7.203 C36.808,7.203 38.240,4.649 38.240,4.649 C38.340,4.468 38.569,4.406 38.749,4.506 C38.929,4.607 38.994,4.835 38.892,5.015 C38.892,5.015 37.402,7.674 37.402,7.674 C37.402,7.674 38.656,8.668 38.656,8.668 C38.819,8.796 38.846,9.032 38.716,9.193 C38.643,9.286 38.534,9.335 38.423,9.335 C38.342,9.335 38.260,9.309 38.191,9.254 C38.191,9.254 37.031,8.335 37.031,8.335 C37.031,8.335 35.565,10.948 35.565,10.948 C35.497,11.070 35.369,11.139 35.239,11.139 C35.176,11.139 35.114,11.123 35.056,11.091 C34.876,10.990 34.811,10.762 34.912,10.582 C34.912,10.582 36.437,7.864 36.437,7.864 ZM28.037,16.769 C27.980,16.801 27.916,16.818 27.853,16.818 C27.788,16.818 27.722,16.800 27.664,16.766 C27.548,16.700 27.478,16.577 27.478,16.443 C27.478,16.443 27.475,9.649 27.475,9.649 C27.475,9.514 27.547,9.390 27.664,9.324 C27.664,9.324 32.913,6.350 32.913,6.350 C33.030,6.286 33.171,6.286 33.286,6.352 C33.402,6.419 33.472,6.542 33.472,6.675 C33.472,6.675 33.478,13.469 33.478,13.469 C33.478,13.604 33.405,13.728 33.288,13.795 C33.288,13.795 28.037,16.769 28.037,16.769 ZM32.724,7.317 C32.724,7.317 28.224,9.867 28.224,9.867 C28.224,9.867 28.227,15.801 28.227,15.801 C28.227,15.801 32.729,13.251 32.729,13.251 C32.729,13.251 32.724,7.317 32.724,7.317 ZM31.965,8.018 C32.081,7.954 32.225,7.954 32.338,8.021 C32.454,8.087 32.524,8.210 32.524,8.344 C32.524,8.344 32.528,12.900 32.528,12.900 C32.528,13.035 32.455,13.159 32.338,13.225 C32.338,13.225 28.986,15.124 28.986,15.124 C28.929,15.156 28.865,15.173 28.802,15.173 C28.737,15.173 28.671,15.155 28.613,15.121 C28.498,15.055 28.427,14.932 28.427,14.798 C28.427,14.798 28.425,10.242 28.425,10.242 C28.425,10.108 28.498,9.984 28.614,9.917 C28.614,9.917 31.965,8.018 31.965,8.018 ZM29.176,14.157 C29.176,14.157 31.779,12.682 31.779,12.682 C31.779,12.682 31.776,8.986 31.776,8.986 C31.776,8.986 29.174,10.460 29.174,10.460 C29.174,10.460 29.176,14.157 29.176,14.157 ZM21.693,20.399 C21.635,20.431 21.571,20.448 21.508,20.448 C21.443,20.448 21.378,20.431 21.319,20.397 C21.204,20.330 21.134,20.207 21.134,20.074 C21.134,20.074 21.130,13.279 21.130,13.279 C21.130,13.145 21.202,13.020 21.319,12.954 C21.319,12.954 26.568,9.980 26.568,9.980 C26.685,9.916 26.827,9.916 26.941,9.983 C27.057,10.050 27.127,10.172 27.127,10.305 C27.127,10.305 27.133,17.099 27.133,17.099 C27.133,17.234 27.061,17.359 26.944,17.425 C26.944,17.425 21.693,20.399 21.693,20.399 ZM26.379,10.948 C26.379,10.948 21.879,13.498 21.879,13.498 C21.879,13.498 21.882,19.432 21.882,19.432 C21.882,19.432 26.384,16.882 26.384,16.882 C26.384,16.882 26.379,10.948 26.379,10.948 ZM25.357,16.324 C25.536,16.223 25.765,16.283 25.869,16.463 C25.971,16.643 25.909,16.872 25.729,16.974 C25.729,16.974 22.735,18.682 22.735,18.682 C22.676,18.716 22.613,18.732 22.549,18.732 C22.420,18.732 22.293,18.664 22.224,18.543 C22.122,18.364 22.184,18.135 22.363,18.033 C22.363,18.033 25.357,16.324 25.357,16.324 Z" id="path-1" class="cls-2" fill-rule="evenodd"/>
</svg>
