<svg xmlns="http://www.w3.org/2000/svg" xmlns:xlink="http://www.w3.org/1999/xlink" preserveAspectRatio="xMidYMid" width="128" height="112" viewBox="0 0 128 112">
  <defs>
    <style>

      .cls-2 {
        fill: #ffffff;
      }
    </style>
  </defs>
  <path d="M127.304,75.452 C127.304,75.452 64.749,111.800 64.749,111.800 C64.525,111.930 64.271,111.996 64.021,111.996 C63.768,111.996 63.518,111.930 63.290,111.799 C63.290,111.799 0.741,75.344 0.741,75.344 C0.292,75.081 0.017,74.598 0.017,74.076 C0.017,74.076 0.017,37.819 0.017,37.819 C0.017,37.789 0.026,37.761 0.028,37.730 C0.031,37.690 0.038,37.651 0.044,37.610 C0.067,37.452 0.111,37.301 0.181,37.161 C0.188,37.148 0.186,37.135 0.193,37.122 C0.195,37.118 0.199,37.116 0.201,37.112 C0.283,36.963 0.395,36.834 0.524,36.721 C0.558,36.691 0.592,36.666 0.628,36.640 C0.668,36.611 0.701,36.575 0.744,36.550 C0.744,36.550 63.299,0.201 63.299,0.201 C63.748,-0.060 64.306,-0.060 64.755,0.201 C64.755,0.201 127.304,36.553 127.304,36.553 C127.753,36.815 128.031,37.298 128.031,37.822 C128.031,37.822 128.031,74.183 128.031,74.183 C128.031,74.707 127.753,75.190 127.304,75.452 ZM2.928,73.231 C2.928,73.231 63.455,108.508 63.455,108.508 C63.455,108.508 63.455,73.233 63.455,73.233 C63.455,73.233 2.928,40.279 2.928,40.279 C2.928,40.279 2.928,73.231 2.928,73.231 ZM64.889,70.679 C64.889,70.679 85.523,58.686 85.523,58.686 C85.523,58.686 27.030,24.660 27.030,24.660 C27.030,24.660 4.456,37.777 4.456,37.777 C4.456,37.777 64.889,70.679 64.889,70.679 ZM90.059,70.998 C90.059,70.998 101.846,63.901 101.846,63.901 C101.846,63.901 101.953,52.523 101.953,52.523 C101.953,52.523 90.096,59.413 90.096,59.413 C90.096,59.413 90.059,70.998 90.059,70.998 ZM29.941,22.968 C29.941,22.968 88.435,56.994 88.435,56.994 C88.435,56.994 99.979,50.285 99.979,50.285 C99.979,50.285 41.319,16.357 41.319,16.357 C41.319,16.357 29.941,22.968 29.941,22.968 ZM64.027,3.161 C64.027,3.161 44.234,14.663 44.234,14.663 C44.234,14.663 102.893,48.591 102.893,48.591 C102.893,48.591 122.544,37.171 122.544,37.171 C122.544,37.171 64.027,3.161 64.027,3.161 ZM125.120,39.058 C125.120,39.058 104.881,50.821 104.881,50.821 C104.881,50.821 104.749,64.751 104.749,64.751 C104.743,65.260 104.476,65.733 104.041,65.995 C104.041,65.995 89.342,74.844 89.342,74.844 C89.112,74.983 88.853,75.052 88.594,75.052 C88.347,75.052 88.097,74.987 87.875,74.860 C87.417,74.598 87.136,74.110 87.139,73.582 C87.139,73.582 87.180,61.108 87.180,61.108 C87.180,61.108 66.367,73.205 66.367,73.205 C66.367,73.205 66.367,107.475 66.367,107.475 C66.367,107.475 125.120,73.337 125.120,73.337 C125.120,73.337 125.120,39.058 125.120,39.058 Z" id="path-1" class="cls-2" fill-rule="evenodd"/>
</svg>
