<svg xmlns="http://www.w3.org/2000/svg" xmlns:xlink="http://www.w3.org/1999/xlink" preserveAspectRatio="xMidYMid" width="104" height="53" viewBox="0 0 104 53">
  <defs>
    <style>

      .cls-2 {
        fill: #e0e9f0;
        opacity: 0.9;
      }
    </style>
  </defs>
  <path d="M103.430,38.863 C103.429,39.225 103.237,39.560 102.925,39.742 C102.925,39.742 81.283,52.338 81.283,52.338 C81.127,52.429 80.953,52.474 80.779,52.474 C80.604,52.474 80.430,52.429 80.274,52.338 C80.274,52.338 58.603,39.724 58.603,39.724 C58.290,39.542 58.098,39.206 58.098,38.843 C58.098,38.843 58.098,13.618 58.098,13.618 C58.098,13.254 58.290,12.919 58.603,12.737 C58.603,12.737 80.276,0.123 80.276,0.123 C80.588,-0.058 80.973,-0.058 81.285,0.123 C81.285,0.123 102.956,12.738 102.956,12.738 C103.268,12.920 103.461,13.256 103.460,13.620 C103.460,13.620 103.430,38.863 103.430,38.863 ZM60.116,38.256 C60.116,38.256 80.274,49.990 80.274,49.990 C80.274,49.990 80.276,26.525 80.276,26.525 C80.276,26.525 60.116,14.792 60.116,14.792 C60.116,14.792 60.116,38.256 60.116,38.256 ZM80.780,2.178 C80.780,2.178 60.620,13.911 60.620,13.911 C60.620,13.911 80.780,25.644 80.780,25.644 C80.780,25.644 100.939,13.912 100.939,13.912 C100.939,13.912 80.780,2.178 80.780,2.178 ZM81.285,26.525 C81.285,26.525 81.283,49.989 81.283,49.989 C81.283,49.989 101.413,38.274 101.413,38.274 C101.413,38.274 101.442,14.794 101.442,14.794 C101.442,14.794 81.285,26.525 81.285,26.525 ZM44.828,39.742 C44.828,39.742 23.185,52.338 23.185,52.338 C23.029,52.429 22.855,52.474 22.681,52.474 C22.507,52.474 22.333,52.429 22.177,52.338 C22.177,52.338 0.505,39.724 0.505,39.724 C0.193,39.542 0.001,39.206 0.001,38.843 C0.001,38.843 0.001,13.618 0.001,13.618 C0.001,13.254 0.193,12.919 0.505,12.737 C0.505,12.737 22.179,0.123 22.179,0.123 C22.491,-0.058 22.875,-0.058 23.187,0.123 C23.187,0.123 44.858,12.738 44.858,12.738 C45.171,12.920 45.363,13.256 45.363,13.620 C45.363,13.620 45.332,38.863 45.332,38.863 C45.332,39.225 45.140,39.560 44.828,39.742 ZM2.018,38.256 C2.018,38.256 22.177,49.990 22.177,49.990 C22.177,49.990 22.179,26.525 22.179,26.525 C22.179,26.525 2.018,14.792 2.018,14.792 C2.018,14.792 2.018,38.256 2.018,38.256 ZM22.683,2.178 C22.683,2.178 2.522,13.911 2.522,13.911 C2.522,13.911 22.683,25.644 22.683,25.644 C22.683,25.644 42.841,13.912 42.841,13.912 C42.841,13.912 22.683,2.178 22.683,2.178 ZM23.187,26.525 C23.187,26.525 23.185,49.989 23.185,49.989 C23.185,49.989 43.315,38.274 43.315,38.274 C43.315,38.274 43.344,14.794 43.344,14.794 C43.344,14.794 23.187,26.525 23.187,26.525 Z" id="path-1" class="cls-2" fill-rule="evenodd"/>
</svg>
