<svg xmlns="http://www.w3.org/2000/svg" xmlns:xlink="http://www.w3.org/1999/xlink" preserveAspectRatio="xMidYMid" width="78" height="89" viewBox="0 0 78 89">
  <defs>
    <style>

      .cls-2 {
        fill: #ffffff;
      }
    </style>
  </defs>
  <path d="M77.143,21.611 C77.143,21.611 39.869,0.219 39.869,0.219 C39.333,-0.089 38.669,-0.089 38.134,0.219 C38.134,0.219 0.856,21.611 0.856,21.611 C0.319,21.919 -0.011,22.489 -0.011,23.105 C-0.011,23.105 -0.011,65.832 -0.011,65.832 C-0.011,66.448 0.319,67.016 0.854,67.324 C0.854,67.324 38.128,88.775 38.128,88.775 C38.398,88.930 38.698,89.008 38.998,89.008 C39.298,89.008 39.597,88.931 39.865,88.777 C39.865,88.777 77.143,67.388 77.143,67.388 C77.680,67.080 78.011,66.511 78.011,65.894 C78.011,65.894 78.011,23.105 78.011,23.105 C78.011,22.489 77.680,21.919 77.143,21.611 ZM39.001,3.705 C39.001,3.705 73.673,23.603 73.673,23.603 C73.673,23.603 38.998,43.505 38.998,43.505 C38.998,43.505 4.325,23.603 4.325,23.603 C4.325,23.603 39.001,3.705 39.001,3.705 ZM3.458,64.838 C3.458,64.838 3.458,25.097 3.458,25.097 C3.458,25.097 38.130,44.999 38.130,44.999 C38.130,44.999 38.130,84.791 38.130,84.791 C38.130,84.791 3.458,64.838 3.458,64.838 ZM39.865,84.794 C39.865,84.794 39.865,44.999 39.865,44.999 C39.865,44.999 74.541,25.097 74.541,25.097 C74.541,25.097 74.541,64.898 74.541,64.898 C74.541,64.898 39.865,84.794 39.865,84.794 Z" id="path-1" class="cls-2" fill-rule="evenodd"/>
</svg>
