<svg xmlns="http://www.w3.org/2000/svg" xmlns:xlink="http://www.w3.org/1999/xlink" preserveAspectRatio="xMidYMid" width="56" height="109" viewBox="0 0 56 109">
  <defs>
    <style>

      .cls-2 {
        fill: #ffffff;
      }
    </style>
  </defs>
  <path d="M55.377,67.388 C55.377,67.388 3.725,97.286 3.725,97.286 C3.725,97.286 19.815,106.675 19.815,106.675 C20.409,107.021 20.609,107.785 20.264,108.380 C20.033,108.778 19.616,108.999 19.188,108.999 C18.975,108.999 18.759,108.945 18.562,108.830 C18.562,108.830 0.690,98.401 0.690,98.401 C0.675,98.392 0.667,98.377 0.653,98.367 C0.644,98.363 0.634,98.365 0.625,98.360 C0.240,98.138 0.003,97.726 0.003,97.280 C0.003,97.280 0.003,76.652 0.003,76.652 C0.003,75.963 0.560,75.405 1.247,75.405 C1.934,75.405 2.492,75.963 2.492,76.652 C2.492,76.652 2.492,95.120 2.492,95.120 C2.492,95.120 53.511,65.588 53.511,65.588 C53.511,65.588 53.511,46.779 53.511,46.779 C53.511,46.091 54.068,45.532 54.755,45.532 C55.442,45.532 55.999,46.091 55.999,46.779 C55.999,46.779 55.999,66.308 55.999,66.308 C55.999,66.754 55.762,67.165 55.377,67.388 ZM54.755,33.815 C54.068,33.815 53.511,33.256 53.511,32.568 C53.511,32.568 53.511,14.100 53.511,14.100 C53.511,14.100 2.492,43.632 2.492,43.632 C2.492,43.632 2.492,62.441 2.492,62.441 C2.492,63.129 1.934,63.688 1.247,63.688 C0.560,63.688 0.003,63.129 0.003,62.441 C0.003,62.441 0.003,42.912 0.003,42.912 C0.003,42.466 0.240,42.054 0.625,41.832 C0.625,41.832 52.505,11.802 52.505,11.802 C52.505,11.802 36.257,2.320 36.257,2.320 C35.663,1.974 35.462,1.210 35.808,0.615 C36.153,0.019 36.917,-0.182 37.509,0.165 C37.509,0.165 55.381,10.594 55.381,10.594 C55.830,10.855 56.052,11.355 55.986,11.840 C55.989,11.874 55.999,11.905 55.999,11.940 C55.999,11.940 55.999,32.568 55.999,32.568 C55.999,33.256 55.442,33.815 54.755,33.815 Z" id="path-1" class="cls-2" fill-rule="evenodd"/>
</svg>
