<svg xmlns="http://www.w3.org/2000/svg" xmlns:xlink="http://www.w3.org/1999/xlink" preserveAspectRatio="xMidYMid" width="18" height="17.844" viewBox="0 0 18 17.844">
  <defs>
    <style>
      .cls-1 {
        fill: #0361a0;
        fill-rule: evenodd;
      }
    </style>
  </defs>
  <path d="M17.136,4.929 L13.016,0.839 C14.154,-0.290 15.999,-0.290 17.136,0.839 C18.274,1.969 18.274,3.800 17.136,4.929 ZM7.034,14.956 L-0.002,17.850 L2.913,10.866 L11.888,1.959 L16.009,6.048 L7.034,14.956 ZM6.096,13.144 C5.722,12.771 5.013,12.873 4.856,13.028 C5.012,12.873 5.114,12.169 4.740,11.797 C4.365,11.425 3.617,11.293 3.617,11.293 L1.941,15.305 L2.561,15.921 L6.604,14.258 C6.604,14.258 6.471,13.515 6.096,13.144 Z" class="cls-1"/>
</svg>
