<?xml version="1.0" encoding="utf-8"?>
<!-- Generator: Adobe Illustrator 16.0.4, SVG Export Plug-In . SVG Version: 6.00 Build 0)  -->
<!DOCTYPE svg PUBLIC "-//W3C//DTD SVG 1.1//EN" "http://www.w3.org/Graphics/SVG/1.1/DTD/svg11.dtd">
<svg version="1.1" id="Ebene_1" xmlns="http://www.w3.org/2000/svg" xmlns:xlink="http://www.w3.org/1999/xlink" x="0px" y="0px"
	 width="91.385px" height="39px" viewBox="0 0 91.385 39" enable-background="new 0 0 91.385 39" xml:space="preserve">
<g>
	<path fill="#FFFFFF" d="M36.642,6.002l-9.447-5.456c-0.345-0.199-0.784-0.081-0.982,0.263c-0.199,0.344-0.081,0.783,0.263,0.982
		l9.088,5.248l0.003,25.369l-9.091,5.249c-0.344,0.198-0.462,0.639-0.263,0.981C26.346,38.871,26.587,39,26.836,39
		c0.122,0,0.245-0.031,0.359-0.098l9.45-5.457c0.222-0.127,0.359-0.364,0.359-0.621L37.001,6.625
		C37.001,6.368,36.864,6.131,36.642,6.002z"/>
	<path fill="#FFFFFF" d="M10.889,37.652L1.438,32.4L1.439,7.048l9.449-5.25c0.347-0.192,0.472-0.63,0.279-0.978
		c-0.193-0.348-0.629-0.472-0.978-0.279L0.372,5.997c-0.229,0.126-0.37,0.368-0.37,0.628L0,32.824c0,0.262,0.142,0.502,0.37,0.628
		l9.821,5.457C10.301,38.971,10.421,39,10.54,39c0.252,0,0.498-0.134,0.629-0.37C11.361,38.283,11.236,37.845,10.889,37.652z"/>
	<path fill="#FFFFFF" d="M27.786,26.534c0.239,0,0.473-0.12,0.609-0.337c0.211-0.338,0.11-0.78-0.227-0.991l-8.214-5.157
		l8.309-5.163c0.337-0.209,0.44-0.652,0.231-0.99c-0.209-0.336-0.652-0.44-0.99-0.231L18.6,19.198l-8.809-5.531
		c-0.335-0.211-0.78-0.11-0.991,0.226c-0.211,0.336-0.11,0.78,0.226,0.991l8.214,5.157l-8.309,5.162
		c-0.337,0.209-0.44,0.652-0.231,0.99c0.136,0.219,0.371,0.34,0.611,0.34c0.129,0,0.26-0.035,0.378-0.108l8.905-5.532l8.809,5.53
		C27.523,26.498,27.655,26.534,27.786,26.534z"/>
	<path fill="#FFFFFF" d="M55.747,14.409l-3.273,6.489v4.828c0,0.438-0.267,0.707-0.693,0.707c-0.453,0-0.735-0.271-0.735-0.707
		v-4.824l-3.468-6.462c-0.128-0.237-0.107-0.429-0.069-0.547c0.036-0.117,0.13-0.282,0.364-0.407c0.336-0.203,0.768-0.099,0.97,0.28
		l2.914,5.409l2.685-5.386c0.194-0.388,0.606-0.521,0.988-0.318C55.802,13.668,55.924,14.028,55.747,14.409z M68.138,25.464
		c0.033,0.104,0.049,0.194,0.049,0.278c0,0.429-0.276,0.706-0.705,0.706c-0.32,0-0.566-0.169-0.672-0.464l-1.062-2.825h-5.26
		l-1.031,2.825c-0.104,0.291-0.361,0.464-0.688,0.464c-0.43,0-0.707-0.277-0.707-0.706c0-0.107,0.024-0.188,0.043-0.242
		l4.277-11.665c0.098-0.288,0.335-0.464,0.633-0.464c0.352,0.001,0.59,0.17,0.698,0.465L68.138,25.464z M65.19,21.73l-2.131-5.618
		l-2.041,5.618H65.19z M80.547,25.464c0.036,0.104,0.052,0.193,0.052,0.278c0,0.429-0.277,0.706-0.705,0.706
		c-0.322,0-0.566-0.169-0.676-0.464l-1.061-2.825h-5.258l-1.033,2.825c-0.105,0.291-0.361,0.464-0.688,0.464
		c-0.43,0-0.707-0.277-0.707-0.706c0-0.107,0.025-0.188,0.043-0.242l4.278-11.665c0.097-0.288,0.332-0.464,0.633-0.464
		c0.351,0.001,0.591,0.17,0.696,0.465L80.547,25.464z M77.604,21.73l-2.131-5.618l-2.041,5.618H77.604z M89.507,19.965
		c-0.544-0.411-1.408-0.805-2.642-1.2c-0.666-0.218-1.597-0.543-1.988-0.833c-0.423-0.307-0.627-0.728-0.627-1.288
		c0-1.149,0.835-1.921,2.075-1.921h0.477c1.038,0,1.713,0.359,2.125,1.129c0.204,0.377,0.65,0.48,0.984,0.279
		c0.378-0.202,0.486-0.567,0.279-0.953c-0.666-1.25-1.808-1.884-3.39-1.884h-0.477c-1.009,0-1.854,0.318-2.519,0.945
		c-0.654,0.621-0.986,1.431-0.986,2.405c0,1.004,0.422,1.839,1.22,2.416c0.448,0.323,1.183,0.649,2.39,1.058
		c1.291,0.418,1.908,0.778,2.156,0.954c0.607,0.443,0.904,1.056,0.904,1.873c0,0.572-0.27,1.065-0.828,1.517
		c-0.514,0.431-1.078,0.649-1.678,0.649h-0.459c-1.104,0-2.127-0.655-2.621-1.688c-0.25-0.447-0.948-0.486-1.228-0.048
		c-0.13,0.206-0.146,0.462-0.044,0.681c0.692,1.5,2.219,2.469,3.893,2.469h0.459c0.976,0,1.85-0.336,2.675-1.026
		c0.825-0.708,1.243-1.567,1.243-2.554C90.903,21.691,90.437,20.689,89.507,19.965z"/>
</g>
</svg>
