<svg xmlns="http://www.w3.org/2000/svg" xmlns:xlink="http://www.w3.org/1999/xlink" preserveAspectRatio="xMidYMid" width="70" height="80" viewBox="0 0 70 80">
  <defs>
    <style>

      .cls-2 {
        fill: #ffffff;
      }
    </style>
  </defs>
  <path d="M68.736,23.169 C68.736,23.169 43.393,37.908 43.393,37.908 C43.393,37.908 43.390,78.790 43.390,78.790 C43.390,79.232 43.147,79.640 42.757,79.860 C42.563,79.967 42.348,80.021 42.135,80.021 C41.914,80.021 41.693,79.963 41.495,79.849 C41.495,79.849 0.606,56.117 0.606,56.117 C0.225,55.896 -0.009,55.494 -0.009,55.059 C-0.009,55.059 -0.009,1.220 -0.009,1.220 C-0.009,0.778 0.232,0.370 0.624,0.150 C1.017,-0.065 1.497,-0.064 1.886,0.161 C1.886,0.161 42.779,23.892 42.779,23.892 C43.162,24.113 43.394,24.515 43.394,24.950 C43.394,24.950 43.394,32.186 43.394,32.186 C43.394,32.186 66.177,18.937 66.177,18.937 C67.361,18.238 68.905,18.625 69.616,19.797 C70.322,20.966 69.930,22.476 68.736,23.169 ZM40.884,25.652 C40.884,25.652 2.501,3.378 2.501,3.378 C2.501,3.378 2.501,54.357 2.501,54.357 C2.501,54.357 40.879,76.632 40.879,76.632 C40.879,76.632 40.883,39.368 40.883,39.368 C40.883,39.368 14.806,54.533 14.806,54.533 C14.412,54.763 13.969,54.878 13.526,54.878 C13.097,54.878 12.669,54.772 12.283,54.556 C11.500,54.118 11.016,53.302 11.016,52.417 C11.016,52.417 11.016,18.432 11.016,18.432 C11.016,17.073 12.139,15.971 13.526,15.971 C14.912,15.971 16.036,17.073 16.036,18.432 C16.036,18.432 16.036,48.096 16.036,48.096 C16.036,48.096 40.884,33.646 40.884,33.646 C40.884,33.646 40.884,25.652 40.884,25.652 Z" id="path-1" class="cls-2" fill-rule="evenodd"/>
</svg>
