<svg xmlns="http://www.w3.org/2000/svg" xmlns:xlink="http://www.w3.org/1999/xlink" preserveAspectRatio="xMidYMid" width="99" height="74" viewBox="0 0 99 74">
  <defs>
    <style>

      .cls-2 {
        fill: #ffffff;
      }
    </style>
  </defs>
  <path d="M1.221,30.227 C1.221,30.227 16.939,42.350 16.939,42.350 C16.939,42.350 20.571,62.854 20.571,62.854 C20.779,64.054 21.664,65.023 22.842,65.355 C22.862,65.356 22.883,65.363 22.898,65.369 C24.063,65.671 25.303,65.303 26.106,64.410 C26.106,64.410 34.049,55.549 34.049,55.549 C34.049,55.549 55.831,72.350 55.831,72.350 C56.175,72.616 56.565,72.806 56.978,72.915 C57.489,73.047 58.033,73.054 58.562,72.926 C59.511,72.690 60.299,72.040 60.704,71.153 C60.704,71.153 98.716,4.445 98.716,4.445 C99.242,3.294 99.026,1.947 98.167,1.013 C97.744,0.551 97.202,0.239 96.619,0.084 C96.019,-0.071 95.377,-0.057 94.767,0.154 C94.767,0.154 2.142,24.743 2.142,24.743 C1.036,25.120 0.225,26.068 0.030,27.213 C-0.162,28.357 0.297,29.515 1.221,30.227 ZM4.840,28.005 C4.840,28.005 89.095,6.271 89.095,6.271 C89.095,6.271 19.927,39.644 19.927,39.644 C19.927,39.644 4.840,28.005 4.840,28.005 ZM89.755,7.725 C89.755,7.725 33.099,50.653 33.099,50.653 C33.094,50.661 33.089,50.670 33.084,50.680 C33.074,50.688 33.063,50.694 33.048,50.704 C33.048,50.704 24.217,60.559 24.217,60.559 C24.217,60.559 20.750,40.999 20.750,40.999 C20.750,40.999 89.755,7.725 89.755,7.725 ZM93.414,6.476 C93.414,6.476 57.484,68.613 57.484,68.613 C57.484,68.613 34.873,51.170 34.873,51.170 C34.873,51.170 93.414,6.476 93.414,6.476 Z" id="path-1" class="cls-2" fill-rule="evenodd"/>
</svg>
