<svg xmlns="http://www.w3.org/2000/svg" xmlns:xlink="http://www.w3.org/1999/xlink" preserveAspectRatio="xMidYMid" width="61" height="87" viewBox="0 0 61 87">
  <defs>
    <style>

      .cls-2 {
        fill: #ffffff;
      }
    </style>
  </defs>
  <path d="M60.546,22.129 C60.546,22.129 20.801,0.096 20.801,0.096 C20.516,-0.062 20.165,-0.062 19.877,0.098 C19.592,0.258 19.416,0.553 19.416,0.871 C19.416,0.871 19.416,13.384 19.416,13.384 C19.416,13.384 11.552,9.025 11.552,9.025 C11.267,8.866 10.915,8.866 10.628,9.027 C10.343,9.186 10.167,9.481 10.167,9.799 C10.167,9.799 10.167,21.283 10.167,21.283 C10.167,21.283 2.763,17.179 2.763,17.179 C2.191,16.862 1.486,16.862 0.916,17.182 C0.344,17.502 -0.007,18.090 -0.007,18.727 C-0.007,18.727 -0.007,63.029 -0.007,63.029 C-0.007,63.667 0.345,64.256 0.917,64.575 C0.917,64.575 40.662,86.725 40.662,86.725 C40.948,86.885 41.267,86.964 41.587,86.964 C41.907,86.964 42.226,86.885 42.512,86.725 C43.085,86.406 43.437,85.817 43.437,85.179 C43.437,85.179 43.437,73.158 43.437,73.158 C43.437,73.158 50.374,77.024 50.374,77.024 C50.517,77.103 50.677,77.143 50.836,77.143 C50.996,77.143 51.156,77.103 51.299,77.024 C51.585,76.864 51.761,76.569 51.761,76.250 C51.761,76.250 51.761,63.714 51.761,63.714 C51.761,63.714 59.623,68.095 59.623,68.095 C59.766,68.175 59.926,68.215 60.086,68.215 C60.245,68.215 60.406,68.175 60.548,68.095 C60.835,67.936 61.011,67.641 61.011,67.322 C61.011,67.322 61.011,22.903 61.011,22.903 C61.011,22.583 60.834,22.288 60.546,22.129 ZM39.737,82.086 C39.737,82.086 3.692,61.998 3.692,61.998 C3.692,61.998 3.692,21.812 3.692,21.812 C3.692,21.812 39.737,41.794 39.737,41.794 C39.737,41.794 39.737,82.086 39.737,82.086 ZM43.437,71.095 C43.437,71.095 43.437,40.760 43.437,40.760 C43.437,40.121 43.083,39.530 42.509,39.211 C42.509,39.211 12.017,22.308 12.017,22.308 C12.017,22.308 12.017,11.342 12.017,11.342 C12.017,11.342 49.911,32.349 49.911,32.349 C49.911,32.349 49.911,61.304 49.911,61.304 C49.831,61.369 49.756,61.442 49.701,61.535 C49.475,61.913 49.582,62.371 49.911,62.646 C49.911,62.646 49.911,74.704 49.911,74.704 C49.911,74.704 43.437,71.095 43.437,71.095 ZM59.161,65.775 C59.161,65.775 51.761,61.652 51.761,61.652 C51.761,61.652 51.761,31.831 51.761,31.831 C51.761,31.511 51.584,31.217 51.297,31.057 C51.297,31.057 21.266,14.409 21.266,14.409 C21.266,14.409 21.266,2.413 21.266,2.413 C21.266,2.413 59.161,23.420 59.161,23.420 C59.161,23.420 59.161,65.775 59.161,65.775 Z" id="path-1" class="cls-2" fill-rule="evenodd"/>
</svg>
