<svg xmlns="http://www.w3.org/2000/svg" xmlns:xlink="http://www.w3.org/1999/xlink" preserveAspectRatio="xMidYMid" width="88" height="77" viewBox="0 0 88 77">
  <defs>
    <style>

      .cls-2 {
        fill: #ffffff;
      }
    </style>
  </defs>
  <path d="M87.613,25.161 C87.624,24.975 87.601,24.786 87.501,24.613 C87.258,24.188 86.752,24.036 86.311,24.204 C86.311,24.204 44.980,0.267 44.980,0.267 C44.376,-0.084 43.627,-0.084 43.023,0.267 C43.023,0.267 0.965,24.621 0.965,24.621 C0.359,24.972 -0.014,25.620 -0.014,26.322 C-0.014,26.322 -0.014,50.614 -0.014,50.614 C-0.014,51.315 0.359,51.962 0.963,52.313 C0.963,52.313 43.017,76.738 43.017,76.738 C43.321,76.915 43.659,77.003 43.998,77.003 C44.336,77.003 44.674,76.915 44.976,76.740 C44.976,76.740 87.034,52.386 87.034,52.386 C87.640,52.035 88.013,51.386 88.013,50.685 C88.013,50.685 88.013,26.323 88.013,26.323 C88.013,25.894 87.860,25.495 87.613,25.161 ZM44.001,4.235 C44.001,4.235 82.366,26.453 82.366,26.453 C82.366,26.453 70.134,33.538 70.134,33.538 C70.134,33.538 31.676,11.372 31.676,11.372 C31.676,11.372 44.001,4.235 44.001,4.235 ZM44.596,48.329 C44.596,48.329 6.232,26.106 6.232,26.106 C6.232,26.106 20.106,18.072 20.106,18.072 C20.106,18.072 58.455,40.302 58.455,40.302 C58.455,40.302 44.596,48.329 44.596,48.329 ZM29.716,12.507 C29.716,12.507 68.174,34.673 68.174,34.673 C68.174,34.673 60.413,39.169 60.413,39.169 C60.413,39.169 22.064,16.938 22.064,16.938 C22.064,16.938 29.716,12.507 29.716,12.507 ZM61.529,40.790 C61.529,40.790 69.501,36.173 69.501,36.173 C69.501,36.173 69.429,43.797 69.429,43.797 C69.429,43.797 61.504,48.550 61.504,48.550 C61.504,48.550 61.529,40.790 61.529,40.790 ZM3.901,49.481 C3.901,49.481 3.901,27.456 3.901,27.456 C3.901,27.456 4.274,27.240 4.274,27.240 C4.274,27.240 43.617,50.030 43.617,50.030 C43.617,50.030 43.617,72.548 43.617,72.548 C43.617,72.548 3.901,49.481 3.901,49.481 ZM45.575,71.859 C45.575,71.859 45.575,50.030 45.575,50.030 C45.575,50.030 59.568,41.926 59.568,41.926 C59.568,41.926 59.541,50.282 59.541,50.282 C59.539,50.636 59.728,50.963 60.035,51.138 C60.185,51.224 60.353,51.267 60.519,51.267 C60.693,51.267 60.867,51.221 61.022,51.128 C61.022,51.128 70.905,45.199 70.905,45.199 C71.197,45.024 71.377,44.708 71.381,44.366 C71.381,44.366 71.469,35.033 71.469,35.033 C71.469,35.033 84.098,27.718 84.098,27.718 C84.098,27.718 84.098,49.550 84.098,49.550 C84.098,49.550 45.575,71.859 45.575,71.859 Z" id="path-1" class="cls-2" fill-rule="evenodd"/>
</svg>
