<svg xmlns="http://www.w3.org/2000/svg" xmlns:xlink="http://www.w3.org/1999/xlink" preserveAspectRatio="xMidYMid" width="73" height="83" viewBox="0 0 73 83">
  <defs>
    <style>

      .cls-2 {
        fill: #ffffff;
      }
    </style>
  </defs>
  <path d="M72.172,20.134 C72.172,20.134 37.300,0.178 37.300,0.178 C36.799,-0.109 36.177,-0.109 35.676,0.178 C35.676,0.178 0.801,20.134 0.801,20.134 C0.298,20.422 -0.011,20.953 -0.011,21.528 C-0.011,21.528 -0.011,61.387 -0.011,61.387 C-0.011,61.961 0.298,62.492 0.799,62.779 C0.799,62.779 35.671,82.790 35.671,82.790 C35.924,82.935 36.204,83.007 36.485,83.007 C36.765,83.007 37.046,82.936 37.296,82.792 C37.296,82.792 72.172,62.839 72.172,62.839 C72.675,62.551 72.984,62.020 72.984,61.445 C72.984,61.445 72.984,21.528 72.984,21.528 C72.984,20.953 72.675,20.422 72.172,20.134 ZM36.488,3.430 C36.488,3.430 68.926,21.992 68.926,21.992 C68.926,21.992 36.485,40.558 36.485,40.558 C36.485,40.558 4.047,21.993 4.047,21.993 C4.047,21.993 36.488,3.430 36.488,3.430 ZM3.236,60.459 C3.236,60.459 3.236,23.386 3.236,23.386 C3.236,23.386 35.673,41.952 35.673,41.952 C35.673,41.952 35.673,79.073 35.673,79.073 C35.673,79.073 3.236,60.459 3.236,60.459 ZM37.296,79.076 C37.296,79.076 37.296,41.952 37.296,41.952 C37.296,41.952 69.737,23.386 69.737,23.386 C69.737,23.386 69.737,60.516 69.737,60.516 C69.737,60.516 37.296,79.076 37.296,79.076 Z" id="path-1" class="cls-2" fill-rule="evenodd"/>
</svg>
