<svg xmlns="http://www.w3.org/2000/svg" xmlns:xlink="http://www.w3.org/1999/xlink" preserveAspectRatio="xMidYMid" width="77" height="89" viewBox="0 0 77 89">
  <defs>
    <style>

      .cls-2 {
        fill: #ffffff;
      }
    </style>
  </defs>
  <path d="M76.947,65.919 C76.947,66.534 76.619,67.102 76.091,67.410 C76.091,67.410 39.354,88.771 39.354,88.771 C39.090,88.925 38.794,89.001 38.498,89.001 C38.202,89.001 37.906,88.925 37.642,88.771 C37.642,88.771 0.856,67.379 0.856,67.379 C0.326,67.071 0.000,66.502 0.000,65.886 C0.000,65.886 0.000,23.108 0.000,23.108 C0.000,22.492 0.326,21.923 0.856,21.615 C0.856,21.615 37.645,0.224 37.645,0.224 C38.174,-0.084 38.829,-0.084 39.358,0.224 C39.358,0.224 76.142,21.616 76.142,21.616 C76.672,21.925 76.998,22.495 76.998,23.112 C76.998,23.112 76.947,65.919 76.947,65.919 ZM72.120,65.737 C72.120,65.737 39.357,46.687 39.357,46.687 C39.357,46.687 39.354,84.788 39.354,84.788 C39.354,84.788 72.120,65.737 72.120,65.737 ZM37.642,84.788 C37.642,84.788 37.645,46.687 37.645,46.687 C37.645,46.687 4.882,65.737 4.882,65.737 C4.882,65.737 37.642,84.788 37.642,84.788 ZM3.425,64.593 C3.425,64.593 37.386,44.846 37.386,44.846 C37.386,44.846 3.425,25.100 3.425,25.100 C3.425,25.100 3.425,64.593 3.425,64.593 ZM37.645,43.005 C37.645,43.005 37.642,4.208 37.642,4.208 C37.642,4.208 4.281,23.606 4.281,23.606 C4.281,23.606 37.645,43.005 37.645,43.005 ZM39.354,4.205 C39.354,4.205 39.357,43.006 39.357,43.006 C39.357,43.006 72.718,23.607 72.718,23.607 C72.718,23.607 39.354,4.205 39.354,4.205 ZM39.617,44.846 C39.617,44.846 73.524,64.563 73.524,64.563 C73.524,64.563 73.571,25.103 73.571,25.103 C73.571,25.103 39.617,44.846 39.617,44.846 Z" id="path-1" class="cls-2" fill-rule="evenodd"/>
</svg>
