<svg xmlns="http://www.w3.org/2000/svg" xmlns:xlink="http://www.w3.org/1999/xlink" preserveAspectRatio="xMidYMid" width="78" height="89" viewBox="0 0 78 89">
  <defs>
    <style>

      .cls-2 {
        fill: #ffffff;
      }
    </style>
  </defs>
  <path d="M77.989,55.315 C77.991,55.332 78.002,55.346 78.002,55.364 C78.002,55.364 77.989,66.394 77.989,66.394 C77.989,66.489 77.951,66.573 77.898,66.647 C77.888,66.677 77.902,66.708 77.886,66.736 C77.804,66.878 77.653,66.958 77.499,66.958 C77.488,66.958 77.478,66.950 77.468,66.950 C77.468,66.950 68.201,72.259 68.201,72.259 C68.178,72.280 68.174,72.314 68.146,72.330 C68.146,72.330 58.582,77.810 58.582,77.810 C58.559,77.830 58.555,77.864 58.527,77.880 C58.527,77.880 48.963,83.360 48.963,83.360 C48.940,83.381 48.936,83.415 48.909,83.431 C48.909,83.431 39.303,88.934 39.303,88.934 C39.296,88.938 39.287,88.937 39.280,88.940 C39.219,88.971 39.153,88.993 39.079,88.993 C39.006,88.993 38.939,88.971 38.878,88.940 C38.871,88.937 38.862,88.938 38.855,88.934 C38.855,88.934 29.237,83.424 29.237,83.424 C29.175,83.388 29.128,83.335 29.090,83.276 C29.090,83.276 19.563,77.818 19.563,77.818 C19.500,77.781 19.452,77.728 19.414,77.670 C19.414,77.670 9.888,72.212 9.888,72.212 C9.825,72.175 9.778,72.122 9.740,72.064 C9.740,72.064 0.213,66.606 0.213,66.606 C0.075,66.526 -0.011,66.378 -0.011,66.220 C-0.011,66.220 -0.011,55.197 -0.011,55.197 C-0.011,55.197 -0.010,55.196 -0.010,55.195 C-0.010,55.194 -0.011,55.193 -0.011,55.192 C-0.011,55.192 -0.011,44.240 -0.011,44.240 C-0.011,44.240 -0.011,44.171 -0.011,44.171 C-0.011,44.171 -0.011,33.287 -0.011,33.287 C-0.011,33.287 -0.011,33.217 -0.011,33.217 C-0.011,33.217 -0.011,22.264 -0.011,22.264 C-0.011,22.106 0.075,21.958 0.213,21.878 C0.213,21.878 9.832,16.366 9.832,16.366 C9.832,16.366 9.833,16.366 9.833,16.366 C9.834,16.365 9.834,16.365 9.834,16.364 C9.834,16.364 38.748,0.061 38.748,0.061 C38.787,0.039 38.829,0.046 38.872,0.046 C38.935,0.013 39.003,-0.012 39.080,-0.012 C39.154,-0.012 39.220,0.010 39.282,0.042 C39.289,0.045 39.297,0.043 39.304,0.047 C39.304,0.047 48.864,5.527 48.864,5.527 C48.883,5.534 48.905,5.532 48.923,5.542 C48.923,5.542 58.433,10.993 58.433,10.993 C58.434,10.993 58.435,10.995 58.436,10.995 C58.436,10.995 58.501,11.033 58.501,11.033 C58.514,11.038 58.529,11.030 58.542,11.038 C58.542,11.038 68.102,16.517 68.102,16.517 C68.121,16.525 68.142,16.522 68.161,16.533 C68.161,16.533 77.778,22.045 77.778,22.045 C77.917,22.125 78.002,22.272 78.002,22.430 C78.002,22.430 77.989,33.335 77.989,33.335 C77.991,33.352 78.002,33.366 78.002,33.384 C78.002,33.384 77.989,44.289 77.989,44.289 C77.991,44.306 78.002,44.320 78.002,44.337 C78.002,44.337 77.989,55.315 77.989,55.315 ZM0.884,65.537 C0.884,65.537 9.293,60.786 9.293,60.786 C9.293,60.786 0.884,55.967 0.884,55.967 C0.884,55.967 0.884,65.537 0.884,65.537 ZM0.884,54.428 C0.884,54.428 9.163,49.683 9.163,49.683 C9.163,49.683 0.884,44.940 0.884,44.940 C0.884,44.940 0.884,54.428 0.884,54.428 ZM0.884,43.401 C0.884,43.401 9.098,38.694 9.098,38.694 C9.098,38.694 0.884,33.987 0.884,33.987 C0.884,33.987 0.884,43.401 0.884,43.401 ZM0.884,32.876 C0.884,32.876 9.318,28.047 9.318,28.047 C9.318,28.047 0.884,23.262 0.884,23.262 C0.884,23.262 0.884,32.876 0.884,32.876 ZM9.664,17.489 C9.664,17.489 1.129,22.379 1.129,22.379 C1.129,22.379 9.664,27.222 9.664,27.222 C9.664,27.222 9.664,17.489 9.664,17.489 ZM9.664,28.876 C9.664,28.876 1.706,33.432 1.706,33.432 C1.706,33.432 9.664,37.992 9.664,37.992 C9.664,37.992 9.664,28.876 9.664,28.876 ZM9.664,39.396 C9.664,39.396 1.332,44.171 1.332,44.171 C1.332,44.171 9.664,48.944 9.664,48.944 C9.664,48.944 9.664,39.396 9.664,39.396 ZM9.664,50.423 C9.664,50.423 1.332,55.197 1.332,55.197 C1.332,55.197 9.664,59.972 9.664,59.972 C9.664,59.972 9.664,50.423 9.664,50.423 ZM9.664,61.597 C9.664,61.597 1.406,66.263 1.406,66.263 C1.406,66.263 9.664,70.994 9.664,70.994 C9.664,70.994 9.664,61.597 9.664,61.597 ZM19.339,76.600 C19.339,76.600 19.339,66.925 19.339,66.925 C19.339,66.925 10.895,71.763 10.895,71.763 C10.895,71.763 19.339,76.600 19.339,76.600 ZM10.559,70.929 C10.559,70.929 18.723,66.252 18.723,66.252 C18.723,66.252 10.559,61.573 10.559,61.573 C10.559,61.573 10.559,70.929 10.559,70.929 ZM19.339,65.578 C19.339,65.578 19.339,56.131 19.339,56.131 C19.339,56.131 11.038,60.821 11.038,60.821 C11.038,60.821 19.339,65.578 19.339,65.578 ZM10.559,60.071 C10.559,60.071 18.930,55.342 18.930,55.342 C18.930,55.342 10.559,50.546 10.559,50.546 C10.559,50.546 10.559,60.071 10.559,60.071 ZM10.559,49.007 C10.559,49.007 18.712,44.335 18.712,44.335 C18.712,44.335 10.559,39.662 10.559,39.662 C10.559,39.662 10.559,49.007 10.559,49.007 ZM10.559,38.067 C10.559,38.067 18.876,33.470 18.876,33.470 C18.876,33.470 10.559,28.751 10.559,28.751 C10.559,28.751 10.559,38.067 10.559,38.067 ZM10.559,27.337 C10.559,27.337 19.099,22.448 19.099,22.448 C19.099,22.448 10.559,17.553 10.559,17.553 C10.559,17.553 10.559,27.337 10.559,27.337 ZM19.395,11.996 C19.395,11.996 10.957,16.754 10.957,16.754 C10.957,16.754 19.395,21.591 19.395,21.591 C19.395,21.591 19.395,11.996 19.395,11.996 ZM19.395,23.305 C19.395,23.305 11.115,28.045 11.115,28.045 C11.115,28.045 19.395,32.743 19.395,32.743 C19.395,32.743 19.395,23.305 19.395,23.305 ZM19.395,34.201 C19.395,34.201 10.956,38.864 10.956,38.864 C10.956,38.864 19.395,43.700 19.395,43.700 C19.395,43.700 19.395,34.201 19.395,34.201 ZM19.395,44.970 C19.395,44.970 11.007,49.777 11.007,49.777 C11.007,49.777 19.395,54.582 19.395,54.582 C19.395,54.582 19.395,44.970 19.395,44.970 ZM29.014,82.206 C29.014,82.206 29.014,72.531 29.014,72.531 C29.014,72.531 20.570,77.369 20.570,77.369 C20.570,77.369 29.014,82.206 29.014,82.206 ZM28.900,50.729 C28.900,50.729 20.725,55.348 20.725,55.348 C20.725,55.348 28.889,60.027 28.889,60.027 C28.889,60.027 28.900,50.729 28.900,50.729 ZM20.686,66.407 C20.686,66.407 28.888,71.108 28.888,71.108 C28.888,71.108 28.900,61.700 28.900,61.700 C28.900,61.700 20.686,66.407 20.686,66.407 ZM28.499,49.936 C28.499,49.936 20.290,45.231 20.290,45.231 C20.290,45.231 20.290,54.574 20.290,54.574 C20.290,54.574 28.499,49.936 28.499,49.936 ZM20.647,44.409 C20.647,44.409 29.014,49.204 29.014,49.204 C29.014,49.204 29.014,39.828 29.014,39.828 C29.014,39.828 20.647,44.409 20.647,44.409 ZM28.550,39.068 C28.550,39.068 20.290,34.334 20.290,34.334 C20.290,34.334 20.290,43.591 20.290,43.591 C20.290,43.591 28.550,39.068 28.550,39.068 ZM20.234,76.535 C20.234,76.535 28.397,71.858 28.397,71.858 C28.397,71.858 20.234,67.179 20.234,67.179 C20.234,67.179 20.234,76.535 20.234,76.535 ZM20.234,65.640 C20.234,65.640 28.563,60.866 28.563,60.866 C28.563,60.866 20.234,56.093 20.234,56.093 C20.234,56.093 20.234,65.640 20.234,65.640 ZM28.578,27.931 C28.578,27.931 20.290,23.190 20.290,23.190 C20.290,23.190 20.290,32.674 20.290,32.674 C20.290,32.674 28.578,27.931 28.578,27.931 ZM20.290,21.766 C20.290,21.766 28.583,17.018 28.583,17.018 C28.583,17.018 20.290,12.265 20.290,12.265 C20.290,12.265 20.290,21.766 20.290,21.766 ZM29.014,6.573 C29.014,6.573 20.513,11.366 20.513,11.366 C20.513,11.366 29.014,16.238 29.014,16.238 C29.014,16.238 29.014,6.573 29.014,6.573 ZM29.014,17.798 C29.014,17.798 20.839,22.478 20.839,22.478 C20.839,22.478 29.014,27.154 29.014,27.154 C29.014,27.154 29.014,17.798 29.014,17.798 ZM20.633,33.504 C20.633,33.504 29.013,38.307 29.013,38.307 C29.013,38.307 29.015,28.707 29.015,28.707 C29.015,28.707 20.633,33.504 20.633,33.504 ZM48.252,72.785 C48.252,72.785 40.010,77.508 40.010,77.508 C40.010,77.508 48.251,82.229 48.251,82.229 C48.251,82.229 48.252,72.785 48.252,72.785 ZM30.357,60.989 C30.357,60.989 38.632,65.730 38.632,65.730 C38.632,65.730 38.633,56.246 38.633,56.246 C38.633,56.246 30.357,60.989 30.357,60.989 ZM38.632,54.778 C38.632,54.778 38.632,45.231 38.632,45.231 C38.632,45.231 30.243,49.970 30.243,49.970 C30.243,49.970 38.632,54.778 38.632,54.778 ZM38.070,44.529 C38.070,44.529 29.909,39.851 29.909,39.851 C29.909,39.851 29.909,49.139 29.909,49.139 C29.909,49.139 38.070,44.529 38.070,44.529 ZM38.632,43.824 C38.632,43.824 38.632,34.335 38.632,34.335 C38.632,34.335 30.352,39.079 30.352,39.079 C30.352,39.079 38.632,43.824 38.632,43.824 ZM38.632,23.202 C38.632,23.202 30.291,27.976 30.291,27.976 C30.291,27.976 38.632,32.756 38.632,32.756 C38.632,32.756 38.632,23.202 38.632,23.202 ZM38.123,22.468 C38.123,22.468 29.909,17.760 29.909,17.760 C29.909,17.760 29.909,27.169 29.909,27.169 C29.909,27.169 38.123,22.468 38.123,22.468 ZM38.632,21.733 C38.632,21.733 38.632,12.248 38.632,12.248 C38.632,12.248 30.357,16.991 30.357,16.991 C30.357,16.991 38.632,21.733 38.632,21.733 ZM39.527,54.779 C39.527,54.779 47.836,50.016 47.836,50.016 C47.836,50.016 39.527,45.254 39.527,45.254 C39.527,45.254 39.527,54.779 39.527,54.779 ZM39.527,21.664 C39.527,21.664 47.781,16.940 47.781,16.940 C47.781,16.940 39.527,12.209 39.527,12.209 C39.527,12.209 39.527,21.664 39.527,21.664 ZM39.527,32.762 C39.527,32.762 47.822,28.008 47.822,28.008 C47.822,28.008 39.527,23.255 39.527,23.255 C39.527,23.255 39.527,32.762 39.527,32.762 ZM39.527,43.824 C39.527,43.824 47.855,39.051 47.855,39.051 C47.855,39.051 39.527,34.278 39.527,34.278 C39.527,34.278 39.527,43.824 39.527,43.824 ZM40.071,44.539 C40.071,44.539 48.251,49.227 48.251,49.227 C48.251,49.227 48.252,39.851 48.252,39.851 C48.252,39.851 40.071,44.539 40.071,44.539 ZM40.071,55.493 C40.071,55.493 48.251,60.179 48.251,60.179 C48.251,60.179 48.252,50.805 48.252,50.805 C48.252,50.805 40.071,55.493 40.071,55.493 ZM39.527,56.208 C39.527,56.208 39.527,65.696 39.527,65.696 C39.527,65.696 47.806,60.951 47.806,60.951 C47.806,60.951 39.527,56.208 39.527,56.208 ZM47.836,71.996 C47.836,71.996 39.527,67.235 39.527,67.235 C39.527,67.235 39.527,76.758 39.527,76.758 C39.527,76.758 47.836,71.996 47.836,71.996 ZM47.837,83.018 C47.837,83.018 39.527,78.258 39.527,78.258 C39.527,78.258 39.527,87.780 39.527,87.780 C39.527,87.780 47.837,83.018 47.837,83.018 ZM38.633,67.273 C38.633,67.273 30.357,72.015 30.357,72.015 C30.357,72.015 38.633,76.758 38.633,76.758 C38.633,76.758 38.633,67.273 38.633,67.273 ZM38.632,87.780 C38.632,87.780 38.633,78.169 38.633,78.169 C38.633,78.169 30.245,82.975 30.245,82.975 C30.245,82.975 38.632,87.780 38.632,87.780 ZM29.909,82.141 C29.909,82.141 38.072,77.464 38.072,77.464 C38.072,77.464 29.909,72.785 29.909,72.785 C29.909,72.785 29.909,82.141 29.909,82.141 ZM38.187,66.502 C38.187,66.502 29.795,61.693 29.795,61.693 C29.795,61.693 29.783,71.318 29.783,71.318 C29.783,71.318 38.187,66.502 38.187,66.502 ZM29.783,60.291 C29.783,60.291 38.122,55.512 38.122,55.512 C38.122,55.512 29.795,50.740 29.795,50.740 C29.795,50.740 29.783,60.291 29.783,60.291 ZM38.218,33.545 C38.218,33.545 29.909,28.784 29.909,28.784 C29.909,28.784 29.908,38.307 29.908,38.307 C29.908,38.307 38.218,33.545 38.218,33.545 ZM29.909,16.221 C29.909,16.221 38.203,11.468 38.203,11.468 C38.203,11.468 29.909,6.715 29.909,6.715 C29.909,6.715 29.909,16.221 29.909,16.221 ZM38.632,10.688 C38.632,10.688 38.633,1.149 38.633,1.149 C38.633,1.149 30.243,5.880 30.243,5.880 C30.243,5.880 38.632,10.688 38.632,10.688 ZM39.527,1.202 C39.527,1.202 39.527,10.670 39.527,10.670 C39.527,10.670 47.788,5.936 47.788,5.936 C47.788,5.936 39.527,1.202 39.527,1.202 ZM39.976,11.440 C39.976,11.440 48.238,16.175 48.238,16.175 C48.238,16.175 48.250,6.698 48.250,6.698 C48.250,6.698 39.976,11.440 39.976,11.440 ZM48.252,17.697 C48.252,17.697 39.930,22.460 39.930,22.460 C39.930,22.460 48.252,27.228 48.252,27.228 C48.252,27.228 48.252,17.697 48.252,17.697 ZM48.252,28.788 C48.252,28.788 39.995,33.520 39.995,33.520 C39.995,33.520 48.252,38.252 48.252,38.252 C48.252,38.252 48.252,28.788 48.252,28.788 ZM48.252,61.722 C48.252,61.722 39.976,66.465 39.976,66.465 C39.976,66.465 48.252,71.208 48.252,71.208 C48.252,71.208 48.252,61.722 48.252,61.722 ZM49.146,50.657 C49.146,50.657 49.145,60.145 49.145,60.145 C49.145,60.145 57.425,55.400 57.425,55.400 C57.425,55.400 49.146,50.657 49.146,50.657 ZM57.870,54.629 C57.870,54.629 57.870,45.254 57.870,45.254 C57.870,45.254 49.690,49.943 49.690,49.943 C49.690,49.943 57.870,54.629 57.870,54.629 ZM57.455,44.466 C57.455,44.466 49.146,39.704 49.146,39.704 C49.146,39.704 49.145,49.228 49.145,49.228 C49.145,49.228 57.455,44.466 57.455,44.466 ZM49.146,27.211 C49.146,27.211 57.440,22.458 57.440,22.458 C57.440,22.458 49.146,17.705 49.146,17.705 C49.146,17.705 49.146,27.211 49.146,27.211 ZM49.146,38.251 C49.146,38.251 57.436,33.501 57.436,33.501 C57.436,33.501 49.146,28.750 49.146,28.750 C49.146,28.750 49.146,38.251 49.146,38.251 ZM49.670,38.977 C49.670,38.977 57.870,43.677 57.870,43.677 C57.870,43.677 57.870,34.279 57.870,34.279 C57.870,34.279 49.670,38.977 49.670,38.977 ZM49.595,60.914 C49.595,60.914 57.870,65.657 57.870,65.657 C57.870,65.657 57.870,56.172 57.870,56.172 C57.870,56.172 49.595,60.914 49.595,60.914 ZM49.146,61.684 C49.146,61.684 49.146,71.208 49.146,71.208 C49.146,71.208 57.455,66.446 57.455,66.446 C57.455,66.446 49.146,61.684 49.146,61.684 ZM57.870,67.234 C57.870,67.234 49.629,71.958 49.629,71.958 C49.629,71.958 57.870,76.679 57.870,76.679 C57.870,76.679 57.870,67.234 57.870,67.234 ZM57.456,77.468 C57.456,77.468 49.146,72.707 49.146,72.707 C49.146,72.707 49.145,82.229 49.145,82.229 C49.145,82.229 57.456,77.468 57.456,77.468 ZM49.145,6.696 C49.145,6.696 49.133,16.166 49.133,16.166 C49.133,16.166 57.406,11.431 57.406,11.431 C57.406,11.431 49.145,6.696 49.145,6.696 ZM49.589,16.932 C49.589,16.932 57.857,21.670 57.857,21.670 C57.857,21.670 57.869,12.193 57.869,12.193 C57.869,12.193 49.589,16.932 49.589,16.932 ZM57.870,23.238 C57.870,23.238 49.594,27.981 49.594,27.981 C49.594,27.981 57.870,32.723 57.870,32.723 C57.870,32.723 57.870,23.238 57.870,23.238 ZM67.489,61.684 C67.489,61.684 59.248,66.407 59.248,66.407 C59.248,66.407 67.489,71.128 67.489,71.128 C67.489,71.128 67.489,61.684 67.489,61.684 ZM58.765,34.153 C58.765,34.153 58.764,43.568 58.764,43.568 C58.764,43.568 66.979,38.861 66.979,38.861 C66.979,38.861 58.765,34.153 58.765,34.153 ZM58.765,32.723 C58.765,32.723 67.040,27.981 67.040,27.981 C67.040,27.981 58.765,23.238 58.765,23.238 C58.765,23.238 58.765,32.723 58.765,32.723 ZM58.764,54.595 C58.764,54.595 67.044,49.850 67.044,49.850 C67.044,49.850 58.765,45.107 58.765,45.107 C58.765,45.107 58.764,54.595 58.764,54.595 ZM59.214,55.364 C59.214,55.364 67.433,60.075 67.433,60.075 C67.433,60.075 67.433,50.653 67.433,50.653 C67.433,50.653 59.214,55.364 59.214,55.364 ZM58.765,56.133 C58.765,56.133 58.765,65.657 58.765,65.657 C58.765,65.657 67.074,60.895 67.074,60.895 C67.074,60.895 58.765,56.133 58.765,56.133 ZM67.074,71.917 C67.074,71.917 58.765,67.157 58.765,67.157 C58.765,67.157 58.764,76.678 58.764,76.678 C58.764,76.678 67.074,71.917 67.074,71.917 ZM58.763,12.191 C58.763,12.191 58.752,21.668 58.752,21.668 C58.752,21.668 67.026,16.926 67.026,16.926 C67.026,16.926 58.763,12.191 58.763,12.191 ZM59.180,22.449 C59.180,22.449 67.476,27.204 67.476,27.204 C67.476,27.204 67.488,17.688 67.488,17.688 C67.488,17.688 59.180,22.449 59.180,22.449 ZM59.309,33.438 C59.309,33.438 67.489,38.126 67.489,38.126 C67.489,38.126 67.489,28.750 67.489,28.750 C67.489,28.750 59.309,33.438 59.309,33.438 ZM59.214,44.337 C59.214,44.337 67.489,49.078 67.489,49.078 C67.489,49.078 67.489,39.595 67.489,39.595 C67.489,39.595 59.214,44.337 59.214,44.337 ZM77.107,56.134 C77.107,56.134 68.694,60.956 68.694,60.956 C68.694,60.956 77.095,65.769 77.095,65.769 C77.095,65.769 77.107,56.134 77.107,56.134 ZM68.383,49.179 C68.383,49.179 76.745,44.387 76.745,44.387 C76.745,44.387 68.384,39.595 68.384,39.595 C68.384,39.595 68.383,49.179 68.383,49.179 ZM76.659,33.384 C76.659,33.384 68.384,28.641 68.384,28.641 C68.384,28.641 68.383,38.127 68.383,38.127 C68.383,38.127 76.659,33.384 76.659,33.384 ZM68.916,49.900 C68.916,49.900 77.095,54.587 77.095,54.587 C77.095,54.587 77.107,45.206 77.107,45.206 C77.107,45.206 68.916,49.900 68.916,49.900 ZM76.520,66.466 C76.520,66.466 68.384,61.805 68.384,61.805 C68.384,61.805 68.383,71.128 68.383,71.128 C68.383,71.128 76.520,66.466 76.520,66.466 ZM68.328,60.139 C68.328,60.139 76.659,55.364 76.659,55.364 C76.659,55.364 68.328,50.589 68.328,50.589 C68.328,50.589 68.328,60.139 68.328,60.139 ZM68.382,17.687 C68.382,17.687 68.371,27.180 68.371,27.180 C68.371,27.180 76.659,22.430 76.659,22.430 C76.659,22.430 68.382,17.687 68.382,17.687 ZM68.895,27.907 C68.895,27.907 77.095,32.607 77.095,32.607 C77.095,32.607 77.107,23.200 77.107,23.200 C77.107,23.200 68.895,27.907 68.895,27.907 ZM68.895,38.861 C68.895,38.861 77.095,43.561 77.095,43.561 C77.095,43.561 77.107,34.154 77.107,34.154 C77.107,34.154 68.895,38.861 68.895,38.861 Z" id="path-1" class="cls-2" fill-rule="evenodd"/>
</svg>
