<svg xmlns="http://www.w3.org/2000/svg" xmlns:xlink="http://www.w3.org/1999/xlink" preserveAspectRatio="xMidYMid" width="61" height="71" viewBox="0 0 61 71">
  <defs>
    <style>

      .cls-2 {
        fill: #ffffff;
      }
    </style>
  </defs>
  <path d="M59.856,19.182 C59.856,19.182 31.558,70.424 31.558,70.424 C31.350,70.785 30.965,71.008 30.549,71.008 C30.133,71.008 29.749,70.785 29.541,70.424 C29.541,70.424 0.156,19.181 0.156,19.181 C-0.165,18.623 0.025,17.908 0.582,17.586 C0.582,17.586 29.968,0.140 29.968,0.140 C30.329,-0.070 30.772,-0.070 31.133,0.140 C31.133,0.140 59.430,17.586 59.430,17.586 C59.987,17.909 60.178,18.623 59.856,19.182 ZM30.551,2.500 C30.551,2.500 2.755,19.025 2.755,19.025 C2.755,19.025 29.288,65.304 29.288,65.304 C29.288,65.304 29.288,20.834 29.288,20.834 C29.288,20.188 29.810,19.665 30.453,19.665 C31.096,19.665 31.618,20.188 31.618,20.834 C31.618,20.834 31.618,65.564 31.618,65.564 C31.618,65.564 57.257,19.025 57.257,19.025 C57.257,19.025 30.551,2.500 30.551,2.500 Z" id="path-1" class="cls-2" fill-rule="evenodd"/>
</svg>
