<svg xmlns="http://www.w3.org/2000/svg" xmlns:xlink="http://www.w3.org/1999/xlink" preserveAspectRatio="xMidYMid" width="93" height="76" viewBox="0 0 93 76">
  <defs>
    <style>
      .cls-1 {
        fill: #fff;
        fill-rule: evenodd;
      }
    </style>
  </defs>
  <path d="M88.756,21.730 L86.031,51.424 C86.035,64.928 68.299,76.002 46.499,76.002 C24.705,76.002 6.968,64.890 6.964,51.232 L4.243,21.730 C1.769,21.144 -0.000,18.929 -0.000,16.382 C-0.000,13.350 2.476,10.882 5.521,10.882 C5.833,10.882 6.137,10.924 6.440,10.975 C9.099,11.421 11.028,13.695 11.028,16.382 C11.028,18.243 10.103,19.939 8.540,20.962 C9.628,24.272 11.031,26.463 12.711,27.478 C13.430,27.912 14.198,28.132 14.997,28.132 C18.265,28.132 20.396,24.193 21.608,20.887 C22.715,17.876 23.549,14.028 23.854,10.550 C21.803,9.686 20.492,7.728 20.492,5.504 C20.492,2.470 22.969,0.002 26.011,0.002 C26.768,0.002 27.515,0.162 28.232,0.476 C30.229,1.352 31.521,3.326 31.521,5.504 C31.521,7.312 30.640,8.980 29.150,10.010 C30.351,12.542 32.341,14.768 34.916,16.453 C36.947,17.786 39.356,18.755 41.896,19.292 C41.711,19.023 41.530,18.713 41.394,18.377 L41.291,18.069 C41.121,17.534 41.035,17.087 41.009,16.649 L40.985,16.247 L40.992,16.220 C41.056,13.215 43.506,10.818 46.507,10.818 C49.552,10.818 52.028,13.286 52.028,16.319 C52.028,16.896 51.925,17.476 51.713,18.088 L51.636,18.331 C51.506,18.658 51.324,18.976 51.118,19.289 C53.657,18.750 56.061,17.784 58.083,16.454 C60.660,14.769 62.648,12.545 63.849,10.009 C62.361,8.978 61.480,7.311 61.480,5.504 C61.480,3.328 62.770,1.355 64.767,0.476 C65.488,0.162 66.236,0.002 66.990,0.002 C70.033,0.002 72.509,2.470 72.509,5.504 C72.509,7.723 71.196,9.681 69.147,10.550 C69.455,14.026 70.289,17.874 71.393,20.887 C72.605,24.193 74.734,28.132 78.002,28.132 C78.803,28.132 79.574,27.912 80.291,27.479 C81.973,26.461 83.376,24.269 84.461,20.962 C82.899,19.939 81.971,18.243 81.971,16.382 C81.971,13.695 83.902,11.422 86.564,10.975 C86.851,10.922 87.158,10.882 87.483,10.882 C90.525,10.882 93.002,13.350 93.002,16.382 C93.002,18.931 91.228,21.147 88.756,21.730 ZM8.622,16.382 C8.622,14.870 7.537,13.590 6.040,13.340 C5.869,13.310 5.697,13.280 5.521,13.280 C3.804,13.280 2.406,14.672 2.406,16.382 C2.406,17.859 3.461,19.136 4.913,19.422 L6.083,19.646 L7.109,19.027 C8.056,18.457 8.622,17.468 8.622,16.382 ZM27.261,2.671 C26.852,2.491 26.432,2.400 26.011,2.400 C24.294,2.400 22.898,3.792 22.898,5.504 C22.898,6.795 23.688,7.927 24.907,8.387 L26.366,8.935 L27.661,8.118 C28.572,7.543 29.115,6.566 29.115,5.504 C29.115,4.277 28.387,3.164 27.261,2.671 ZM33.593,18.456 C30.567,16.475 28.239,13.822 26.860,10.784 L26.347,9.647 L26.270,10.544 C25.964,14.275 25.065,18.450 23.869,21.711 C21.195,29.000 17.569,30.530 14.997,30.530 C14.489,30.530 13.991,30.474 13.505,30.362 C16.155,34.454 20.586,39.695 25.903,39.695 C37.287,39.695 40.431,25.257 41.048,21.576 C38.342,20.962 35.779,19.891 33.593,18.456 ZM46.507,13.215 C44.808,13.215 43.422,14.577 43.391,16.263 L43.403,16.362 C43.414,16.690 43.464,16.965 43.560,17.269 C43.722,17.721 43.863,17.959 44.056,18.206 L44.775,18.935 L44.998,19.013 C45.985,19.563 47.063,19.555 48.036,19.001 L48.919,18.251 C49.131,17.985 49.286,17.729 49.389,17.476 C49.563,16.944 49.622,16.624 49.622,16.319 C49.622,14.608 48.224,13.215 46.507,13.215 ZM70.103,5.504 C70.103,3.792 68.707,2.400 66.990,2.400 C66.569,2.400 66.149,2.491 65.737,2.672 C64.614,3.166 63.886,4.278 63.886,5.504 C63.886,6.566 64.429,7.543 65.340,8.118 L66.651,8.945 L68.085,8.391 C69.314,7.924 70.103,6.790 70.103,5.504 ZM78.002,30.530 C75.432,30.530 71.806,29.000 69.133,21.709 C67.937,18.445 67.039,14.270 66.731,10.541 L66.654,9.651 L66.142,10.784 C64.763,13.823 62.434,16.476 59.406,18.457 C57.223,19.891 54.657,20.964 51.946,21.577 C52.564,25.250 55.717,39.695 67.096,39.695 C71.776,39.695 76.275,35.304 79.536,30.353 C79.036,30.471 78.524,30.530 78.002,30.530 ZM84.290,26.861 C82.892,29.713 76.289,42.092 67.096,42.092 C52.486,42.092 49.707,23.210 49.437,21.057 L49.435,21.047 L49.187,21.241 L48.934,21.241 C48.161,21.626 47.345,21.821 46.507,21.821 C45.684,21.821 44.883,21.632 44.119,21.260 L43.997,21.261 L43.566,20.986 L43.558,21.049 C43.290,23.202 40.525,42.092 25.903,42.092 C16.937,42.092 10.690,30.783 8.909,27.132 C8.117,26.069 7.410,24.759 6.794,23.208 L9.365,51.122 C9.374,63.569 26.030,73.604 46.499,73.604 C66.973,73.604 83.629,63.606 83.629,51.315 L86.205,23.213 C85.641,24.630 85.002,25.849 84.290,26.861 ZM87.483,13.280 C87.309,13.280 87.147,13.306 86.982,13.336 C85.464,13.591 84.377,14.871 84.377,16.382 C84.377,17.468 84.943,18.456 85.892,19.026 L86.916,19.646 L88.091,19.421 C89.541,19.137 90.596,17.859 90.596,16.382 C90.596,14.672 89.200,13.280 87.483,13.280 Z" class="cls-1"/>
</svg>
