<?xml version="1.0" encoding="utf-8"?>
<!-- Generator: Adobe Illustrator 18.1.1, SVG Export Plug-In . SVG Version: 6.00 Build 0)  -->
<svg version="1.1" id="Ebene_2" xmlns="http://www.w3.org/2000/svg" xmlns:xlink="http://www.w3.org/1999/xlink" x="0px" y="0px"
	 viewBox="0 0 21.8 31.4" enable-background="new 0 0 21.8 31.4" xml:space="preserve">
<g>
	<path d="M6.8,14.5l0.6,0.3l-0.1,0.9l-0.2,2.5L7,19.1l-0.6-0.3l-2.5-1.4l-0.6-0.3l0.1-0.9l0.4-5.4c0.1-1,0.5-2.4,0.5-2.6l0.2-0.6
		L5,7.8l1,0.5l0.5,0.3l0,0.8l0.1,2.1l0,0.2l0,0.2L6,14.1L6.8,14.5z M6.4,18.5l0.2-3.1l-1.4-0.8L6,11.4L5.9,9.3l-1-0.5
		c0,0.1-0.4,1.4-0.5,2.3C4.4,12,4,16.8,4,17.1L6.4,18.5z"/>
	<path d="M21.2,19.1c0-0.2,0-0.4-0.1-0.6c-0.1-0.2-0.1-0.1-0.2-0.3c-0.1-0.1-0.2-0.2-0.3-0.3c-0.1,0-0.1-0.1-0.2-0.1
		c-0.2,0-1-0.2-1.2-0.2c-0.2,0-0.3,0-0.5,0.2c-0.1,0.2-0.1,0.2,0,0.4c0.1,0.2,0.7,1.4,0.7,1.4c0,0.1-0.9,1.3-1.2,1.7
		c-0.1,0.1-0.2,0.1-0.3,0.1c-0.3-0.2-0.7-0.9-0.5-1.2c0.2-0.4,0.5-0.4,0.6-0.5c0.1-0.2,0-0.5-0.2-0.6l-0.1,0c-0.2,0-0.5,0.2-0.8,0.7
		l-0.4-0.9c0.1-0.2,0.2-0.2,0.3-0.4c0.3-0.4,0.7-0.4,0.8-0.4c0.1,0,0.2,0,0.3,0.1c0.1,0.1,0.2,0.1,0.3,0.3c0-0.2-0.1-0.3-0.1-0.6
		c0-0.5,0.2-0.7,0.3-0.8c0.2-0.3,0.5-0.3,0.7-0.3l0,0c0.2,0,0.6,0.1,1.2,0.2l0.1,0c0.1,0,0.2,0.1,0.3,0.1c0.2,0.1,0.5,0.4,0.6,0.7
		l0.1,0.2l0.1,0.1c0.2,0.5,0.3,1.1,0.2,1.6l0,0.1c-0.1,0.4-0.3,1.4-0.7,2l-3,3.7l-0.4-0.8c0.9-1.1,2.7-3.3,3-3.6
		C21.1,20.3,21.2,19.3,21.2,19.1 M18.6,19.1L18.6,19.1c0,0.1,0,0.2,0.1,0.3l0.1-0.1L18.6,19.1"/>
	<path d="M12.7,16.3c-0.6-3.9-1.1-8-1.3-9.4c-0.2-1.5-0.2-3.1-0.1-4.4C11.4,0.9,11.8,0,12.4,0c0.1,0,0.3,0,0.4,0.1
		c1.1,0.6,2.2,3.8,2.6,6.5L18,25.2l-0.7-0.9c-0.1-0.7-2.1-14.9-2.5-17.7c-0.4-2.6-1.4-5.2-2.1-5.6c-0.1,0-0.1-0.1-0.2,0
		c-0.7,0.1-1,3.1-0.6,5.9c0.2,1.6,0.9,6.5,1.5,10.8L12.7,16.3z"/>
	<path d="M12.5,22l0.1-0.6L12,21.2l0.1-0.9l-0.6-0.2l0.1-0.9l-0.6-0.2l0.1-0.9L10.6,18l0.1-0.9l-0.6-0.2l0.1-0.9l-0.6-0.2l0.1-0.9
		l-0.6-0.2l0.1-0.9l-0.6-0.2l0.1-0.9l-0.6-0.2l0.1-0.9l-0.6-0.2l0.1-1l0.1-0.5L7.5,8.7c-0.3-0.6-0.1-1-0.1-1.1
		c0-0.1,0.2-0.5,0.6-0.3c0.1,0,0.2,0.1,0.3,0.2c0.7,0.4,1.3,1,1.6,1.7l6.5,15.4l0.3,0.7l-0.2,0.1l-0.7-0.9c-0.3-0.7-5.9-13.9-6.3-15
		C9.2,8.9,8.6,8.5,8.3,8.3C8.1,8.2,8,8.1,8,8.1C7.8,8,7.8,8.1,7.9,8.4C8,8.6,8.6,10,8.6,10l-0.1,0.9l0.6,0.2L8.9,12l0.6,0.2
		l-0.1,0.9l0.6,0.2l-0.1,0.9l0.6,0.2l-0.1,0.9l0.6,0.2l-0.1,0.9l0.6,0.2l-0.1,0.9l0.6,0.2l-0.1,0.9l0.6,0.2l-0.1,0.9l0.6,0.2
		l-0.1,0.9l0.6,0.2L13,21.7l0.6,0.2l-0.1,0.7L12.5,22z"/>
	<path fill="none" stroke="#000000" stroke-width="0.4526" stroke-miterlimit="10" d="M13,30.4c1.2,0.7,2.4-0.1,2.5-2.1
		c0.2-2-0.7-3.9-2-4.6L1.8,17"/>
	<path fill="none" stroke="#000000" stroke-width="0.4526" stroke-miterlimit="10" d="M15.5,30.2c1.4,0,1.9-1.7,1.8-3.5
		c-0.1-1.6-1.1-2.4-2.3-3.1l-12.2-7"/>
	<line fill="none" stroke="#000000" stroke-width="0.4526" stroke-miterlimit="10" x1="12.2" y1="21" x2="6.8" y2="17.9"/>
	<path fill="none" stroke="#000000" stroke-width="0.4526" stroke-miterlimit="10" d="M16.6,30.1c1.4-0.2,2-2,2-3.3
		c0-1.5-0.4-1.6-1.1-2.6c-0.3-0.3-0.6-0.6-0.9-0.8l-1.1-0.6"/>
	<line fill="none" stroke="#000000" stroke-width="0.9052" stroke-miterlimit="10" x1="11.8" y1="19.4" x2="7" y2="16.7"/>
	<path fill="none" stroke="#000000" stroke-width="0.9052" stroke-miterlimit="10" d="M3.8,16.4c-1.2,0.2-2,0.6-2,0.6
		c-0.7,0.3-1.1,1.2-1.3,2.5c-0.2,2,0.7,4.2,2,4.9c0,0,10.7,6,11.2,6.3c0.5,0.3,1,0.2,1,0.2l3.8-1.7c0.9-0.1,1.5-1.1,1.7-2.6
		c0.1-1.6-0.4-2-1.3-3"/>
</g>
</svg>
